<?xml version="1.0" encoding="UTF-8"?>
<svg id="Layer_2" data-name="Layer 2" xmlns="http://www.w3.org/2000/svg" viewBox="0 0 43 37">
  <g id="Layer_1-2" data-name="Layer 1">
    <path d="M.41.05c.24-.12.56,0,.8.18.08.05.04.29.09.34.1.09.2-.02.3.09.03.04,0,.42.03.45.19.17.37.07.57.15.95.4,1.89.54,2.86.71.32.06.71.4,1.03.25.04-.02.02-.35.02-.38.11-.42.08.25.15.34.3.35.63.38.91.25.12-.06,0-.71.12-.34,0,.02-.02.38.01.41.08.08.22.02.28.05.11.06.13.05.24.06.15,0,.32.18.48.1.03-.02-.01-.38.04-.44.05-.06.19-.03.24.05.05.09.03.37.04.43.07.55.23-.21.25-.23.38-.32.71.11,1.07.11.27,0,.56-.14.82-.13.31.02.57.22.87.19.03,0,0-.43.03-.43.41-.05.82,0,1.23.28.04.03-.01.4.03.45.25.31.65,1.04.8-.58.17.06.38.13.53.46.1.21,0,.62.12.44.03-.04,0-.39.03-.43.17-.13.36-.01.53-.2.03-.04.03-.36.03-.41.08-.46.22.3.25.36.23.42.39.25.61.26.05,0,0-.43.04-.44.25-.06.5-.02.74.17.05.04,0,.41.03.45.11.17.14-.52.25-.37.02.03,0,.34.01.38.07.54.12-.22.14-.24.21-.23.35.57.55.45.02-.01-.03-.41.04-.43.46-.11.94,0,1.4.32.07.05.02.35.02.38.07.57.12-.19.14-.22.18-.21.35.43.47-.48.77.32,1.53-.2,2.29.62,0,0,0,.39.01.4.23.21.19-.37.34-1.09.04-.18.16.69.17.75.04.23,0,.79.01.84.11.36.09-1.5.23-1.5,0,0-.01.34,0,.38.04.11.07-.03.11.09.08.27.11,1.17.24.65.02-.07,0-1.12.12-1.07.05.02.27,0,.34.07.06.07.02.41.02.42.17.45.1.63.19,1.3.08.66.06-.92.1-1.09.03-.18.16.19.19.32.03.13,0,.34.02.42.18.48.08-.78.14-1.03.14-.59.25.58.38.69.03.03,0-.24.04-.26.12-.1.19.27.33-.06.02-.05.13-.76.21-.24.01.07-.02.37.03.43.08.1.22.16.3.06.06-.07,0-.55.07-.4.03.07-.03.35.04.45.06.1.23.09.29.08.06,0,.03-.37.03-.4.03-.14.15-.32.16-.32.53-.04,1.03.57,1.55.37.04-.02.01-.4.02-.41.14-.16.03.86.13,1.2-.01-.78.04-.64.14-.72.05-.04.02-.34.03-.37.07-.46.12.13.13.25.05.45.1-.08.13.22.03.3-.04.73.05.73.03-.28-.04-1.01.03-1.13.27-.45.77.13.99.18.22.06.29,0,.41.11.23.18.14-.36.29-.61.14-.25.07,1.08.09,1.37.02.29.04,0,.07.15.02.16-.03.35.03.41.06.06.22-.45.24-.75.04-.63-.03-1.3.13-1.07,0,.01-.02.36.01.4.27.27.55.29.82.52.04.03,0,.42.03.45.23.25.14-.41.27-1.14-.03.97.04,1.56.21,1.57.1,0,.09-.42.15-.72.02-.09.09.2.11,0,.04-.65-.03-1.38.15-1.09,0,.01-.02.37,0,.39.17.14.19-.54.38-.62.15-.06.41.35.57.42,0,1.09.15.84.22.09.11.03.23-.01.33.09.04.04.01.35.02.39.07.54.12-.2.14-.23.25-.28.46.28.7-.27,0-.02.02-.78.09-.22,0,.04-.08.38.04.41.11.03.33.43.49.08.04-.08.13-.7.21-.22.01.07,0,.28.01.4.05.39.07-.38.13.27.06.65.17,1.14.33.69,0-.01.04-.62.09-.61.08.02.19.14.28.14.04,0,.01-.38.02-.39.27-.21.46.12.75.27.05.03.2-.49.31-.08.11.45,0,2.3.25,1.86.1-.18.24-2.53.42-1.31.36-.3.7.32,1.06-.11.02-.02.07-.67.11-.67.06.01.09.32.13.34.17.09.33-.17.49-.13.06.01.04.33.12.35.07.02.12-.4.23-.2.08.15.15,1.01.25,1.11,0-.84.07-.82.2-1.05.02-.04,0-.34,0-.37.05-.15.09.09.13-.07.01-.04.01-.33.02-.38.07-.42.19.22.22.34.08.43.12.05.18.22.06.17-.03.38.04.48.15.21.34.16.49.18.06,0,.02-.38.03-.39.12-.1.25.31.32-.45.09,1.97.07-.19.25.2.01.03.03.97-.02,1.1-.05.14-.13-.15-.21.06-.02.05-.12.93-.13.98-.11.41-.12-.98-.13-1.06-.06-.83-.19.12-.22.18-.15.3-.27.1-.4.32-.08.14-.09,1.05-.15,1.02-.21-.09-.29-1.37-.48-.26-.04.24,0,1.24-.15.45,0-.05-.12-.77-.19-.31,0,.06,0,.35-.02.37-.07.16-.12-.07-.2.04-.08.11-.17.28-.27.18-.05-.06-.12-.6-.15-.73-.07-.38-.15.24-.2-.22-.05-.47.04-1.17-.08-1.47,0,.76-.01,1.53-.02,2.29-.27-.03-.53-.27-.79-.24-.03,0,0,.41-.03.43-.15.06-.28-.23-.43-.11-.12.09-.25.52-.38.63-.08-.87-.26-.57-.4-.65-.05-.03-.04-.26-.08-.33-.13-.28-.07.49-.1.61-.15.51-.16-1.22-.34-1.17,0,0-.12.92-.14.98-.1.37-.02-.32-.08-.39-.11-.12-.19-.35-.33-.07-.04.08-.13.66-.21.21-.01-.06,0-.36-.01-.38-.15-.3-.15.66-.23.99-.08.32-.21-.34-.24-.53-.07-.49.05-.21.06-.26.04-.58-.05-.48-.12-.53-.01-.94-.11-.88-.07-.05,0,.09.06,0,.07.05-.06.92-.17,1.04-.29.18-.06-.4,0-.87-.18-.7-.08.08-.05.72-.12.9-.16.4-.36-.2-.52-.11-.06.03,0,.39-.04.42-.11.1-.2-.17-.31-.03,0,.01.01.38-.02.39-.25.04-.47-.19-.74-.2-.13,0-.36.2-.49.16-.23-.07-.51-.61-.71-.48-.13.08-.1.45-.15.71-.11.49-.29-.39-.32-.52,0,0,.11-.09.05-.28-.03-.4-.05.28-.05.28-.02-.09-.24-.17-.28-.1-.02.04-.01.39-.02.4-.29.31-.59.4-.89.24,0,0,0-.4,0-.41-.17-.17-.28.31-.43.59-.14.29-.26.19-.34-.49-.11.08-.26-.21-.35-.39-.09-.18-.1.58-.11.6-.24.48-.38.05-.64-.02-.12-.03-.36.08-.49.16-.1.07-.16-.11-.26,0-.01.02,0,.36,0,.37-.11.41-.05-.43-.08-.57-.08-.54-.13-.83-.26-.57-.03.06-.12,1.26-.18,1.33-.07.09-.05-.34-.12-.24,0,0,0,.27-.05.26-.22-.05-.46-.21-.69-.18-.03,0,0,.42-.04.43-.21.05-.45.03-.65-.16-.05-.05-.02-.34-.03-.43-.07-.53-.16.24-.18.25-.38.37-.67-.33-1.06,0-.02.02-.18.84-.26.14,0-.05-.08-.77-.14-.28,0,.03.04.4-.04.37-.08-.04-.2.21-.31-.2-.03-.13-.11-.85-.22-.28,0,.04-.16,1.34-.22.44,0-.15,0-1.1-.12-.61-.02.09.02.31-.04.44-.09.2-.22-.05-.33.37-.02.07-.11.72-.17.23-.01-.08,0-.39-.03-.43-.17-.17-.35.04-.52-.18-.06-.08-.03-.59-.09-.73-.06-.14-.19-.27-.26-.04-.07.23,0,1.05-.09,1.12-.44.28-.87-.2-1.31-.27-.06-.01-.01.28-.11.29-.35.02-.96.3-1.27-.33-.24-.5.06-.88-.12-1.08-.09-.1-.19.85-.21.88-.21.3-.36-.12-.55.01-.04.03,0,.41-.03.43-.11.07-.24-.11-.35-.07-.05.01-.04.31-.09.29-.11-.05-.2-.17-.31-.45,0-.03.06-.39-.02-.4-.13-.02-.29-.29-.44-.01-.04.08-.05.76-.14.29-.02-.1,0-.9-.11-.21-.02.12-.21,1.06-.3.45-.02-.16-.09-.82-.14-.72,0,.02.02.38-.02.41-.16.12-.32.08-.48.19-.04.03.02.4-.04.44-.18.09-.39,0-.57-.12-.06-.04-.02-.35-.02-.39-.07-.55-.12.19-.14.23-.15.26-.27-.09-.41,0-.04.02-.01.38-.02.41-.08.31-.02-.33-.07-.4-.14-.2-.3-.17-.44-.12-.05.02,0,.43-.04.44-.28.07-.57.03-.85-.19-.05-.04-.02-.36-.03-.43-.07-.5-.18.18-.21.25-.11.3-.16.02-.26.07-.49.26-1.09.07-1.56-.04-.6-.15-1.07-.45-1.64-.37-.04,0,0,.42-.03.43-.41.1-.81-.06-1.21.06-.03,0,.01.41-.04.43-.11.06-.25.04-.36-.09-.05-.06.02-.4-.04-.46-.13-.13-.26-.16-.39-.09-.06.03.03.43-.04.44-.49.04-.98.11-1.47-.42-.03-.04-.06-.86-.14-.7,0,.23,0,.5,0,.74-.72.13-1.43-.15-2.14-.2-.03,0,.02.44-.04.43-.34,0-.67.11-1.02-.32-.03-.04-.02-.81-.12-.69-.02.02-.17.12-.21.29,0,.03.02.38-.03.39-.29.05-.59-.03-.87-.25-.05-.04,0-.42-.03-.45-.23-.2-.49.09-.71-.26-.15-.23-.09-.89-.17-1.54-.01-.09-.1-.11-.11-.48-.01-.95.03-1.99.01-3.01,0-.22-.13.02-.05-.51,0-.04.09-.21.12-.39.02-.12-.01-.51.02-.67.03-.16.07.16.12-.02.05-.19.03-.63.13-.68ZM28.83,6.13c-.08-.37-.09.98,0,.66,0-.02,0-.64,0-.66ZM38.76,5.91c-.11-.59-.18.28-.1.74.08.46.14-.56.1-.74ZM39.87,5.48c-.13-.47-.15,1.44-.01,1.05,0-.02.02-1.03.01-1.05ZM.54,5.62s-.07-.04-.07-.02c-.04.43.1.46.07.02ZM40.97,5.01c-.04-.26-.15.04-.1.36.04.26.15-.04.1-.36ZM24.55,4.69s-.05-.04-.05.08c0,.37.07.26.05-.08ZM42.85,4.99c-.28-.07-.45-1.65-.14-1.47.05.03-.12.5-.05.64.13.26.21-.73.34-.2.02.1-.13,1.03-.15,1.03,0,0,0,0,0,0ZM28.78,4.51s-.07-.03-.07-.02c-.04.43.1.46.07.02ZM21.78,3.86s-.16-.07-.16-.04c-.08.7.23.77.16.04ZM33.22,3.52c.07-.43.16-.48.22.06-.07-.03-.14-.03-.22-.06Z"/>
    <path d="M41.39,22.72c0,.19-.05.29-.16.28,0-.19.05-.29.16-.28ZM35.87,22.21c0,.12,0,.25,0,.37-.06,0-.13,0-.19,0-.06,0-.13.05-.13-.09.07,0,.14.03.19-.1.05-.12.01-.23.13-.19ZM35.98,21.93c.04.16.07.31.11.47.09-.06.18-.13.27-.19-.03.31-.15.41-.32.38-.02-.22-.04-.44-.06-.65ZM36.57,22.2s.07.07.1.1c-.05,0-.11,0-.16,0-.02.09-.04.19-.05.28,0-.19,0-.38,0-.56.04,0,.07,0,.11,0,0,.06,0,.12,0,.18ZM37,22.29c.01.09-.03.31-.11.28,0-.09,0-.19,0-.28.04,0,.07,0,.11,0ZM35.34,22.22s0,.03,0,.05c.04.01.07.03.11.04-.08.25-.23.19-.37.24-.09.03-.1.03-.16-.09.05-.01.09-.03.14-.04,0-.06.02-.13.02-.19.09-.02.13.08.19.19,0-.06-.02-.12-.03-.19.04,0,.07,0,.11,0h0ZM37.96,22.56s-.04,0-.05,0c0-.06,0-.13,0-.19.02,0,.04,0,.05,0,0,.06,0,.13,0,.19ZM6.56,14.06c.12.07.23.1.32.27.07-.25.17-.09.25-.11.22-.05.46-.06.64.01.18.07.16.1.34.08.13-.01.33.07.48.09,0,.06-.02.13-.03.19.08-.03.16-.05.24-.07.02,0,.04.05.05.04.11-.05.2-.19.32-.17.08.13.06.31.19.28-.02-.09-.04-.19-.05-.28.08,0,.16.1.24.09.04,0,.08-.08.11-.09.22-.05.34.09.48.35.05-.09.11-.19.16-.28.06.06.13.12.19.18-.04-.09-.07-.19-.11-.28.08-.05.12.06.19.06.05,0,.06-.07.11-.07.16,0,.34,0,.51,0,0,.09,0,.19,0,.28.06-.06.12-.13.19-.19,0,.09-.02.19-.03.28.06-.1.12-.19.19-.29.04.19.07.37.11.56.07-.05,0-.32.08-.42.06-.09.07.02.13.02.06,0,.07-.15.16-.17.1-.02.31-.04.42,0,.13.04.2.19.33.18.16,0,.27,0,.44,0,.04,0,.17.16.21.25.05-.22.21-.13.28-.2.07-.07,0-.22.09-.27.01.06.04.12.05.18.04-.03,0-.08.07-.08.07,0,.28.05.34.09.11.06.09.21.2.17,0-.06,0-.12,0-.19.08,0,.16,0,.24,0,0,.06,0,.12,0,.19.26-.4.52-.53.8-.12.08-.05.14-.16.22-.17.22-.04.48.12.68.16.16.03.26.02.38-.1.04.15.09.31.13.46,0-.12,0-.25,0-.37.08-.06.12.06.19.07s.03-.14.13-.17c.04,0,.21,0,.3-.01.17-.02.35-.06.54-.09.16-.03.33.14.33.49,0,.05-.07-.01-.03.13.06.22.21.47-.13.48,0,.1,0,.19,0,.29-.15-.2-.3.09-.12.18.07.03.32-.24.36-.37.1-.33-.07-.55-.01-.91,0-.06.28-.3.33-.31.07-.02.07.06.12.07.08.02.08-.1.16-.09.09,0,.19.15.29.09-.03.13-.07.25-.11.38.18,0,.17-.33.29-.48.04.06.08.12.11.18.04-.02.09-.03.13-.05.14.23.33.7-.05.43,0,.19.01.31,0,.51-.02.13-.07.22.04.33,0-.12.02-.25.03-.37.16-.03.19-.34.24-.57.02-.09-.07-.21-.02-.27.07-.1.17.14.16.27.02,0,.04,0,.05,0,0-.06,0-.12,0-.19.11.05.19-.09.29-.1.08-.01.09.09.16.09.14,0,.17-.15.35-.19.08-.02.38.14.51.14.03,0,.05-.09.1-.06.13.06.27.28.24.55.03-.06.05-.13.08-.19-.07-.12-.14-.19-.14-.37.13.13.25-.04.4,0,.03.01.1.21.14.17,0-.09,0-.19,0-.28.04-.06.16.06.18.06.11,0,.2.09.27.1.07.01.12-.17.16-.16.13.03.19.23.28.35,0-.06.02-.12.03-.19.05,0,.11,0,.16,0,0,.06,0,.13,0,.19.12-.16.19-.21.35-.19.09.01.13.11.21-.09.04.06.07.11.11.17.26-.19.46.12.72.19,0,.06,0,.12,0,.18.04-.02.07-.03.11-.05-.04-.11-.07-.22-.11-.32.08-.04.16.07.24.09.12.02.19-.08.3-.1,0,.06,0,.12,0,.18.08.06.16.13.24.19.07-.13.14-.25.21-.38.04.06.08.12.11.18.03-.03.07-.06.1-.09,0,.12-.02.25-.03.38.1-.22.2-.44.29-.66.04.16.07.31.11.47.04-.13.09-.25.13-.38.07.03.14.06.21.09,0,.06,0,.12,0,.18.04-.03.09-.06.13-.1,0,.06,0,.13,0,.19.08-.11.15-.21.27-.18.07.02.31.1.36.07.16-.1.15-.25.31-.18,0,.06,0,.12,0,.18.12.09.23.19.35.28,0-.06,0-.13,0-.19-.03-.03-.05-.06-.08-.09.1-.06.2-.12.3-.19.18.16.33,0,.53.1.09.04.16.26.29.16,0-.06,0-.12,0-.18.13-.03.32.13.43.23.08.07.06.16.16.04.03.09.06.19.08.28,0-.12.02-.25.03-.38.13.13.2.1.29-.1.03.05.05.09.08.14-.08.13-.05.22.03.33.05-.02.03-.13.05-.19.09-.23.15-.14.26-.12.19.02.35-.03.54.03.04.01.08.11.13.08,0,.1,0,.19,0,.28.13-.1.22-.3.37-.29,0,.06,0,.12,0,.18.07,0,.14,0,.21,0,0-.06,0-.12,0-.19.04.06.09.12.13.18.08-.06.16-.12.24-.19.02.27-.1.13-.19.29-.04.06-.05.2-.08.28.09,0,.18,0,.27,0,.02-.16.03-.31.06-.47.06-.04.24.09.28.09.37-.01.67-.11,1.04-.03.05.01.08-.1.16-.09.1,0,.27.16.37.27.06-.06.11-.12.16-.18.07.09.15.18.22.27.1-.01.21-.11.32-.09.13.03.17.15.29,0,0,.06.02.13.03.19.18-.19.36-.08.54.09,0-.09.02-.19.03-.28.13-.07.17.14.3.16.06.01.11-.14.21-.06.06.05.1.21.21.08.09.13.06.3.2.29-.01-.57.23-.16.27-.15.2.07.26-.03.42.04,0-.07,0-.12,0-.18.11-.08.31.08.39.09.21.02.42.02.59-.01.21-.03.27.1.44.17.15.06.27-.03.42.02.03.01.08.11.13.08,0,.06,0,.12,0,.18.19-.22.34-.17.55-.09.12.04.22.04.34.07.05.01.08-.1.15-.08.05.02.12.12.19.08,0,.06,0,.12,0,.19.14-.16.19-.05.35,0,.11.03.13-.03.28-.03.18,0,.52.06.73.12.11.03.24.23.32.24.09.02.06-.12.14-.07-.04.25.05.32.1.52.11.52.11,1.14.12,1.66,0,.13-.07.15-.06.25.05,0,.11,0,.16,0-.02.14.05.29.06.41.01.15-.04.19-.05.3,0,0,0,0,0,0-.01.16.03.21,0,.38,0,.04,0,.13,0,.17-.09.26-.25.16-.26-.13-.04,0-.09,0-.13,0,0,.06,0,.13,0,.19-.08-.06-.16-.12-.24-.19.04.08.07.16.11.23-.03.08-.05.16-.08.24-.09-.09-.17-.05-.26-.11-.09-.06-.09-.2-.21-.08-.06-.05-.11-.24-.16-.27-.15-.08-.02.34-.03.46.09-.03.18-.06.27-.1,0,.09,0,.19,0,.28.08.01.22.19.27.04,0-.04,0-.09,0-.13h.05c.02.08.03.16.05.24.05.01.11.03.16.04,0,.12,0,.25,0,.37.1,0,.18.17.27.05-.07-.09-.14-.19-.21-.28-.01-.3.06-.5.18-.7.07.14.15.2.13.42,0,.08-.1.28-.09.37.01.17.12.24.1.43-.1.03-.21.07-.32.1-.04.09-.09.19-.13.28-.04-.13.08-.2.1-.28.03-.1-.04-.17-.03-.28-.11-.02-.17.04-.24.19-.08-.09-.07-.18-.08-.32-.01-.1-.1-.05-.13-.15-.03.12.05.18.02.33-.02.09-.12.18-.1.33-.17.01-.27-.24-.43-.28.05.08.11.16.16.23-.1-.05-.2-.09-.3-.14-.11.21-.04.42-.24.38.04.12.07.25.11.37-.14.07-.24-.12-.35-.17-.19-.08-.25,0-.34-.34.05-.17.1-.34.16-.52-.05.02-.11.04-.16.06-.01.27-.13.06-.19-.06.02-.09.04-.19.05-.28-.15.23-.21.4-.19.75-.03,0-.07,0-.1,0,0,.09,0,.19,0,.28-.07,0-.14,0-.21,0,.02-.05.03-.09.05-.14-.03-.05-.05-.09-.08-.14-.04.06-.07.12-.11.18-.04-.03-.09-.05-.13-.08.04.22,0,.43,0,.66-.1,0-.2-.01-.3,0-.07,0-.09.11-.16.1-.09,0-.19-.15-.29-.09,0-.13.08-.14.14-.18.07-.04.08-.04.07-.2.1.04.17.04.27,0,0,.18,0,.2.11.18-.03-.13.04-.21.04-.33,0-.12-.06-.15-.03-.28.01-.06.12-.17.1-.24-.06.03-.13.06-.19.09,0,.09-.02.19-.03.28-.19-.05-.28.22-.45.29-.02-.06-.04-.12-.05-.19,0,.16-.02.31-.03.47-.17,0-.35.09-.38-.28.07.03.14.06.21.09.02-.12.04-.25.05-.38.18-.03.36-.07.54-.1-.02-.19-.04-.37-.06-.56.09-.03.18-.06.27-.1,0,.09,0,.19,0,.28.17.06.34.12.51.17.04-.09.09-.18.13-.27-.07-.05-.14-.09-.21-.14.08-.16.16-.15.27-.14-.08-.25.05-.44-.08-.66,0,.13.02.25.03.38-.05,0-.11,0-.16,0,0,.06,0,.12,0,.18-.13,0-.11.1-.1.29-.08.02-.12.01-.11-.14,0-.09.06-.16.03-.24-.07.17-.12,0-.21.01-.06.01-.07.15-.12.17-.1.04-.19.05-.29.11,0-.13-.02-.24.06-.33.05-.05.11.06.15-.09-.04-.04-.09-.09-.13-.13-.06.06-.12.12-.19.18.02.09.04.19.05.28-.07.03-.14.06-.21.1,0-.19.02-.37-.05-.52.04-.03.07-.06.11-.09-.14-.05-.29-.09-.43-.14.11.11.21.22.32.32-.02.08-.04.16-.05.24-.15.03-.06-.17-.16-.19,0,.06,0,.13,0,.19-.07,0-.14,0-.21,0,.03.06.05.12.08.19.18-.14.25-.06.38.18.08-.03.16-.06.24-.09.02.16.04.31.06.47-.06.03-.08-.15-.15-.18-.03-.01-.13.02-.17,0,0-.06,0-.17-.03-.18-.05-.02-.13-.08-.16-.07-.09.02-.11.12-.19.07-.02-.3-.18-.31-.3-.46-.01.08.01.24.06.28.06.05.07-.04.14.06.06.1.12.36.21.46-.12.08-.25.16-.37.24-.02-.28-.14-.38-.29-.28-.11-.12-.35-.1-.4-.32,0-.03.04-.03.03-.1,0-.03-.04-.27-.09-.22-.05.17-.11.34-.16.51.04.08.09-.12.11,0,.01.07-.03.15,0,.23-.07-.01-.11,0-.17,0,.05.09.09.19.13.28,0,0,.02,0,.03,0,0-.09,0-.19,0-.28.01.03.15.13.15.23,0,.04-.04.04-.03.1.02.1.15.24,0,.32-.05.03-.12-.08-.13-.18.03-.03.07-.06.11-.1-.26.02-.39-.25-.56-.56-.05.08-.08.18-.11.28-.04.15-.02.22-.13.19,0-.1-.03-.31.03-.37.08-.07.15-.23.21-.27.06-.03.05.1.11.06.05-.04.07-.11.14-.09-.02-.05-.03-.09-.05-.14.03-.05.05-.09.08-.14.06-.02.12-.03.19-.05-.05-.09-.18-.07-.23-.04-.06.03-.09.21-.14.18-.03-.12.04-.22.04-.32,0-.14-.1-.13-.09-.3-.04.1-.07.2-.11.3.01.11.03.22.04.33-.05-.06-.11-.12-.16-.19.04.09.07.19.11.28-.13-.03-.25.09-.37,0-.02.08-.04.16-.05.24-.09.08-.18.15-.27.23.05-.11.11-.22.16-.33.01-.24,0-.19-.11-.24,0,0,0-.08-.03-.08-.02,0-.02.07-.03.08-.04.03-.07,0-.11,0,.03.11.07.22.1.33-.06.14-.04.25-.15.24,0,.06,0,.12,0,.17-.07.07-.14.13-.21.2-.04-.16-.09-.31-.14-.47-.04.14-.09.28-.13.42.04.08.07.16.11.23-.04,0-.07,0-.11,0,0,0,0,0,0,0-.02-.14-.04-.24,0-.38-.04.09-.07.19-.11.28-.08.01-.12.03-.11-.13-.05-.02-.11-.04-.16-.05.05-.03.11-.07.16-.1.02-.3.1-.48-.05-.7.03-.11.07-.22.1-.33.04.09.09.19.13.28.04-.09.07-.19.11-.28.08.13.07.31.19.28,0,.12-.02.25-.03.37.04,0,.09,0,.13,0-.02-.14-.04-.28-.05-.42.07-.13.14-.26.21-.38-.09.08-.18.16-.27.24,0-.11,0-.35-.09-.36-.04,0-.08.09-.13-.02,0,.1,0,.19,0,.28-.05,0-.11,0-.16,0,0-.04,0-.09,0-.13-.04.01-.07.03-.11.04.03-.13.05-.25.08-.38.04.09.07.19.11.28,0-.09.02-.19.03-.28.05.03.11.06.16.09-.03-.13.03-.21.04-.33,0-.08-.04-.1-.04-.19,0-.13,0-.29,0-.42-.09-.03-.18-.06-.27-.09,0-.17,0-.27.08-.38.05.03.1.06.15.09.05-.06.09-.12.14-.19.02.19.04.37.05.56.13-.07.1-.29.17-.47.01-.03.12,0,.12-.1.03.06.05.12.08.19-.05.06-.11.13-.16.19.06.03.13.06.19.09.03-.09.05-.19.08-.28.14-.03.28-.07.43-.1-.04.03-.07.06-.11.1.02.12.04.25.05.37.04-.06.09-.13.13-.19.08.05.04.18.09.27.06.09.2.08.26.19.06,0,.11,0,.16,0-.04-.06-.07-.13-.11-.19.02-.12.03-.25.05-.37-.05-.01-.1.13-.14.18-.04.05-.14.17-.18.06.17-.36.34-.42.56-.15,0-.09,0-.19,0-.28.05.14.09.28.14.42-.09.13-.18.25-.27.38.07.07.03.3.14.22.06-.04.15-.34.21-.35.12-.01.19.06.3.07-.08-.15-.16-.31-.25-.47,0-.06.02-.12.03-.18-.3-.13-.07-.52.05-.47.04.16.09.31.13.47.1-.13.06-.17.03-.33-.05-.25.14-.06.21-.05,0,.09,0,.19,0,.28.07-.03.14-.06.21-.1-.04-.06-.07-.12-.11-.19.22.02.37-.18.37-.57-.04.13-.09.25-.13.38-.03-.16-.05-.31-.08-.47.04-.06.07-.13.11-.19-.05.05-.11.1-.16.15-.03.09-.07.18-.1.27.02.08.03.16.05.24-.05.03-.11.06-.16.09,0-.06,0-.12,0-.19-.12.03-.25.06-.37.1,0-.09,0-.19,0-.28.04.03.07.06.11.09.03-.09.05-.19.08-.28,0,.06.02.12.03.19.07,0,.14,0,.21,0-.06-.42-.21-.38-.4-.19-.04-.06-.07-.11-.11-.17-.06.06-.12.12-.19.18,0-.06.02-.13.03-.19-.06-.03-.13-.06-.19-.09.02.12.04.25.05.37-.03,0-.07,0-.1,0,0,.06,0,.12,0,.18-.12-.02-.17.09-.27.19.02-.13.04-.25.05-.38.1.02.14.12.21-.05-.03-.05-.06-.09-.08-.14,0-.09.02-.19.03-.28-.05.06-.11.13-.16.19-.02-.12-.04-.25-.05-.37-.05,0-.11,0-.16,0,0,.15.14.05.1.23-.04.18-.09.09-.15.06,0,.06,0,.12,0,.18-.05,0-.11,0-.16,0,.07.2.15.27.03.47-.06-.11-.11-.17-.14-.33,0-.04-.04-.22-.04-.27.01-.14.06-.19.04-.34-.02.06-.04.12-.06.19-.07,0-.12.1-.18.1-.05,0-.07-.07-.11-.07-.04,0-.05.1-.1.06-.07-.05-.1-.21-.19-.17.03.14.07.28.11.41-.02.08-.04.16-.05.24-.05,0-.11,0-.16,0,0,.12.02.25.03.37-.06-.08-.13-.16-.19-.23.04-.1.08-.16.09-.29.02-.18.01-.43-.04-.6.04,0,.07,0,.11,0v-.28c-.07-.03-.14-.06-.21-.09.02.19.04.37.06.56-.1-.11-.13,0-.21.1,0-.06,0-.12,0-.19-.04.03-.09.06-.13.1,0-.06.02-.12.03-.19-.07.04-.18-.1-.23-.09-.11.04-.07.28-.09.35-.02.07-.05,0-.07.03-.19.17-.37.35-.54.56-.03-.13-.05-.25-.08-.38-.04.11-.11,0-.16.12-.04.11-.02.38-.14.45,0-.12.02-.25.03-.37-.06.09-.12.19-.19.28-.09-.06-.18-.12-.27-.18,0,.06.02.13.03.19-.08.05-.14-.14-.19-.17-.11-.07-.18.11-.26.07-.1-.05-.09-.22-.2-.17,0,.09,0,.19,0,.28-.09-.03-.18-.06-.27-.09v-.09h-.11c0-.16,0-.31,0-.47-.02.06-.04.13-.05.19-.05-.05-.11-.09-.16-.14.03-.06.07-.13.11-.19,0-.11-.08,0-.1-.05-.05-.1.05-.25.02-.37-.09.09-.18.19-.27.28-.03,0-.05,0-.08,0,0-.09,0-.19,0-.28-.07-.03-.14-.06-.21-.09.04.05.07.09.11.14,0,.17-.04.3-.05.47,0,.08,0,.2-.08.13-.03-.03-.06-.16-.11-.16-.07,0-.12.03-.19-.02,0-.06,0-.12,0-.18-.05-.02-.11-.03-.16-.05-.02-.08-.04-.16-.05-.24-.05.03-.11.06-.16.1,0-.06,0-.12,0-.19-.13-.02-.2.04-.21.28-.14.03-.28.07-.43.1.02-.25.03-.5.05-.75-.05.03-.11.07-.16.1,0,.09,0,.19,0,.28-.09.02-.13-.08-.19-.18-.06.08-.12.16-.19.23.05.01.11.03.16.04,0,.09,0,.19,0,.28.08.03.16.06.24.1.05.15.09.31.14.46-.04.03-.09.06-.13.1,0-.12-.02-.25-.03-.38-.07,0-.14,0-.21,0,0,.06,0,.12,0,.19-.04,0-.07,0-.11,0,0-.06,0-.12,0-.19-.06.03-.12.06-.19.1-.02-.14-.05-.28-.07-.42.01-.08.03-.15.04-.23.03-.02.07-.04.11-.05-.11-.23-.25-.23-.4-.32-.12.18-.03.33-.03.56-.04-.03-.09-.06-.13-.09-.04.06-.07.12-.11.19-.06-.09-.13-.18-.19-.28-.06.47-.29.31-.5.4-.09.04-.11.28-.22.27-.03-.12-.05-.25-.08-.37.11.06.21.01.32,0,0-.09,0-.19,0-.28.03,0,.07,0,.11,0,.04-.19-.12-.38-.22-.37.02.23-.11.35-.05.56-.07-.09-.14-.18-.22-.28-.05.31-.11.63-.16.94-.03-.16-.05-.31-.08-.47-.11-.12-.22-.24-.33-.36,0-.09,0-.19,0-.28-.07.13-.16.22-.13.42.02.18.15.09.2.15.05.06.02.19.08.25,0,0,0,0,0,0,0,0,0,0,0,0-.03.07-.07.13-.1.2-.05-.12-.11-.25-.16-.37-.06.03-.12.07-.19.1-.02-.12-.04-.25-.05-.37.04.01.07.03.11.05,0-.08,0-.16,0-.23-.12-.06-.2-.06-.32,0,.04.19.07.37.11.56-.07-.09-.14-.18-.22-.28v.56c-.04-.17-.07-.34-.11-.51,0-.05,0-.09,0-.14.16,0,.12-.15.02-.28-.08.03-.16.07-.24.1.02.08.04.16.05.23-.05.08-.11.16-.16.24-.13-.15-.12-.44-.27-.56-.02.17.16.32.1.46-.03.08-.11-.12-.15-.03.05.05.03.21.09.23.1.03.14-.04.13.19-.11.03-.14-.14-.22-.23-.05-.06-.1.07-.16.05.04-.03.07-.06.11-.1-.02-.19-.04-.37-.06-.56-.12.03-.25.07-.37.1-.02.12.04.15.05.25,0,.17-.07.24,0,.41-.07-.03-.14-.06-.22-.09.02-.05.03-.09.05-.14-.02-.04-.03-.09-.05-.14.04,0,.07,0,.11,0,0-.09,0-.19,0-.28-.05,0-.11,0-.16,0,0,.12,0,.25,0,.37-.11-.03-.21-.06-.32-.09,0,.06.02.12.03.18-.07.4,0,.59.24.56-.04-.09-.07-.19-.11-.28.04-.03.09-.06.13-.1.07.1.09.21.08.37.05,0,.11,0,.16,0,0,.06,0,.12,0,.19.07.03.14.06.21.09-.11.03-.21.07-.32.1,0,.09,0,.19,0,.28-.1.02-.11,0-.11-.18-.03,0-.07,0-.1,0,.02-.06.04-.12.05-.19-.09.02-.18.03-.27.05.07.16.22.19.22.42.16.03.24-.08.35-.29.02,0,.03,0,.05,0,.08.12.13.28.24.28-.02-.1-.04-.18-.05-.28.12.02.3-.32.39-.27.18.09,0,.45.04.64.18.09.18-.26.29-.36.09-.08.19,0,.27-.02.06-.01.07-.09.11-.09.21.01.35.35.56.35-.05-.12-.11-.25-.16-.37.09.03.18.06.27.09,0,.06,0,.12,0,.18.09,0,.18,0,.27,0,0-.09,0-.19,0-.28.02.06.04.12.05.19.09-.1.15-.22.27-.19-.05-.09-.11-.19-.16-.28.07.03.14.06.21.09,0,.06,0,.12,0,.18.08.09.16.19.24.28,0-.06.02-.13.03-.19.06-.04.1.06.14.08.07.03.09-.11.15-.08.05.02.08.11.14.09,0,.06,0,.12,0,.18.06.05.09-.08.13-.07.11.02.16.2.28.17-.01.06-.03.12-.04.18.05-.02.14.06.16-.06.02-.12.01-.14.1-.13,0-.06,0-.12,0-.18.1-.02.2.01.29.09.06.05.02.18.03.28-.09,0-.18,0-.27,0,0,.32.17.43.16.75-.05-.01-.11-.03-.16-.04.02.08.03.16.06.23.04-.1.16-.13.2-.2.04-.06,0-.15.01-.22.01-.04.04-.07.04-.12,0-.1-.05-.14-.04-.26,0-.05.05-.11.05-.2,0-.12,0-.29,0-.42.07-.03.12.09.19.09.07,0,.11-.12.19-.1-.04.08-.07.16-.11.24.04.08.07.16.11.23,0-.09-.02-.23.03-.28.03-.03.08-.09.1-.08.09.02.13.12.22.07.02-.06.04-.13.05-.19.03.09.06.19.08.28-.06-.04-.23.15-.15.27.06.09.16-.17.23,0,.08-.09.16-.18.24-.27.02.08-.03.26-.06.31-.07.16-.17.12-.16.35.09-.03.18-.07.27-.1,0,.09,0,.19,0,.28.05,0,.11,0,.16,0,0,.06-.03.14-.06.19,0,0-.05,0-.05.05,0,.05.05.04.05.05.02.06,0,.13,0,.19h.03c0-.06.02-.12.02-.19-.02,0-.04,0-.05,0h0v-.09s.04.06.05.09c.15-.15-.01-.38-.03-.5-.02-.12.04-.12.04-.2,0-.13-.1-.32-.05-.42.03-.07.15.03.13.19-.02.16.03.39.13.45.02-.15-.15-.3-.05-.41.08-.09.17.08.26.03,0-.18.05-.29.16-.28-.09.29-.03.59.16.65-.02.09-.04.19-.05.28.12.06.25.12.37.18.02.06.04.12.06.18.02-.09.04-.19.05-.28-.12-.03-.25-.06-.37-.09-.02-.25-.04-.5-.06-.75.04-.03.07-.06.11-.1-.07-.03-.14-.06-.21-.09.14-.1.25-.09.37.04.13.12.07.04.2.05.07,0,.15.14.24.09,0,.28-.04.5-.1.75.04.03.09.06.13.09.06-.09,0-.19.04-.34,0-.03.08-.26.12-.32.07-.11.25-.23.35-.19,0,.06,0,.12,0,.19.1-.11.19-.08.29-.1.07-.01.09-.11.16-.1.13.02.21.17.34,0-.03.1-.07.19-.11.28.09-.02.16,0,.24.09.02.02.03.02.05.03,0-.07.02-.14.03-.21.13-.03.25-.07.38-.1-.03.21-.14.46.05.47-.02-.12-.04-.25-.05-.37.09-.03.18-.07.27-.1.02-.06.04-.12.06-.19,0,.09-.02.19-.03.28.03.1.1.04.13.11.06.14.03.29.17.27-.06.12-.01.12-.01.23,0,.11-.15.32-.2.19.03-.08.07-.16.1-.24-.06.02-.16.04-.21.09,0,0,.06-.2.09-.22-.02,0-.05.02-.07.03-.02-.03-.04-.05-.05-.08-.08.11-.13.37.03.27-.04.05-.03.17-.09.19-.12.03-.18-.13-.29.01.01-.08-.05-.32-.1-.28-.05.05-.07.13-.11.18.05.13.09.25.14.37.04-.06.09-.13.13-.19,0,.12.02.25.03.37.04-.06.07-.13.11-.19.03.05.05.09.08.14-.11.27.12.83-.09.96-.02.01-.1-.11-.12.07.01.1.04.22.05.32.03,0,.07,0,.1,0-.03.09-.05.19-.08.28-.08-.28-.16-.56-.24-.84-.02.09-.04.19-.05.28-.12,0-.21-.12-.32,0,0-.16,0-.31,0-.47-.06.02-.08-.04-.13-.07-.02-.01-.04.06-.05.05-.09-.04-.15-.15-.22-.26,0,.16-.02.31-.03.47-.05-.06-.11-.12-.16-.18-.03.31-.07.63-.1.94-.02-.06-.04-.12-.06-.19-.11.13-.18-.11-.29,0-.04-.09.05-.19.08-.24.04-.06.07.01.11-.07.03-.08.04-.26.11-.31-.03-.1-.07-.18-.1-.28.02-.08.03-.16.05-.24-.08.09-.13.01-.21,0,0,.18,0,.31-.11.38-.03-.27-.13-.47-.11-.75-.06.16-.13.41-.18.55-.05.14-.09.17-.14.3.04,0,.07,0,.11,0,0,.26-.04.5,0,.75-.11-.08-.08-.31-.22-.28.02.06.04.12.05.19-.07.06-.14.13-.21.19,0-.19-.03-.3.11-.29-.02-.09-.04-.19-.05-.28.04-.03.09-.06.13-.09.04.06.09.12.13.18-.02-.25-.13-.43-.1-.7,0-.06.12-.16.1-.24-.2-.01-.26.25-.27.57-.05,0-.11,0-.16,0,0-.06.02-.12.03-.19.05.11.11.12.08-.05,0-.06-.04-.22-.06-.26-.05-.15-.1-.22-.18-.25.03.03.05.06.08.1.04.38.12.54-.16.56,0,.09,0,.19,0,.28.05-.06.11-.13.16-.19.02.36-.13.32-.24.58-.01.04,0,.29-.02.35-.07-.01-.13-.23-.19-.26-.14-.06-.22.11-.35.08-.01-.27.1-.18.21-.19.02-.22.03-.44.05-.65.06,0,.2.02.2-.16,0-.1-.07-.2.01-.32-.07,0-.14,0-.22,0,0,.13-.02.25-.03.38-.08-.06-.16-.12-.24-.18.04.12.07.25.11.37-.05,0-.11,0-.16,0-.04.12-.07.25-.11.38.05-.35.14-.58,0-.89.06-.11.12-.22.19-.33.1.13.29.35.29,0-.11.12-.19-.1-.29-.09-.18.02-.11-.02-.29-.08-.05-.02-.29.16-.35-.1-.04.07-.06.13-.08.19.09.03.18.06.27.09,0,.09,0,.19,0,.28.03-.03.05-.06.08-.08.03.09.05.18.08.27-.1.03-.2.06-.3.08s-.19.04-.29.07c.06.15.15.15.24.14.07-.01.19-.3.23-.18.07.18-.2.42-.1.64-.06,0-.11,0-.16,0,.02-.06.04-.13.05-.19-.1,0-.28-.05-.34-.18-.07-.15,0-.16-.04-.34-.04-.15-.17-.43-.23-.59,0,.12.02.25.03.37-.04.03-.07.06-.11.1.05-.03.11-.07.16-.1,0,.17.12.38-.04.46-.04.02-.25-.16-.33-.08,0-.06,0-.12,0-.18-.09,0-.18,0-.27,0-.02-.08.08-.16.09-.24,0-.03-.04-.05-.03-.09.02-.13.11-.16.09-.33-.05.16-.11.31-.16.47-.05-.06-.11-.12-.16-.18.02.11.04.21.05.32-.02.08-.03.16-.05.24-.05-.03-.11-.06-.16-.09,0,.06,0,.12,0,.18-.08,0-.17.12-.24,0,0,.08.02.15.03.23-.12.19-.29.47-.27-.04-.04.06-.09.13-.13.19,0-.13.02-.25.03-.38-.05-.03-.11-.06-.16-.09,0,.13,0,.25.03.37.04.17.13.27.13.47-.14.01-.19-.27-.3-.35-.07-.06-.12.03-.19-.06-.06-.08-.07-.25-.13-.32-.1.02-.13.12-.13.28,0,0,0,0,0,0,0,0,0,0,0,0-.04,0-.07,0-.11,0,0-.09,0-.19,0-.28-.07-.03-.14-.06-.21-.09-.01-.18,0-.2.11-.19-.02-.15-.04-.31-.05-.46-.07,0-.14,0-.21,0,.04-.13.07-.25.11-.38-.07.06-.14.13-.21.19,0-.18.02-.46-.08-.55-.1-.09-.07.08-.08.17-.05,0-.11,0-.16,0-.02.22.06.32.11.5,0,.11,0,.23,0,.34-.04-.09-.07-.18-.11-.28-.03,0-.07,0-.1,0,0-.09,0-.19,0-.28-.09.07-.18.13-.27.2-.03.19-.05.37-.08.56,0-.12-.02-.25-.03-.37-.04-.01-.07.02-.11,0,0,0,0-.08-.03-.08-.02,0-.02.07-.03.08-.03.03-.05-.01-.07.02-.09.1-.13.21-.25.18.03-.09.04-.11.11-.1-.02-.16-.04-.31-.05-.47.05.03.11.06.16.09-.05-.13-.02-.19,0-.32-.06-.13-.12-.15-.21-.15,0-.06,0-.12,0-.18-.05,0-.11,0-.16,0,0,.09,0,.19,0,.28.16-.18.29.05.13.18-.06.05-.14-.03-.21.02-.06.05-.1.2-.19.18.02.16.04.31.05.47.05,0,.11,0,.16,0,0-.06,0-.12,0-.19.04,0,.07,0,.11,0-.04.08-.07.16-.11.24.03.09.07.18.1.28-.04.11-.09.22-.13.33-.08-.2-.18-.14-.3-.23-.02-.03-.03-.06-.05-.09.01-.03.03-.06.04-.09-.06-.14-.12-.15-.21-.14,0-.28.04-.42.19-.57.03-.03.15-.05.1-.19-.07.03-.14.06-.21.09-.03-.03-.06-.06-.09-.09.02.11,0,.45-.11.27-.01-.02-.02-.25-.08-.26-.05.05-.09.13-.13.19-.02-.04-.04-.08-.07-.11-.05.14-.06.22.01.35-.04-.01-.08-.02-.12-.03-.08.06-.17.12-.25.18.09,0,.18,0,.27,0-.04.13-.07.25-.11.38.09-.1.18-.19.27-.29-.04.14-.07.28-.11.43-.05-.02-.11-.03-.16-.05.07.12.14.25.22.37-.11-.06-.21-.12-.32-.18-.06-.22-.13-.44-.19-.65-.06.03-.12.06-.19.1-.02-.16-.04-.31-.06-.47.09,0,.18,0,.27,0,0,.19-.02.31.11.28-.09-.27.02-.43.11-.66-.09.06-.18.13-.27.19,0-.09,0-.19,0-.28.11-.03.16-.12.27,0,0-.06,0-.12,0-.19-.04.05-.11-.08-.13-.07-.09.02-.19.28-.26.26-.18-.04-.02-.46-.04-.52-.07-.21-.12.09-.13.16-.03.19,0,.31-.14.29.07.06.14.12.22.18-.12,0-.25,0-.38,0,.06.2.14.3.27.28,0,.24.02.42.11.61-.05-.01-.11-.03-.16-.05,0-.16,0-.27-.08-.36-.02.03-.04.05-.05.08,0-.06-.02-.12-.03-.18-.07.11-.14.22-.21.33.14.17.06-.2.19-.13.08.04.09.24.08.36-.04.04-.07.07-.11.1.17.1.31.09.48-.01,0,.15-.09.08-.14.2-.04.1-.03.29-.1.37-.16.08-.02-.23-.04-.25-.1-.18-.23-.25-.34-.39,0,.1,0,.19,0,.28-.04-.06-.07-.11-.11-.17-.06.15-.11,0-.16.01-.11.03-.08.32-.19.36,0-.12-.02-.25-.03-.37-.06.06.02.2-.08.14-.05-.03-.1-.06-.16-.04,0-.27.04-.54-.08-.75-.08.08-.16.16-.24.24.05,0,.11,0,.16,0-.01.03-.03.06-.04.09.09.16.11.3.1.51-.07,0-.14,0-.21,0,0,.06,0,.12,0,.18-.07.05-.13-.06-.19-.08-.08-.02-.11.11-.18.08,0-.19-.03-.29.1-.29.02-.19.04-.37.05-.56-.14,0-.37.21-.37.48-.03-.03-.05-.06-.08-.09-.04.09-.07.19-.11.28-.07-.11-.1-.17,0-.27.12-.12.21-.08.18-.39-.22,0-.23.45-.45.46-.17.01-.18.13-.34.2-.08.04-.25.06-.36,0-.11-.06-.16-.25-.3-.16-.04-.16-.07-.31-.11-.47.04,0,.07,0,.11,0v-.37c.04.06.09.11.13.17.1-.12.19.02.3,0-.02.19-.13.1-.19.01-.04.09-.09.18-.13.28.13.03.27.06.4.08.05-.16.09-.31.13-.47-.08,0-.16,0-.24,0-.03-.09-.06-.19-.08-.28.11.06.21.12.32.18,0-.16,0-.31,0-.47-.13,0-.25.07-.38,0-.03.16-.05.31-.08.47-.19-.1-.12-.25-.03-.47-.07-.04-.2.12-.24.18-.04.06-.01.16-.03.18-.11.14-.25.05-.35.21.03-.16.05-.31.08-.47.09-.02.18-.04.27-.05-.01-.25-.17-.16-.24-.04,0-.06-.02-.12-.03-.19-.04,0-.08-.03-.11.05-.01.04-.04.16-.04.18.02.22.04.23-.06.39.02.07.04.15.05.22-.05.03-.11.07-.16.1.02-.09.04-.19.05-.28-.07.05-.14.1-.21.15.04-.02.07-.03.11-.05-.02.19-.03.38-.05.56-.05-.05-.11-.09-.16-.14.04-.03.07-.06.11-.09-.07-.12-.14-.25-.21-.37.02-.08.03-.16.05-.24.04.03.07.06.11.09,0-.09,0-.19,0-.28-.16-.09-.27-.09-.43.01v.28s-.09-.06-.13-.09c-.03.05-.05.1-.08.14.04.03.07.06.11.09-.08.08-.16.16-.24.24,0-.06-.02-.12-.03-.19-.05.03-.1.07-.16.1-.04.16-.07.31-.11.47-.16-.09-.02-.19-.06-.37,0-.02-.12-.03-.1.06,0,.04,0,.09,0,.13-.04,0-.07,0-.11,0,0-.06,0-.12,0-.19-.11,0-.21,0-.32,0,.04.09.09.18.13.27,0,0,0,0,0,0,0,0,0,0,0,0-.06.03-.15.08-.2.1-.05.02-.05,0-.09,0,.02-.08.04-.16.05-.23-.07-.14-.18-.11-.16-.33-.06.02-.11.13-.16.19,0-.03-.02-.06-.03-.09-.02,0-.02.08-.03.09-.14.13-.26-.02-.4.02-.02-.06-.04-.13-.06-.19,0,.12.02.25.03.37-.05,0-.11,0-.16,0,.01-.29-.03-.5-.11-.75.07-.03.14-.07.21-.1-.02-.09-.04-.19-.05-.28-.07-.03-.14-.06-.22-.09,0,.11-.05.22-.05.33,0,.11.05.24.08.32.06.15.1.13,0,.28-.08-.12-.16-.25-.24-.37,0,.09,0,.19,0,.28-.03,0-.07,0-.1,0,0,.09,0,.19,0,.28-.1,0-.07-.19-.11-.26-.05-.07-.11,0-.18-.02-.03-.02-.05-.1-.12-.08-.1.03-.28.34-.39.29-.03-.22.11-.43.05-.61.03-.05.07-.09.11-.14.11.01.03.23,0,.31-.03.08-.11.16-.1.25.18-.01.33-.13.32-.48.07.03.14.06.21.09-.02-.16-.04-.31-.06-.47-.07,0-.13.12-.19,0-.04.07.08.27-.06.18-.02-.01-.12-.18-.13-.22-.03-.23.17-.17.15-.43-.08-.01-.03.13-.08.19-.08.08-.14.18-.23.2v.37s-.07-.03-.11-.04c.02-.11.03-.22.05-.33-.03,0-.07,0-.1,0,0-.06,0-.12,0-.18-.11,0-.31-.07-.36.15-.06.21.19.11.24.22.05,0,.08,0,.13.01.02.08.04.15.06.23-.02.11-.03.22-.05.33-.04-.09-.07-.19-.11-.28-.04.02-.07.03-.11.05,0-.11-.02-.22-.03-.33-.03.09-.07.19-.11.28-.08-.06-.04-.18-.09-.27-.05-.09-.19-.11-.26-.1,0,.06,0,.12,0,.18-.03,0-.07,0-.1.01-.03.18-.03.4-.16.37,0-.09-.02-.19-.03-.28-.04-.03-.09-.06-.13-.09.07-.09.14-.19.21-.29-.09.05-.17.19-.25.27-.1.1-.19.07-.18.3-.08.05-.22-.13-.3-.17-.07-.03-.12,0-.19,0,.08-.13.15-.2.27-.2,0-.06,0-.12,0-.18.21-.08.18-.39-.03-.38-.04,0-.04.19-.08.23-.05.02-.11.03-.16.05-.01.16-.06.3-.05.47-.06-.01-.11-.04-.16-.09,0,.09,0,.19,0,.28-.11.01-.16.1-.16.29-.07-.03-.14-.06-.21-.09.01-.08.03-.16.04-.23-.05-.26-.1-.53-.16-.79-.1-.02-.16-.14-.24,0-.02-.12-.04-.25-.05-.37-.08.14-.09.15-.02.33.06.15.13.37.21.46.05.06.07-.09.11,0-.02.08-.04.16-.05.23-.05-.06-.09-.12-.14-.18-.13-.02-.17.18-.29.19,0-.04,0-.09,0-.13-.05-.02-.11-.04-.16-.05.02.09.04.19.05.28-.05,0-.11,0-.16,0,0,.12,0,.25,0,.37-.09.03-.02-.23-.09-.18-.12.09-.27.06-.37.28-.08-.17-.15-.15-.26-.19-.09-.03-.24-.08-.32-.08-.27,0-.49-.04-.76-.07-.17-.02-.4.1-.5-.22-.06-.2.11-.07.1-.24-.17-.08-.24-.32-.43-.27.07.03.14.06.21.09-.02.13-.04.25-.05.38-.08,0-.11-.06-.19-.09-.05-.02-.1.03-.16,0-.07-.04-.1-.21-.19-.17,0,.06,0,.12,0,.19-.06-.03-.12-.06-.19-.09-.03.05-.09.1-.05.18.1.18.24-.17.24.19-.2,0-.41,0-.61,0-.1-.12-.09-.27-.08-.46-.02.06-.03.13-.06.19-.15.14-.29-.19-.39-.24-.1-.04-.1.15-.2.06.02-.12.04-.25.05-.37-.05.08-.1.16-.16.24.02.08.03.16.05.23-.04,0-.09,0-.13,0-.13-.01-.17-.07-.29-.16-.04-.03-.14-.04-.18-.1,0,.23-.04.37-.16.47,0-.12,0-.25,0-.38-.11.07-.21.13-.32.19.04-.06.07-.13.11-.19-.03-.12-.05-.25-.08-.37,0,.09.02.19.03.28-.14,0-.29,0-.43,0,0,.09,0,.19,0,.28-.05,0-.11,0-.16,0,.05-.14,0-.22,0-.37.04.03.09.05.13.08.04-.08.09-.15.13-.23-.04-.08-.07-.15-.11-.23.07.03.14.06.21.09-.04-.03-.07-.06-.11-.09,0-.09,0-.19,0-.28-.15,0-.27.22-.4,0,0,.19.02.37.03.56-.13.03-.18-.08-.27-.23-.06-.1-.11-.18-.16,0-.05.21.07.03.11.09-.07.1-.04.21-.08.34-.05.14-.11.13,0,.28.1-.13.2-.25.29-.38,0,.19.03.29-.1.29,0,.09,0,.19,0,.28-.09,0-.18,0-.27,0,0-.06,0-.12,0-.18-.12-.04-.09.13-.2.18-.06.03-.17.12-.26.08-.09-.04-.21-.27-.34-.15.03-.1.07-.19.1-.29-.06.06-.13.13-.19.19-.06-.03-.12-.06-.18-.09.02.06.04.12.05.19-.07,0-.14,0-.21,0,.02-.13.03-.25.05-.38-.03.03-.05.06-.08.09,0-.06,0-.12,0-.18-.08,0-.16,0-.24,0,0-.06,0-.12,0-.18-.04-.03-.09-.06-.13-.09-.13.23-.29.19-.45.29.03.09.06.19.08.28.04-.03.09-.06.13-.1,0,.09,0,.19,0,.28-.04.03-.09.06-.13.09-.04-.06-.07-.12-.11-.17-.1.06-.2.12-.29.19,0-.06.02-.13.03-.19-.03,0-.05,0-.08,0,0,.06-.02.13-.03.19-.25.03-.48-.16-.7.1-.17-.25-.33-.13-.55-.16-.05,0-.11.09-.17,0,0,.06,0,.13,0,.19-.08-.06-.16-.12-.24-.18-.15.29-.21.15-.38.02-.1-.08-.16-.15-.27-.19-.05-.02,0,.3-.13.17,0-.12,0-.25,0-.37-.08.09-.12.07-.16-.09.11,0,.17.04.16-.19.04,0,.07,0,.1,0,.02-.18.07-.24-.03-.37-.15.06-.3.13-.45.19-.02-.23.18-.44.21-.66-.14-.01-.17-.15-.16-.37-.06-.02-.09.03-.13.09-.08.14-.06.3-.19.29.01-.09.02-.18.03-.28-.07-.11,0-.23.01-.32,0-.09-.06-.09-.07-.14-.04-.16-.02-.21-.13-.19,0-.15,0-.31,0-.47.03.03.05.06.08.09,0-.09-.02-.19-.03-.28.13-.07.27-.11.4-.1.04,0,.08.06.1.07.2.05.24,0,.45-.07.04-.01.16.13.25.07.03-.02.05-.15.12-.17.08-.03.26.09.36.08.09,0,.18-.09.27-.1,0,.06,0,.13,0,.19.09-.09.18-.18.27-.27.12.02.23.05.35.07,0,.06,0,.12,0,.19.1-.08.15,0,.24,0,.1,0,.16-.15.27-.1.04.09.07.19.11.28,0-.12-.02-.25-.03-.37.07-.06.18.06.23.06.17,0,.3-.16.46-.03.06.05.14.29.18.31.19.08.21-.17.32-.26.07-.05.06.06.11.06.22-.02.43-.23.64-.27.22-.03.44.24.64.26.16.02.21-.17.35,0,0-.06,0-.12,0-.19.07,0,.17-.01.24,0,.05,0,.08.07.11.07.09,0,.18-.2.26-.16.11.05.12.23.25.17,0,.05,0,.09,0,.13.03-.01.05-.02.08-.04.02.06.04.12.05.18.03-.09.05-.19.08-.28-.05-.03-.11-.06-.16-.09.07-.02.14-.04.21-.06.05.02.11.03.16.05,0,.06,0,.12,0,.18.05,0,.11,0,.16,0,0-.23.05-.2.16-.19.04.06.07.12.11.19-.02-.09-.04-.19-.05-.28.05-.06.11-.13.16-.19.06.12.13.25.19.37,0-.09-.02-.19-.03-.28.06-.04.08.06.13.06.05,0,.06-.07.11-.07.08,0,.16,0,.24,0,0,.06,0,.12,0,.19.02,0,.04,0,.05,0,0-.06,0-.12,0-.19.14-.08.24-.11.4-.1.42.05.82-.12,1.23.15.15-.14.29-.21.46-.19-.04-.09-.07-.19-.11-.28.07.03.14.06.21.09.03.09.06.19.08.28.03-.19.05-.38.08-.56.16.14.05.31.06.56.13,0,.28,0,.4-.01.05,0,.08.08.11.07.13-.03.21-.24.33-.09.05-.09.11-.18.16-.27.05.07.08.16.14.23.07.08.12.02.11.23.07.03.14.06.21.09,0-.09,0-.19,0-.28.03,0,.07,0,.1,0,0-.09,0-.19,0-.28.05.03.11.06.16.09.01-.22.16-.46.16-.1-.04.02-.07.03-.11.05.04.02.07.03.11.05,0,.09,0,.19,0,.28.11.06.22-.22.21-.38.04.06.09.12.13.18.15-.14.2-.25.19-.56.05.03.11.06.16.1,0,.06,0,.12,0,.17.06.06.12.13.19.19.03-.09.05-.19.08-.28-.03,0-.07,0-.1,0-.03-.09-.06-.18-.09-.27-.12,0-.23,0-.35,0,.05.27.05.37-.08.56,0-.19-.02-.37-.03-.56-.06.13-.12.25-.19.38,0-.06.02-.12.03-.19-.14,0-.24-.14-.38,0,.01-.29,0-.47-.14-.65-.06.06-.12.13-.19.19.05.03.11.06.16.09,0,.22,0,.44,0,.66-.13-.05-.27-.04-.4-.09-.04-.02-.05-.1-.09-.13-.09-.08-.12-.03-.11-.23-.05.03-.11.07-.16.1,0,.21.01.38-.11.47,0-.09,0-.19,0-.28-.03,0-.07,0-.1,0,0-.06,0-.12,0-.18-.03,0-.07,0-.1,0,0-.06,0-.12,0-.18-.05,0-.1,0-.16,0,0,.06,0,.12,0,.18-.06.03-.12.06-.19.1-.09-.12-.11-.38-.24-.36,0-.12.02-.25.03-.37-.06.03-.12.07-.19.1-.03.31.18.47.16.75-.13-.12-.24.03-.38,0,.04-.05.07-.09.11-.14-.05-.08-.09-.15-.14-.23-.04.02-.09.03-.13.05.09-.21.15-.41.02-.61,0,.16-.02.31-.03.47-.07,0-.14,0-.21,0-.02.12-.03.25-.05.38-.17-.16-.07-.22,0-.42-.14-.44.07-.19.14-.05.04,0,.04-.1.03-.14-.07-.19-.21-.14-.32-.14.02.09.04.19.05.28-.05.05-.11.1-.16.14v.09c.04.08.07.15.11.23-.11,0-.21,0-.32,0-.04-.19.12-.38.21-.38,0-.24-.09-.3-.22-.28,0,.09,0,.19,0,.28-.14-.07-.28.02-.43,0-.06.22-.12.44-.19.66-.06-.09-.13-.19-.19-.28.05-.03.13.13.16.04.03-.09.05-.21.05-.32-.15.04-.25.19-.35.38-.06-.13-.13-.19-.18-.35-.03-.1-.02-.16-.11-.12.02.09.04.19.05.28-.06.03-.13.06-.19.1,0,.06.02.12.03.19-.05,0-.11,0-.16,0,.02-.16.03-.31.05-.47-.07.13-.14.25-.21.38,0-.13.02-.25.03-.38-.02.02-.04.05-.05.07-.03-.09-.05-.17-.08-.26.07,0,.14,0,.21,0-.08-.09-.16-.18-.24-.28-.07.14-.19.15-.19.37-.03,0-.07,0-.1.01,0,.09,0,.19,0,.28-.04-.02-.07-.03-.11-.05.02-.14.03-.28.05-.42-.08.16-.16.31-.24.47-.08,0-.18.04-.26,0-.05-.02-.08-.14-.11-.15-.1-.03-.08-.04-.18-.11-.08-.05-.34-.05-.39-.24.03-.12.07-.25.1-.37-.06-.09-.09-.2-.16-.28-.07-.08-.12-.03-.11-.23-.04,0-.07,0-.11,0,0-.05,0-.09,0-.13.09-.19.15-.27.3-.24.1.02.13.1.21-.1ZM34.13,21.96c0,.06,0,.12,0,.19.04-.02.09-.03.13-.05-.02-.08-.04-.16-.05-.23.07,0,.14,0,.21,0,.02.12.04.25.06.37-.07,0-.14,0-.21,0,0,.09,0,.19,0,.28-.08,0-.16,0-.24,0,0-.06-.02-.13-.03-.19-.02.04-.03.09-.05.13-.05.02-.11.04-.16.06.05-.14.1-.28.16-.42-.04-.08-.07-.16-.11-.23.11,0,.16-.09.16-.28.05.12.09.25.14.37ZM34.48,22.47s-.02.03-.03.05c-.03-.05-.05-.09-.08-.14,0-.02.02-.03.03-.05.03.05.05.09.08.14ZM34.8,22.46c0-.06.05-.06.05,0,0,.06-.05.06-.05,0ZM36.68,22.44c0-.06.05-.06.05,0,0,.06-.05.06-.05,0ZM37.16,22.48s-.07,0-.11,0v-.09s.07,0,.11,0v.09ZM38.13,22.42c0-.06.05-.06.05,0,0,.06-.05.06-.05,0ZM33.3,22.39c0-.06.05-.06.05,0,0,.06-.05.06-.05,0ZM35.61,22.36c0-.06.05-.06.05,0,0,.06-.05.06-.05,0ZM30.83,22.38s-.07,0-.11,0c0-.12-.03-.18-.05-.28.05,0,.11,0,.16,0,0,.09,0,.19,0,.28ZM32.28,21.98c0,.06,0,.12,0,.18.03,0,.07,0,.1,0,0,.06,0,.12,0,.19-.04,0-.07,0-.11,0-.02-.12-.04-.25-.05-.37.02,0,.04,0,.05,0h0ZM39.79,22.31c.08-.15.17-.23.16.05-.03-.03-.05-.06-.08-.09-.03.01-.05.03-.08.04ZM34.75,22.04c.01.09-.03.31-.11.28,0-.09,0-.19,0-.28.04,0,.07,0,.11,0ZM30.08,22.3s-.07,0-.11,0c0-.03,0-.06,0-.09.04,0,.07,0,.11,0v.09ZM37.75,22.11c.05-.1.18.11.16.16-.05.1-.18-.11-.16-.16ZM31.05,22.1c0,.06,0,.13,0,.19-.04,0-.07,0-.11,0,.03-.06.05-.13.08-.19h.03ZM31.21,22.28s-.04,0-.05,0c0-.09,0-.19,0-.28.02,0,.04,0,.05,0,0,.09,0,.19,0,.28ZM39.68,22.26s-.07,0-.11,0c0-.09,0-.19,0-.28.04,0,.07,0,.11,0,0,.09,0,.19,0,.28ZM40.21,21.96c.03-.05-.02-.26.11-.17,0,.23-.18.51-.32.47,0-.12,0-.25,0-.37.07,0,.14.19.21.07ZM33.14,22.25c-.06.02-.11-.02-.16-.04-.05-.03-.11-.02-.11-.14.07,0,.14,0,.21,0,.02-.06.04-.13.05-.19,0,.12,0,.25,0,.38ZM29.44,21.85c-.04.13-.06.23-.05.38-.05,0-.11,0-.16,0,0-.12,0-.25,0-.38.07,0,.14,0,.21,0ZM30.3,22.21c-.04-.06-.07-.12-.11-.19.04,0,.07,0,.11,0,0,.06,0,.12,0,.19ZM31.26,22.14c0-.06.05-.06.05,0,0,.06-.05.06-.05,0ZM37.96,22.09c0-.32.2-.17.32-.19-.05.09-.09.19-.14.28-.06-.03-.12-.06-.18-.09ZM36.3,21.74c-.04.13-.06.23-.05.38-.02,0-.04,0-.05,0,0-.12,0-.25,0-.38.04,0,.07,0,.11,0ZM29.82,22.07c0-.06.05-.06.05,0,0,.06-.05.06-.05,0ZM30.51,22.06c0-.06.05-.06.05,0,0,.06-.05.06-.05,0ZM27.03,22.08c-.09-.06-.18-.12-.27-.18.09-.03.18-.07.27-.1,0,.09,0,.19,0,.28ZM41.15,20.84s0,.14-.06.19c-.03.03-.07.08-.11.09-.11.01-.14-.16-.23.06.03.01.07.03.11.05,0,.19,0,.37,0,.56-.04.02-.07.03-.11.05.07.14.04.27.16.23,0-.07-.06-.11-.03-.18.08-.17.1-.09.15-.34.04-.23.28-.45.12-.7ZM27.89,22.06c-.06-.04-.09-.11-.16-.09,0-.12,0-.25,0-.37.04,0,.07,0,.11,0,.02.16.04.31.06.47ZM28.15,22.05s-.04,0-.05,0c0-.13-.05-.24-.05-.37,0,0,0,0,0,0h0s.07,0,.11,0c0,.12,0,.25,0,.38ZM37.43,21.96c0-.06.05-.06.05,0,0,.06-.05.06-.05,0ZM37.9,21.72c.06.08-.06.31-.09.28-.06-.08.06-.31.09-.28ZM40.7,21.97c0-.19-.05-.29-.16-.28.05.09.11.19.16.28ZM29.6,21.94s-.07,0-.11,0c0-.03,0-.06,0-.09.04,0,.07,0,.11,0,0,.03,0,.06,0,.09ZM30.3,21.88c0-.06.05-.06.05,0,0,.06-.05.06-.05,0ZM30.78,21.91c-.07,0-.14,0-.21,0v-.09c.07,0,.14,0,.21,0v.09ZM25.74,21.91c-.09-.1-.14-.07-.23,0-.08-.08-.17-.15-.25-.23.14-.23.27.02.43-.15.02.12.04.25.05.37ZM26.06,21.91s-.07,0-.11,0c0-.03,0-.06,0-.09.04,0,.07,0,.11,0,0,.03,0,.06,0,.09ZM32.01,21.61c-.11,0-.17.1-.16.28.11,0,.17-.1.16-.28ZM32.87,21.22c.07,0,.08.15.11.23.04.15.07.25.06.42,0,0,0,0,0,0-.14.03-.09-.07-.11-.23-.02-.16-.07-.25-.05-.42ZM24.72,21.56c-.07.09-.14.19-.21.28.04-.13.07-.25.11-.38.04.03.07.06.11.09ZM29.87,21.79c0-.06.05-.06.05,0,0,.06-.05.06-.05,0ZM37.53,21.82s-.07,0-.11,0c0-.06,0-.12,0-.19.04,0,.07,0,.11,0,0,.06,0,.12,0,.19ZM26.33,21.67s-.07.1-.11.14c0-.09,0-.19,0-.28,0,0,.02,0,.03,0,.03.05.05.09.08.14ZM31.58,21.81s-.04,0-.05,0c0-.06,0-.12,0-.19.02,0,.04,0,.05,0,0,.06,0,.13,0,.19ZM42.04,21.72c0-.06.05-.06.05,0,0,.06-.05.06-.05,0ZM24.45,21.75c-.05-.09-.11-.19-.16-.28.05,0,.11,0,.16,0,0,.09,0,.19,0,.28ZM35.71,21.7c0-.06-.05-.06-.05,0,0,.06.05.06.05,0ZM30.14,21.69c0-.06.05-.06.05,0,0,.06-.05.06-.05,0ZM30.51,21.68c0-.06.05-.06.05,0,0,.06-.05.06-.05,0ZM31.15,21.72s-.04,0-.05,0c0-.06,0-.13,0-.19.02,0,.04,0,.05,0,0,.06,0,.12,0,.19ZM26.76,21.66c0-.06.05-.06.05,0,0,.06-.05.06-.05,0ZM26.97,21.66c0-.06.05-.06.05,0,0,.06-.05.06-.05,0ZM33.15,21.41s.15.19.09.28c-.02.04-.15-.19-.09-.28ZM28.47,21.49c0,.06,0,.12,0,.19.04,0,.07,0,.11,0,0-.06,0-.12,0-.19-.04,0-.07,0-.11,0ZM29.01,21.62c0-.06-.05-.06-.05,0,0,.06.05.06.05,0ZM38.5,21.38s.12.03.16.05c0,.06,0,.13,0,.19-.04,0-.07,0-.11,0-.02-.08-.04-.16-.05-.23ZM19.19,21.55s-.02.03-.03.05c-.03-.05-.05-.09-.08-.14,0-.02.02-.03.03-.05.03.05.05.09.08.14ZM29.81,21.18c.02.08.04.16.05.23-.03.05-.05.09-.08.14-.03-.08-.05-.16-.08-.23.04-.05.07-.09.11-.14h0ZM26.65,21.52s-.07-.09-.11-.14c.03-.05.05-.09.08-.14,0,0,.02,0,.03,0,0,.09,0,.19,0,.28ZM20.05,21.45c0-.06.05-.06.05,0s-.05.06-.05,0ZM25.36,20.94c-.05.07-.04.11,0,.18.08.13.17.11.16.33-.09-.03-.18-.06-.27-.09,0-.16,0-.31,0-.47.04.02.07.03.11.05ZM41.28,20.84c.04.16.07.31.11.47.11.05.21.09.32.14-.14-.32-.16-.64-.43-.61ZM31.26,21.44s-.07,0-.11,0c0,0,0,0,0,0v-.09s.07,0,.11,0c0,.03,0,.06,0,.09ZM26.6,20.96c-.05,0-.11,0-.16,0,0,.07.05.07.04.14,0,.07-.06.13-.04.23-.08.04-.16.07-.24.1-.05-.11-.09-.22-.14-.33-.01-.18.03-.12.11-.14,0,.03.02.06.03.09.06.03.12.06.19.09.02-.06.04-.12.06-.19h0c0-.08.05-.11.05-.19.02,0,.04,0,.05,0,.02.06.04.12.05.19ZM34.37,21.3v.09s.07,0,.11,0v-.09s-.07,0-.11,0ZM27.99,21.12c0,.06,0,.12,0,.19.05.02.18-.06.16-.19-.05,0-.11,0-.16,0ZM28.71,19.04c-.04.06-.04.23-.09.27-.05.04-.12-.19-.1.06h0c.02.25.08.13.15.26.04.06-.02.25.06.31-.05.05-.11.1-.16.15-.02.17-.03.34-.05.52.11.2.19.43.37.41,0,.05-.06.14-.05.19.07-.03.14-.07.21-.1,0,.06,0,.13,0,.19.09,0,.18,0,.27,0,0-.03,0-.06,0-.09-.09-.03-.18-.06-.27-.09,0-.06,0-.12,0-.19-.07-.02-.1.06-.16.1.01-.16,0-.27-.08-.37-.04.02-.09.03-.13.05.09-.05.18-.1.27-.15-.04-.12-.07-.25-.11-.37.09,0,.05.21.14.27.05.03.15,0,.21,0,.06,0,.09.02.08-.1-.17.02-.08-.32-.16-.51.05-.02.11-.03.16-.05-.02-.09-.04-.18-.06-.28-.06-.03-.12-.06-.19-.09-.07.11-.14.19-.13.37-.04-.02-.07-.03-.11-.05.01-.18.11-.24.11-.42-.12.03-.11-.15-.19-.28ZM37.56,20.97c-.05.09-.09.15-.08.28.05,0,.11,0,.16,0,0-.14-.03-.2-.08-.28ZM28.2,20.93c0,.09,0,.19,0,.28.04,0,.07,0,.11,0,0-.09,0-.19,0-.28-.04,0-.07,0-.11,0ZM34.53,20.92c.04.09.09.18.13.28.04-.03.09-.06.13-.09-.04-.09-.09-.18-.13-.28-.04.03-.09.06-.13.09ZM36,21.18s-.02-.06-.03-.09c.02,0,.04,0,.05,0,0,.03-.02.06-.03.09ZM37.69,20.97c0,.06,0,.12,0,.19.1.01.17,0,.21-.19-.07,0-.14,0-.21,0ZM25.58,20.6c0,.15.02.33.06.47.05.02.11.03.16.05-.07-.17-.14-.34-.22-.51ZM19.44,20.93s.05.09.08.14v.05c-.05,0-.11,0-.16,0,.03-.06.05-.13.08-.19,0,0,0,0,0,0ZM29.28,20.91c0,.06,0,.12,0,.19.04,0,.07,0,.11,0-.03-.06-.05-.12-.08-.19,0,0-.02,0-.03,0ZM36.35,21.08c.05,0,.11,0,.16,0v-.05s-.05-.09-.08-.14c-.03.06-.05.13-.08.19ZM17.91,21.05s-.07,0-.11,0c0-.03,0-.06,0-.09.04,0,.07,0,.11,0,0,.03,0,.06,0,.09ZM27.02,20.95s0,.06,0,.09c-.07,0-.14,0-.21,0,0-.06,0-.13,0-.19.07.03.14.06.21.09ZM18.34,21s-.05.03-.08.05c0,0,0,0,0,0,0,0,0,0,0,0,.03-.01.05-.03.08-.04h0ZM22.74,20.99c0-.06-.05-.06-.05,0,0,.06.05.06.05,0ZM40.48,20.89s.07.09.11.14c0-.09,0-.19,0-.28h-.03s-.05.09-.08.14ZM33.56,20.98c0-.06-.05-.06-.05,0,0,.06.05.06.05,0ZM28.1,20.98c0-.06-.05-.06-.05,0,0,.06.05.06.05,0ZM28.53,20.83c0,.06,0,.12,0,.19.02,0,.04,0,.05,0,0-.06,0-.13,0-.19-.02,0-.04,0-.05,0ZM33.46,19.9c-.04.14-.07.28-.11.42.03.08.08.21.11.28.04.12,0,.14.03.24.03-.13.05-.25.08-.38.07,0,.14,0,.21,0,.03.25-.12.11-.1.33,0,.08.11.05.13.14.03-.19.05-.38.08-.56.09-.05.12.13.19.17.1.06.16-.02.24-.08,0,.21.07.36,0,.56.05,0,.11,0,.16,0-.07-.31-.11-.6-.11-.94-.14,0-.17.16-.16.38-.14-.09-.33-.44-.48-.37,0,.09-.02.19-.03.28-.1-.09-.05-.23-.09-.37-.02-.06-.12-.02-.15-.1ZM20.43,20.95c0-.06.05-.06.05,0,0,.06-.05.06-.05,0ZM16.79,20.98s-.07,0-.11,0c.03-.06.05-.13.08-.19,0,0,0,0,0,0,0,0,.02,0,.03,0,0,.06,0,.12,0,.19ZM30.78,20.69c0,.19.05.28.16.28,0-.19-.05-.28-.16-.28ZM32.17,20.91c0-.06-.05-.06-.05,0,0,.06.05.06.05,0ZM27.45,20.77c.05-.1.18.11.16.15-.05.1-.18-.11-.16-.15ZM16.04,20.86c0-.06.05-.06.05,0,0,.06-.05.06-.05,0ZM20.48,20.8c-.07-.01-.1.06-.16.1,0-.06,0-.12,0-.19.05,0,.11,0,.16,0,0,.03,0,.06,0,.09ZM12.87,20.89s-.04,0-.05,0c0-.06,0-.13,0-.19.02,0,.04,0,.05,0,0,.06,0,.13,0,.19ZM40.42,20.19c-.13-.02-.11.09-.11.28.02,0,.04,0,.05,0,.02.12.04.25.05.37,0-.22,0-.44,0-.66ZM40.26,20.8c0-.06-.05-.06-.05,0,0,.06.05.06.05,0ZM17.7,20.78c-.02.07-.03.11-.05,0,.02,0,.04,0,.05,0ZM33.13,20.8c0-.06-.05-.06-.05,0,0,.06.05.06.05,0ZM27.67,20.8c0-.06.05-.06.05,0s-.05.06-.05,0ZM42.46,20.78c0-.06-.05-.06-.05,0,0,.06.05.06.05,0ZM29.38,20.63c0,.06,0,.13,0,.19.04-.06.07-.13.11-.19-.04,0-.07,0-.11,0ZM36.08,20.76c0-.06-.05-.06-.05,0,0,.06.05.06.05,0ZM36.24,20.47c-.05-.05-.11-.09-.16-.14.04.03.07.06.11.09,0,.09,0,.19,0,.28.04.03.09.06.13.09.08-.08.16-.15.24-.23-.04-.03-.07-.06-.11-.09,0,.02,0,.05,0,.07-.04.02-.07.04-.11.06-.04-.12-.07-.25-.11-.37,0,.08,0,.16,0,.23ZM36.99,20.75c0-.06-.05-.06-.05,0,0,.06.05.06.05,0ZM25.95,20.78s-.07,0-.11,0c.04-.06.07-.13.11-.19,0,.06,0,.13,0,.19ZM21.61,20.73c0-.06-.05-.06-.05,0,0,.06.05.06.05,0ZM33.19,20.56c0,.06,0,.12,0,.19.04,0,.07,0,.11,0,0-.06,0-.12,0-.19-.04,0-.07,0-.11,0ZM14.48,20.71c0-.06.05-.06.05,0,0,.06-.05.06-.05,0ZM15.02,20.74c-.05,0-.11,0-.16,0,0-.03,0-.06,0-.09.05,0,.11,0,.16,0,0,.03,0,.06,0,.09ZM28.36,19.89c-.17-.02-.22.25-.37.29,0-.06,0-.12,0-.18-.1-.03-.2-.17-.26.05-.05.2.1.1.15.14,0,0,0,0,0,0,.01.03-.01.08,0,.11.06.15.12.23.1.43.16,0,.27-.25.43-.1.02-.19.03-.38.05-.56-.05.03-.11.07-.16.1.02-.09.04-.19.05-.28ZM23.43,20.56c.01-.29-.21-.24-.27-.04.05.03.03.22.08.22.16,0,0-.38.19-.18ZM19.31,20.69c0-.06.05-.06.05,0,0,.06-.05.06-.05,0ZM15.61,20.73c0-.06,0-.12,0-.19.04,0,.07,0,.11,0-.04.06-.07.13-.11.19ZM21.18,20.65c0-.06.05-.06.05,0,0,.06-.05.06-.05,0ZM14.13,20.67s-.09-.06-.13-.09h0c0-.06,0-.12,0-.19.07,0,.14,0,.21,0-.03.09-.05.19-.08.28ZM22.63,20.57s-.07.07-.11.1c.07,0,.13-.11.19,0,.09-.1.05-.13.04-.24-.03-.17.05-.25.04-.42-.05.19-.11.38-.16.56ZM40.1,20.57c.07.03.14.06.21.09,0-.06,0-.12,0-.19-.03,0-.05,0-.08,0-.02-.06-.04-.13-.06-.19-.03.09-.05.19-.08.28ZM14.7,20.61c0-.06.05-.06.05,0,0,.06-.05.06-.05,0ZM15.45,20.36c.01.09-.03.31-.11.28,0-.09,0-.19,0-.28.04,0,.07,0,.11,0ZM12.87,20.56c0-.06.05-.06.05,0,0,.06-.05.06-.05,0ZM17.48,19.84c.04.09.07.19.11.28-.07,0-.14,0-.21,0,0,.09,0,.19,0,.28.13.06.25.12.38.18-.01-.11.04-.17.02-.28,0,0,0,0,0,0-.02-.18-.09-.36-.08-.56-.07.03-.14.07-.21.1ZM21.82,20.45c.05.05.11.09.16.14,0-.03,0-.06,0-.09h0s-.09-.06-.13-.09c0,.02-.02.03-.03.05ZM18.66,19.16c-.18.07-.17.41-.37.38.04.12.07.25.11.37-.12-.07-.22-.01-.34.02-.03,0-.03.08-.07.07-.1,0-.19-.21-.18.11.07,0,.14,0,.21,0,0,.16,0,.31,0,.47.07-.07.09-.08.16,0,0-.06,0-.12,0-.18.03,0,.07,0,.1-.01,0-.09,0-.18,0-.28.03,0,.07,0,.1-.01,0-.06,0-.12,0-.18.04,0,.07,0,.11,0-.02-.05-.03-.09-.05-.14.03-.05.05-.09.08-.14.04.03.09.06.13.09-.11-.25-.11-.31,0-.56h0ZM39.33,20.3s-.07-.01-.08,0c-.04.1.04.22.08.28.04-.06.09-.13.13-.19h0c-.06.03-.09-.04-.13-.09ZM40.53,20.38c0,.06,0,.13,0,.19.04,0,.07,0,.11,0,0-.06,0-.12,0-.19-.04,0-.07,0-.11,0ZM28.2,20.55c-.05,0-.11,0-.16,0,0-.03,0-.06,0-.09.05,0,.11,0,.16,0,0,.03,0,.06,0,.09ZM19.63,20.08c.01.26-.06.44-.21.47,0-.12,0-.25,0-.37.07-.03.14-.07.21-.1ZM41.87,20.51c0-.06.05-.06.05,0,0,.06-.05.06-.05,0ZM17.11,20.41s0,.06,0,.09c.05-.05.11-.1.16-.14,0-.02-.02-.03-.03-.05-.04.03-.09.07-.13.1ZM12.93,20.42c-.06,0-.09.02-.13.09-.08-.09-.16-.18-.24-.27.12,0,.25,0,.38,0,0,.06,0,.12,0,.19ZM14.54,20.42c0-.06.05-.06.05,0,0,.06-.05.06-.05,0ZM41.07,20c0,.25,0,.45.16.47.04-.13.07-.25.11-.38-.09-.03-.18-.06-.27-.09ZM41.33,20.42c0-.06-.05-.06-.05,0,0,.06.05.06.05,0ZM23.49,20.37s0,.06,0,.09c.04,0,.07,0,.11,0,0-.03,0-.06,0-.09-.04,0-.07,0-.11,0ZM15.23,20.46s-.07,0-.11,0c0-.06,0-.12,0-.19,0,0,.02,0,.03,0,.03.06.05.12.08.19ZM29.33,20.35s0,.06,0,.09c.07,0,.14,0,.21,0v-.09c-.07,0-.14,0-.21,0ZM29.65,20.25c0,.06,0,.12,0,.19.02,0,.04,0,.05,0,0-.06,0-.13,0-.19-.02,0-.04,0-.05,0ZM31.9,20.11c.02.33.17.29.32.28,0-.09,0-.19,0-.28-.05-.02-.11-.03-.16-.05-.05.02-.11.03-.16.05ZM22.41,20.3s0,.06,0,.09c.04,0,.07,0,.11,0,0-.03,0-.06,0-.09-.04,0-.07,0-.11,0ZM39.51,20.2l.11.19c0-.06,0-.12,0-.19-.04,0-.07,0-.11,0ZM27.35,20.38s-.07,0-.11,0c0-.06,0-.13,0-.19.04,0,.07,0,.11,0,0,.06,0,.13,0,.19ZM.97,20.38c0-.06,0-.12,0-.19.04,0,.07,0,.11,0-.04.06-.07.13-.11.19ZM11.53,18.95c.09.22,0,.25-.04.43-.03.09.03.16-.01.22-.04.06-.13.03-.15.15.03.11.07.22.11.33.03-.03.05-.06.08-.09.1.12.04.19.03.37.09-.1.18-.19.27-.29,0-.09,0-.19,0-.28-.04-.03-.07-.06-.11-.09.05-.05.11-.1.16-.14-.09-.08-.18-.15-.27-.23.09-.05.18-.1.27-.15-.05-.01-.11-.03-.16-.04.02-.06.04-.13.05-.19-.07,0-.14,0-.21,0ZM24.93,20.24c0,.08.02.09.06.1-.02-.03-.04-.07-.06-.1ZM35.6,19.96s.05.06.08.09c.01.09.02.19.03.28.02-.09.04-.19.06-.28.03,0,.07,0,.11,0,0-.06,0-.13,0-.19-.09.03-.18.06-.27.1ZM36.67,20.28c0-.06-.05-.06-.05,0,0,.06.05.06.05,0ZM31.15,19.94c0,.12,0,.25,0,.37.04,0,.07,0,.11,0-.02-.12-.04-.25-.05-.37-.02,0-.04,0-.05,0ZM37.96,19.09c0,.21.08.29.04.52-.02.16-.23.49-.2.7.13-.2.21-.13.37-.1,0-.14-.06-.08-.11-.14-.07-.1-.05-.27-.05-.42.04.09.07.19.11.28.02-.17.03-.34.05-.51-.07-.11-.14-.22-.21-.33ZM9.87,20.3c-.05,0-.11,0-.16,0,0-.03,0-.06,0-.09.05,0,.11,0,.16,0,0,.03,0,.06,0,.09ZM18.5,20.01c0,.09,0,.19,0,.28.08.02.11-.05.16-.14-.05-.1-.08-.16-.16-.14ZM18.44,20.24c0-.06-.05-.06-.05,0,0,.06.05.06.05,0ZM10.4,20.24c0-.06-.05-.06-.05,0,0,.06.05.06.05,0ZM40.69,20.14s.05.09.08.14c0-.02.02-.03.03-.05-.03-.05-.05-.09-.08-.14,0,.02-.02.03-.03.05ZM10.78,19.81c.06.19-.02.37.11.47,0-.11,0-.22,0-.33-.04-.04-.07-.09-.11-.13ZM11.15,19.61c-.05.05-.11.1-.16.15.02.14.04.28.05.42.07.03.14.06.21.09-.05-.11-.11-.22-.16-.33-.01-.22.08-.1.16-.15,0-.25.09-.41.16-.61,0,0,0,0,0,0-.09-.05-.18-.09-.27-.14,0,.19,0,.37,0,.56ZM29.01,20.26c-.06,0-.09-.16-.1-.24-.01-.08,0-.15,0-.23.05,0,.11,0,.16,0-.02.16-.03.31-.05.47ZM25.47,19.58c-.02.09.03.4.06.44.08.1.12-.03.11.21.14.07.27-.38.27-.57-.03.06-.05.13-.08.19-.12-.09-.23-.19-.35-.27ZM16.62,20.19c0-.06-.05-.06-.05,0,0,.06.05.06.05,0ZM25.36,20.05c0,.06,0,.13,0,.19.02,0,.04,0,.05,0,0-.06,0-.13,0-.19-.02,0-.04,0-.05,0ZM30.13,19.86c.02.09.04.19.06.28.07.03.14.06.21.09,0-.34-.09-.4-.27-.37ZM30.5,19.2c0,.09-.03.19-.03.28,0,.1-.03.35-.02.4,0,0,0,0,0,0,.02.18.07.19.05.36.05-.04.11-.06.16-.1-.02-.11-.04-.21-.05-.32.05-.1.11-.19.16-.29-.04,0-.07,0-.11,0-.05-.11-.11-.22-.16-.33ZM8.74,20.04c0,.06,0,.13,0,.19.02,0,.04,0,.05,0,0-.06,0-.13,0-.19-.02,0-.04,0-.05,0ZM9.49,20.21s-.07,0-.11,0c0-.03,0-.06,0-.09.04,0,.07,0,.11,0,0,.03,0,.06,0,.09ZM31.74,20.21s.07,0,.11,0c-.03-.06-.05-.12-.08-.19h-.03c0,.06,0,.13,0,.19ZM38.82,20.02c0,.06,0,.13,0,.19.02,0,.04,0,.05,0,0-.06,0-.13,0-.19-.02,0-.04,0-.05,0ZM39.62,20.01c0-.19-.03-.23-.14-.18-.1.04-.18.18-.18.37.13.02.17.02.16-.23.05.01.11.03.16.04ZM9.6,20.16c0-.06.05-.06.05,0,0,.06-.05.06-.05,0ZM13.78,20.12s0,.08-.03.08c-.02,0-.02-.05-.03-.08.02,0,.04,0,.05,0ZM23.06,19.72c-.03.29.18.22.26.28.08.06.06.12.12.18-.04-.16-.07-.31-.11-.47-.09,0-.18,0-.27,0ZM2.55,19.33c-.1.14-.22.09-.35.1.09.18.16.46.27.6.05.07.05-.01.08-.04,0,.06.02.12.03.18.04-.05.07-.1.11-.15-.02-.19-.04-.37-.06-.56-.03-.05-.05-.09-.08-.14ZM19.89,20.12c0-.06-.05-.06-.05,0,0,.06.05.06.05,0ZM24.82,19.59c-.01.33.13.4.27.56,0-.33-.11-.44-.27-.56ZM3.92,20.1c0-.06.05-.06.05,0,0,.06-.05.06-.05,0ZM30.88,20.08c0-.06-.05-.06-.05,0,0,.06.05.06.05,0ZM21.82,18.9c0,.19-.02.3.11.28-.04.12-.09.24-.13.36-.03-.03-.05-.05-.08-.08-.02.28-.16.35-.27.52.12.22.23.1.38.04-.02-.09-.04-.19-.05-.28.11.02.17-.05.24-.18.04.03.09.05.13.08-.02-.06-.04-.12-.05-.19.07-.05.14-.1.21-.15,0,0,0,0,0,0-.09-.18-.19-.14-.32-.14.01-.21-.07-.2-.16-.27ZM9.92,20.06c0-.06.05-.06.05,0,0,.06-.05.06-.05,0ZM1.77,19.71c0,.06,0,.13,0,.19.05-.03.11-.06.16-.1,0,.06,0,.14.03.19.05.13.05.03.11.03.05,0,.07.1.14.06,0-.09,0-.19,0-.28-.13.14-.2.08-.22-.18-.07.03-.14.06-.21.1ZM1.72,20.04c0-.06-.05-.06-.05,0,0,.06.05.06.05,0ZM34.15,20.03c0-.06-.05-.06-.05,0,0,.06.05.06.05,0ZM16.46,19.68c.02.06.04.26.08.27.08.04.12.02.19.09-.01-.1-.02-.19-.03-.28-.08-.03-.16-.06-.24-.09ZM36.67,19.95v.09s.07,0,.11,0v-.09s-.07,0-.11,0ZM5.47,19.18c0,.13.01.25-.05.33-.05.06-.03-.03-.08-.02-.04,0-.08.1-.13.07.03.16.05.31.08.47,0-.12-.02-.25-.03-.37.13.01.25.03.38.04-.05-.08-.11-.15-.16-.23h0c.07,0,.14,0,.21,0-.07-.09-.14-.19-.22-.28ZM27.61,19.95c0-.06-.05-.06-.05,0,0,.06.05.06.05,0ZM1.99,18.4c-.12.03-.08.25-.11.36-.04.1-.13.01-.15.16.03.1.07.22.11.32-.09-.06-.18-.12-.27-.18.02.09.04.19.05.28-.05,0-.11,0-.16,0,0,.22,0,.44,0,.66.05,0,.11,0,.16,0,0-.09,0-.19,0-.28-.04,0-.07,0-.11,0,0,0,0,0,0,0,0-.05,0-.09,0-.14.05-.05.1-.1.16-.15,0-.06,0-.12,0-.18.04.03.09.06.13.09.09-.13.11-.25.03-.42.09-.17.17-.27.15-.52ZM10.62,19.95c0-.06-.05-.06-.05,0,0,.06.05.06.05,0ZM19.14,19.95s.02.03.03.05c.03-.05.05-.09.08-.14,0-.02-.02-.03-.03-.05-.03.05-.05.09-.08.14ZM34.1,19.57c-.16-.17-.33-.23-.48,0,.04.14.07.28.11.42.02-.06.04-.13.05-.19.09.06.18.12.27.18,0-.13,0-.25,0-.38.04.04.01,0,.06.05.05.05.04-.05,0-.1ZM39.59,18.05c-.09-.06-.09.08-.11.18-.02.12-.03.24-.08.33.05.08.11.15.16.23-.15.02-.25-.11-.27-.37-.02.06-.04.13-.05.19-.07-.03-.14-.06-.21-.09,0,.06,0,.12,0,.19-.09-.03-.18-.06-.26-.1,0-.06,0-.12,0-.18h-.16c-.02.15-.04.31-.06.47-.03,0-.07,0-.1.01,0,.04,0,.07,0,.11.03-.02.07-.05.1-.07.03-.09.1.05.1.09.02.12,0,.22,0,.33-.04.02-.07.03-.11.05.05.06.11.12.16.19-.04.11-.12.13-.1.29.01.09.09.17.13.04.06-.16.09-.36.08-.56.12-.05.21.04.32.09h0s0,0,0,0c0,.06.03.09.05.14-.03.08-.07.16-.1.24.2-.01.3-.22.32-.57.05.03.08.1.13.09.06-.17.12-.35.19-.52-.04-.15-.07-.31-.11-.46.04-.03.07-.06.11-.1-.04-.05-.09-.19-.13-.23ZM23.64,19.89s0,.06,0,.09c.07-.03.14-.07.21-.1,0-.06-.02-.12-.03-.19-.06.06-.12.13-.19.19ZM12.01,19.78c.04.06.07.12.11.19,0-.06,0-.12,0-.19-.04,0-.07,0-.11,0ZM36.89,19.86v.09s.07,0,.11,0v-.09s-.07,0-.11,0ZM13.3,19.75c0,.06,0,.13,0,.19.02,0,.04,0,.05,0,0-.06,0-.12,0-.19-.02,0-.04,0-.05,0ZM17.32,19.89c0-.06-.05-.06-.05,0,0,.06.05.06.05,0ZM17.43,19.89c0-.06-.05-.06-.05,0,0,.06.05.06.05,0ZM31.74,19.65c0,.09,0,.19,0,.28.02,0,.04,0,.05,0,0-.09,0-.19,0-.28-.02,0-.04,0-.05,0ZM38.87,19.83v.09s.07,0,.11,0v-.09s-.07,0-.11,0ZM40.32,19.53c.01-.1-.03-.31-.11-.17-.02.03-.01.25-.08.26-.04-.08-.07-.19-.11-.28-.05.09-.11.22-.13.34-.01.07.01.08.02.14,0-.07.02-.13.03-.19.04.09.07.19.11.28.11.02.17-.05.24-.19.06.03.12.06.18.09.02-.09.04-.19.05-.28-.07,0-.14,0-.21,0ZM27.07,19.87c0-.06-.05-.06-.05,0,0,.06.05.06.05,0ZM10.4,19.63h0c.01.12-.03.18-.05.28.05,0,.11,0,.16,0,.01-.09-.04-.31-.11-.28ZM40.64,19.86c0-.06-.05-.06-.05,0,0,.06.05.06.05,0ZM41.39,19.53c.07.43.26.55.27,0-.09,0-.18,0-.27,0ZM19.94,19.5c-.3-.02-.18.37.06.37-.02-.12-.04-.25-.06-.37ZM12.36,19.66s-.05-.02-.08-.03c.07.12.11.24.22.23-.06-.13,0-.16,0-.28-.04.03-.09.05-.13.08ZM12.6,19.77s0,.06,0,.09c.05,0,.11,0,.16,0,0-.03,0-.06,0-.09-.05,0-.11,0-.16,0ZM8.37,19.48c0,.09,0,.19,0,.28-.04-.02-.07-.03-.11-.05.05.05.11.09.16.14,0-.12,0-.25,0-.38-.02,0-.04,0-.05,0ZM36.78,19.81c0-.06-.05-.06-.05,0,0,.06.05.06.05,0ZM8.96,19.38c0-.38-.11-.06-.18-.03-.1.03-.07-.09-.14.1-.02.05-.07.24-.05.31.09.03.18.06.27.09-.02-.14-.04-.28-.05-.42.05-.01.11-.04.16-.05ZM26.38,19.65c0,.06,0,.13,0,.19.02,0,.04,0,.05,0,0-.06,0-.12,0-.19-.02,0-.04,0-.05,0ZM22.36,19.64c0,.06,0,.12,0,.19.04,0,.07,0,.11,0-.03-.06-.05-.12-.08-.19,0,0-.02,0-.03,0ZM22.57,19.64c0,.06,0,.13,0,.19.04-.06.07-.13.11-.19-.04,0-.07,0-.11,0ZM1.26,18.87s-.06-.15-.11,0c-.05.16,0,.32-.03.51-.02.13-.11.26-.1.43.05-.01.11-.03.16-.05,0-.23,0-.47,0-.7.09,0,.18,0,.27,0h0c-.04-.19-.1-.1-.19-.19ZM10.24,19.77c0-.06-.05-.06-.05,0,0,.06.05.06.05,0ZM27.29,19.49s0,0,0,0c.06.11.12.21.18.32.04-.09.08-.08.13-.09.02-.16.04-.31.05-.47-.14.16-.18-.05-.32-.09-.02.11-.03.22-.05.33ZM41.01,19.76c0-.06-.05-.06-.05,0,0,.06.05.06.05,0ZM33.4,19.76c0-.06-.05-.06-.05,0,0,.06.05.06.05,0ZM2.77,19.79s.04-.06.05-.08c.03.01.05.02.08.04-.07-.12-.11-.24-.22-.23.03.09.05.18.08.28ZM29.49,19.78c.08-.07.12-.13.19,0,0-.02.02-.03.03-.05-.07-.12-.11-.24-.21-.23,0,.09,0,.19,0,.28ZM36.3,19.58c0,.06,0,.12,0,.19.02,0,.04,0,.05,0,0-.06,0-.13,0-.19-.02,0-.04,0-.05,0ZM17.16,19.71c0-.06-.05-.06-.05,0,0,.06.05.06.05,0ZM30.88,19.71c0-.06-.05-.06-.05,0,0,.06.05.06.05,0ZM17.32,19.71c0-.06-.05-.06-.05,0,0,.06.05.06.05,0ZM38.87,19.55c.04.06.07.12.11.19,0-.06,0-.13,0-.19-.04,0-.07,0-.11,0ZM14.37,19.68c0-.06-.05-.06-.05,0,0,.06.05.06.05,0ZM19.03,19.29c-.07.14-.14.28-.21.43.13.04.09-.12.16-.24.03-.05.07-.04.11-.05.04-.12-.04-.22-.04-.32.01-.2.11-.34-.07-.33.02.17.03.34.05.52ZM42.95,19.67c0-.06.05-.06.05,0,0,.06-.05.06-.05,0ZM28.04,18.96s.07.09.11.14v.42c-.06-.06-.13-.12-.19-.17-.08-.02-.16-.04-.23-.05.07.09.02.26.14.23.09-.02.15-.07.24,0,0,.06,0,.12,0,.18.13.02.11-.09.11-.28.02.09.04.19.05.28.07,0,.14,0,.21,0-.03-.2-.05-.32,0-.51-.03-.05-.05-.09-.08-.14-.02.06-.04.13-.05.19-.03-.09-.06-.19-.08-.28-.07,0-.14,0-.21,0ZM14.91,19.67c0-.06-.05-.06-.05,0,0,.06.05.06.05,0ZM42.46,19.42c-.07.1-.09,0-.16,0,0,.09,0,.19,0,.28.05-.03.11-.06.16-.1,0-.06,0-.12,0-.19ZM24.56,19.5c0,.06,0,.13,0,.19.05.02.18-.07.16-.19-.05,0-.11,0-.16,0ZM35.54,19.5c0,.06,0,.12,0,.19.02,0,.04,0,.05,0,0-.06,0-.13,0-.19-.02,0-.04,0-.05,0ZM20.64,19.54s.05.09.08.14c0-.02.02-.03.03-.05h0s-.05-.09-.08-.14c0,.02-.02.03-.03.05ZM25.52,19.2c-.12,0-.14.1-.16.29-.05,0-.12-.1-.16-.04.05.08.11.15.16.23,0-.06,0-.12,0-.19.11-.01.16-.09.16-.29ZM21.12,19.67c-.02-.14-.04-.28-.05-.42-.05-.02-.11-.03-.16-.05.07.15.14.31.22.46ZM21.29,19.48c.04.06.07.12.11.19,0-.06,0-.12,0-.19-.04,0-.07,0-.11,0ZM25.79,19.24c.09.08.02.21.06.32.02.05.11-.01.12.1.01-.02.02-.03.03-.05-.06-.14-.13-.28-.19-.42,0,.02-.02.03-.03.05ZM17.32,19.56h0s.09.06.13.09c0-.02.02-.03.03-.05-.05-.05-.11-.09-.16-.14,0,.03,0,.06,0,.09ZM17.53,19.56c.14.03.29.06.43.08-.02-.11-.04-.22-.05-.33-.09-.05-.13,0-.17-.17-.02-.08-.03-.25-.1-.24-.04.22-.07.44-.11.66ZM26.75,19.6c0-.06-.05-.06-.05,0,0,.06.05.06.05,0ZM18.33,19.07c-.14.11-.26.22-.27.52.1.12,0-.05.07-.14.06-.09.23-.13.2-.38ZM.81,19.54c-.07.03-.14.06-.21.1,0-.06,0-.12,0-.19.07-.03.14-.07.21-.1,0,.06,0,.13,0,.19ZM39.83,19.59c0-.06-.05-.06-.05,0,0,.06.05.06.05,0ZM10.99,19.57c0-.06-.05-.06-.05,0,0,.06.05.06.05,0ZM7.4,19.51s0,.06,0,.09c.04,0,.07,0,.11,0,0-.03,0-.06,0-.09-.04,0-.07,0-.11,0ZM3.27,19.41c0,.06,0,.12,0,.19.04,0,.07,0,.11,0-.03-.06-.05-.12-.08-.19,0,0-.02,0-.03,0ZM29.92,19.58s-.04,0-.05,0c0-.06,0-.12,0-.19.02,0,.04,0,.05,0,0,.06,0,.13,0,.19ZM16.51,19.4h0c0,.06,0,.12,0,.19.04-.06.07-.13.11-.19-.04,0-.07,0-.11,0ZM36.03,19.54c0-.06-.05-.06-.05,0,0,.06.05.06.05,0ZM30.18,19.34h0c.02.08.04.16.05.23.04-.06.07-.13.11-.19-.04-.03-.09-.06-.13-.09,0,.02-.02.03-.03.05ZM9.06,19.19c-.02.08-.04.16-.05.24.05.05.11.09.16.14h0c-.02-.12-.04-.25-.05-.37-.02,0-.04,0-.05,0ZM26.22,19.51c0-.06-.05-.06-.05,0,0,.06.05.06.05,0ZM9.73,19.55c.03-.08-.07-.24,0-.28.09-.04.16.02.24.08-.05-.42-.25-.12-.43-.27.06.15.13.31.19.46ZM10.03,19.4s.05.09.08.14c0-.02.02-.03.03-.05-.03-.05-.05-.09-.08-.14,0,.02-.02.03-.03.05ZM14.74,19.25c0,.09,0,.19,0,.28.04,0,.07,0,.11,0,0-.09,0-.19,0-.28-.04,0-.07,0-.11,0ZM14.91,19.53c.05,0,.11,0,.16,0h0v-.05s-.05-.09-.08-.14c-.03.06-.05.13-.08.19ZM6.7,19.43s0,.06,0,.09c.04,0,.07,0,.11,0,0-.03,0-.06,0-.09-.04,0-.07,0-.11,0ZM1.93,19.15c0,.18.07.26.14.37.09-.13.08-.28.08-.47-.07.03-.14.07-.21.1ZM15.17,19.47c0-.06-.05-.06-.05,0,0,.06.05.06.05,0ZM2.96,19.3c-.07-.18-.07-.39-.22-.12.06.1.13.22.19.32.04-.05.09-.1.13-.14,0-.13-.07.03-.1-.07ZM7.67,19.36s-.05-.09-.08-.14c0,0-.02,0-.03,0,0,.09,0,.19,0,.28.04-.05.07-.09.11-.14ZM16.17,19.22c0,.09-.02.19-.03.28.05-.03.11-.06.16-.1-.02-.12-.04-.25-.05-.37-.03.06-.05.13-.08.19ZM12.2,19.21c-.05.09-.09.15-.08.28.04,0,.07,0,.11,0,0-.09,0-.19,0-.28,0,0-.02,0-.03,0ZM12.33,19.3c0,.06,0,.12,0,.19.02,0,.04,0,.05,0,0-.06,0-.13,0-.19-.02,0-.04,0-.05,0ZM4.37,19.1c-.06-.03-.12-.06-.19-.09,0,.06,0,.12,0,.18-.03.03-.07.07-.1.1.09,0,.18,0,.27,0,.04.06.07.12.11.18-.02-.12-.04-.25-.06-.37.05-.05.11-.1.16-.15-.04-.05-.07-.09-.11-.14-.03.09-.05.19-.08.28ZM17.1,19.43c0-.06-.05-.06-.05,0,0,.06.05.06.05,0ZM21.44,19c-.05-.01-.11-.03-.16-.04.05.14.09.28.14.42,0-.09,0-.19,0-.28.04,0,.09,0,.13,0-.02.13-.03.25-.05.38.28-.16.19-.59-.06-.66,0,.06,0,.12,0,.19ZM5.04,19.37s0,.06,0,.09c.04,0,.07,0,.11,0,0-.03,0-.06,0-.09-.04,0-.07,0-.11,0ZM39.37,19.08s0,0,0,0c.05,0,.03.12.03.19-.11,0-.16.19-.27.19,0,0,0,0,0,0h0c0-.17.07-.23.11-.38-.04-.06-.07-.12-.11-.19.08.06.16.12.24.19ZM26.97,19.26c0,.06,0,.13,0,.19.04,0,.07,0,.11,0,0-.06,0-.13,0-.19-.04,0-.07,0-.11,0ZM32.46,19.26c-.03.06-.05.13-.08.19.04,0,.07,0,.11,0,0-.06,0-.13,0-.19,0,0-.02,0-.03,0ZM10.19,19.44s.07-.1.11-.14c-.03-.05-.05-.09-.08-.14,0,0-.02,0-.03,0,0,.09,0,.19,0,.28ZM14.64,19.39c0-.06-.05-.06-.05,0,0,.06.05.06.05,0ZM23.7,19.24c0,.06,0,.13,0,.19.02,0,.04,0,.05,0,0-.06,0-.12,0-.19-.02,0-.04,0-.05,0ZM24.4,19.13c-.05.08.07.31.09.28.05-.08-.07-.31-.09-.28ZM7.67,18.99c.07.12.06.26.05.42.04,0,.07,0,.11,0-.05-.16-.05-.34-.14-.47,0,.02-.02.03-.03.05ZM3.86,19.3s0,.06,0,.09c.04,0,.07,0,.11,0,0-.03,0-.06,0-.09-.04,0-.07,0-.11,0ZM38.71,19.32c0-.06.05-.06.05,0,0,.06-.05.06-.05,0ZM22.41,19.36c.05-.05.11-.1.16-.14-.04-.05-.07-.09-.11-.14-.02.09-.04.19-.05.28ZM21.71,17.22c-.1,0-.18-.16-.27-.04.07.05.14.09.21.14,0,.11-.08.16-.05.28-.04,0-.07,0-.11,0v.05s.07.09.11.14c0-.06,0-.12,0-.19.02,0,.04,0,.05,0,0,.09,0,.19,0,.28.05-.02.11-.03.16-.05-.07.12-.05.26-.05.42-.04,0-.08-.03-.11.05-.04.17-.06.33-.05.51.13-.13.14-.33.16-.57.14.02.13.2.21.32.18.25.24.1.27-.23.17.22.26.22.43,0-.02.16.08.23.1.33.02.1-.04.13-.04.2,0,.11.05.16.04.26,0,.05-.05.07-.04.11.01.11.1.15.16.14-.05-.18.07-.35.04-.5-.04-.25-.15-.33-.1-.62.11.12.14-.1.24-.02,0,0,0,0,0,0,.06-.07.12-.15.19-.22-.04-.03-.07-.06-.11-.08,0,.04,0,.09,0,.13-.11.03-.21.07-.32.1,0-.19-.07-.3-.16-.37,0,.06,0,.12,0,.18-.05,0-.11,0-.16,0,.02.05.04.09.05.14-.02.08-.03.01-.05,0-.08-.04-.1,0-.16.05.04-.16.07-.31.11-.47-.06.06-.12.13-.19.19-.06-.09-.13-.18-.19-.28-.02.11-.03.22-.05.33.03.08.07.15.1.23-.09-.03-.18-.06-.27-.09.02-.13.03-.25.05-.38-.07-.03-.14-.06-.21-.09,0-.12,0-.25,0-.37ZM23.27,19.25s0,.06,0,.09c.04,0,.07,0,.11,0,0-.03,0-.06,0-.09-.04,0-.07,0-.11,0ZM10.99,19.29c0-.06-.05-.06-.05,0,0,.06.05.06.05,0ZM6.92,19.24s0,.06,0,.09c.04,0,.07,0,.11,0,0-.03,0-.06,0-.09-.04,0-.07,0-.11,0ZM34.58,19.28c0-.06.05-.06.05,0,0,.06-.05.06-.05,0ZM24.5,19.03c.02.11.07.16.05.28.04-.05.07-.09.11-.14-.05-.1-.08-.16-.16-.14ZM5.31,19.08c0,.06,0,.13,0,.19.04-.06.07-.13.11-.19-.04,0-.07,0-.11,0ZM38.54,19.23c0-.06-.05-.06-.05,0,0,.06.05.06.05,0ZM40.21,19.07c-.01.12.11.22.16.19,0-.06,0-.13,0-.19-.05,0-.11,0-.16,0ZM2.36,19.19c0-.06-.05-.06-.05,0,0,.06.05.06.05,0ZM38.89,18.89c.1-.1.11-.11.19.05-.11.08-.21.16-.32.24-.02-.2.05-.2.13-.28ZM14.1,19.12c0-.06-.05-.06-.05,0,0,.06.05.06.05,0ZM14.39,18.79c-.08.11-.09.21-.08.38.02,0,.04,0,.05,0,.02-.11.03-.22.05-.33,0-.02-.02-.03-.03-.05ZM39.83,19.12c0-.06-.05-.06-.05,0,0,.06.05.06.05,0ZM10.62,18.78c0,.06,0,.12,0,.19-.04,0-.07,0-.11,0,0,.18,0,.21.11.19,0-.06,0-.12,0-.19.04,0,.07,0,.11,0,0-.18,0-.21-.11-.19ZM28.9,19.04s0,.06,0,.09c.04,0,.07,0,.11,0,0-.03,0-.06,0-.09-.04,0-.07,0-.11,0ZM19.84,18.85c0,.09,0,.19,0,.28.04,0,.07,0,.11,0,.01-.09-.04-.31-.11-.28ZM15.82,19.04s0,.06,0,.09c.04,0,.07,0,.11,0,0-.03,0-.06,0-.09-.04,0-.07,0-.11,0ZM29.48,19.11s0,.01,0,.02c0,0,0,0-.01,0,0,0,0-.02,0-.02,0,0,0,0,0,0-.03-.09-.07-.17-.1-.26.05,0,.11,0,.16,0-.02.09-.04.18-.06.26ZM24.66,18.75c.02.12.04.25.05.37.05,0,.11,0,.16,0,0-.12-.1-.24-.05-.37.01-.03.16.04.07-.1-.08.03-.16.07-.24.1ZM8.18,18.55c-.05.08.03.11.02.23,0,.08-.07.22-.04.33.14-.13.14-.38.02-.56ZM20.85,19.06c0-.06-.05-.06-.05,0,0,.06.05.06.05,0ZM17.32,18.91c0,.06,0,.13,0,.19.02,0,.04,0,.05,0,0-.06,0-.12,0-.19-.02,0-.04,0-.05,0ZM31.04,19.05c0-.06.05-.06.05,0,0,.06-.05.06-.05,0ZM27.18,18.88c-.11-.01-.2.15-.29,0,0,.02-.02.03-.03.05.11.2.25.2.32-.05ZM17.96,17.53c.06.04.13.08.19.12.04-.03.09-.05.13-.08-.02.05-.03.09-.05.14.03.04.05.09.08.13.03-.03.05-.06.08-.09-.01.17.07.2.1.33,0,.04-.03.05-.03.1.02.09.05.13.04.23-.06-.06-.13-.12-.19-.18-.05.09-.11.19-.16.28-.04-.03-.09-.06-.13-.09.03.14-.04.21-.04.33,0,.12.07.19.04.33.04-.02.07-.03.11-.05-.02-.08-.04-.16-.05-.23.13.02.21-.01.29-.19,0,0,.02,0,.03,0,0,.13.08.37.16.37-.02-.29.06-.57,0-.84.14,0,.29,0,.43,0,0,0,0,0,0,0,0-.25-.13-.26-.24-.28-.07.01-.13.15-.21.09-.13-.09-.03-.36-.03-.55.13.04.32.25.32-.1-.05-.02-.11-.04-.16-.05,0-.04,0-.09,0-.13-.04.06-.09.13-.13.19-.03-.06-.05-.12-.08-.19,0,.12.03.17.05.28-.04,0-.07,0-.11,0,0,.06,0,.12,0,.19-.18-.02-.16-.33-.24-.56-.06.17-.12.35-.19.52ZM41.01,19.01c0-.06-.05-.06-.05,0,0,.06.05.06.05,0ZM15.17,19c0-.06-.05-.06-.05,0,0,.06.05.06.05,0ZM3.03,18.94s-.05-.03-.08-.05c.03.05.05.09.08.14.03-.05.05-.09.08-.14-.03.02-.05.03-.08.05ZM16.32,18.56s-.05.1-.08.14c0,.03,0,.06,0,.09.05.08.11.15.16.23-.02-.16-.04-.31-.06-.47,0,0-.02,0-.03,0ZM20.85,18.74c.11.09.21.18.32.27-.05-.06-.11-.12-.16-.18.04-.03.07-.06.11-.1-.03-.06-.05-.12-.08-.19-.06.06-.12.13-.19.19ZM13.46,18.72c0,.09,0,.19,0,.28.02,0,.04,0,.05,0,0-.09,0-.19,0-.28-.02,0-.04,0-.05,0ZM5.74,18.97s-.11-.25-.16-.15c-.02.04.11.25.16.15ZM14.15,18.93c0-.06-.05-.06-.05,0,0,.06.05.06.05,0ZM.81,18.79c0,.06,0,.12,0,.19.11,0,.16-.1.16-.28-.05.03-.11.06-.16.1ZM23.62,18.58c-.12,0-.17.02-.28.09-.06.04-.09.03-.07.2.09.03.18.06.27.09,0-.09,0-.19,0-.28.07.03.14.06.21.09.02-.22-.04-.19-.13-.19ZM36.72,18.73c-.09.06-.18.13-.27.19,0-.09,0-.19,0-.28.09.03.18.06.27.09ZM10.35,18.5c0,.06,0,.13,0,.19.03,0,.07,0,.1,0,0,.06,0,.12,0,.18.02,0,.04,0,.05,0-.02-.12-.04-.25-.05-.37-.04,0-.07,0-.11,0ZM14.69,18.83c0-.06-.05-.06-.05,0,0,.06.05.06.05,0ZM6.54,18.78s0,.06,0,.09c.07-.03.14-.07.21-.1,0-.06-.02-.12-.03-.19-.06.06-.12.13-.19.19ZM19.3,18.49c.02.12.04.25.05.37.03-.13.05-.25.08-.38-.01-.01-.02-.03-.03-.04-.03.02-.07.03-.1.05ZM7.02,18.81c0-.06-.05-.06-.05,0,0,.06.05.06.05,0ZM7.56,18.66c0,.06,0,.13,0,.19h0s.04,0,.05,0c0-.06,0-.13,0-.19-.02,0-.04,0-.05,0ZM36.02,18.37c.1-.05.08.02.11.12.05.14.11.17.1.35-.05-.01-.13.05-.16-.05-.04-.13-.06-.27-.06-.41ZM7.83,18.65c0,.06,0,.12,0,.19.05,0,.11,0,.16,0v-.05c-.05-.1-.08-.16-.16-.14ZM9.3,18.62c-.03.06-.05.13-.08.19.04,0,.07,0,.11,0,0-.06,0-.13,0-.19,0,0-.02,0-.03,0ZM10.19,18.74c0-.06-.05-.06-.05,0,0,.06.05.06.05,0ZM40.74,18.69v.09s.07,0,.11,0v-.09s-.07,0-.11,0ZM24.02,18.67s0,.06,0,.09c.04,0,.07,0,.11,0,0-.03,0-.06,0-.09-.04,0-.07,0-.11,0ZM11.9,18.7c0-.06-.05-.06-.05,0,0,.06.05.06.05,0ZM3.65,18.56c0,.06,0,.12,0,.19.02,0,.04,0,.05,0,0-.06,0-.12,0-.19-.02,0-.04,0-.05,0ZM17.61,18.15c-.07.07-.07.26-.13.33-.09.11-.18-.02-.16.24.09-.07.18-.13.26-.2,0-.12.02-.25.03-.37ZM9.6,18.66c0-.06-.05-.06-.05,0,0,.06.05.06.05,0ZM32.27,18.56s-.05.09-.08.14c0-.02-.02-.03-.03-.05.03-.05.05-.09.08-.14,0,.02.02.03.03.05ZM14.31,18.65c0-.06-.05-.06-.05,0,0,.06.05.06.05,0ZM14.69,18.5c0,.06,0,.12,0,.19.02,0,.04,0,.05,0,0-.06,0-.13,0-.19-.02,0-.04,0-.05,0ZM7.02,18.48c0,.06,0,.12,0,.19.04,0,.07,0,.11,0-.03-.06-.05-.12-.08-.19,0,0-.02,0-.03,0ZM35.33,18.52s-.05.09-.08.14h0s-.04,0-.05,0c-.03-.06-.05-.12-.08-.19.07,0,.14,0,.21,0v.05ZM3.27,18.61c0-.06-.05-.06-.05,0,0,.06.05.06.05,0ZM17.21,18.58c0-.06-.05-.06-.05,0,0,.06.05.06.05,0ZM5.84,18.42c-.01.13.11.2.16.18-.01-.12.03-.18.05-.28-.07.03-.14.06-.21.1ZM32.59,18.6h-.03c-.03-.06-.05-.12-.08-.19.04,0,.07,0,.11,0,0,.06,0,.13,0,.19ZM39.83,18.6s.04,0,.05,0c0-.06,0-.12,0-.19-.02,0-.04,0-.05,0,0,.06,0,.13,0,.19ZM1.66,18.54c0-.06-.05-.06-.05,0,0,.06.05.06.05,0ZM23.93,17.92c-.06,0-.1.09-.16.1-.07.02-.16,0-.24,0-.01.23.05.2.16.18-.02.06-.04.13-.05.19.08.06.16.12.24.18.04-.01.06-.15.08-.18.09-.14.17-.17.16-.39,0,0,0,0,0,0-.08.02-.12-.09-.19-.09ZM15.75,18.29s-.14.2-.09.28c.03.04.14-.2.09-.28ZM24.68,18.28c-.07-.03-.22-.06-.24.09.11.06.21.12.32.18-.03-.07-.03-.25-.08-.28ZM20.42,18.46s0,.06,0,.09c.04,0,.07,0,.11,0,0-.03,0-.06,0-.09-.04,0-.07,0-.11,0ZM15.97,18.24c-.02-.09-.11-.06-.16-.05.02.11.08.21.13.27.07.1.09.07.14-.05h0c-.07-.08-.07-.01-.11-.18ZM10.51,18.31c0,.06,0,.13,0,.19.02,0,.04,0,.05,0,0-.06,0-.12,0-.19-.02,0-.04,0-.05,0ZM24.39,17.44c-.03.15-.06.27-.09.43-.03.16-.05.39-.07.55-.01.09.09.07.1.05.05-.17.03-.29.16-.28,0-.03,0-.06,0-.09-.04,0-.07,0-.11,0,0-.22,0-.44,0-.66ZM23.53,18.44c0-.06-.05-.06-.05,0,0,.06.05.06.05,0ZM42.94,18.48c-.05,0-.11,0-.16,0v-.09c.05,0,.11,0,.16,0v.09ZM11.69,18.29c0,.06,0,.13,0,.19.02,0,.04,0,.05,0,0-.06,0-.12,0-.19-.02,0-.04,0-.05,0ZM35.06,18.47s-.07,0-.11,0v-.09s.07,0,.11,0v.09ZM3.19,18.28c-.03.06-.05.13-.08.19.04,0,.07,0,.11,0,0-.06,0-.13,0-.19,0,0-.02,0-.03,0ZM20.16,18.28c0,.06,0,.12,0,.19.02,0,.04,0,.05,0,0-.06,0-.12,0-.19-.02,0-.04,0-.05,0ZM12.11,18.09c-.02.13-.04.25-.05.38.02,0,.04,0,.05,0,.04-.13.07-.25.11-.38-.04,0-.07,0-.11,0ZM36.4,18.45s-.07,0-.11,0v-.09s.07,0,.11,0v.09ZM25.89,18.39c0-.06.05-.06.05,0,0,.06-.05.06-.05,0ZM13.86,18.05c-.08.11-.09.21-.08.38.09.05.18-.16.21-.29h0s-.09-.06-.13-.09ZM26.37,18.43s-.04,0-.05,0c0-.06,0-.12,0-.19.02,0,.04,0,.05,0,0,.06,0,.13,0,.19ZM14.42,18.41c.02-.13.03-.25.05-.38-.04.03-.07.06-.11.1-.04-.09-.07-.19-.11-.28.05.19.11.37.16.56ZM10.13,18.37c0-.06-.05-.06-.05,0,0,.06.05.06.05,0ZM27.23,18.37c0-.06.05-.06.05,0,0,.06-.05.06-.05,0ZM23.96,18.39s-.07,0-.11,0c0-.06,0-.12,0-.19.04,0,.07,0,.11,0,0,.06,0,.13,0,.19ZM19.56,18.34c0-.06-.05-.06-.05,0,0,.06.05.06.05,0ZM16.83,18.17c0,.06,0,.12,0,.19.04,0,.07,0,.11,0-.03-.06-.05-.12-.08-.19,0,0-.02,0-.03,0ZM25.89,18.07c0,.06,0,.12,0,.19-.07.03-.14.07-.21.1,0-.24.09-.3.21-.29ZM36.83,18.31c0-.06.05-.06.05,0,0,.06-.05.06-.05,0ZM21.44,18.3c0-.06-.05-.06-.05,0,0,.06.05.06.05,0ZM37.47,18.3c0-.06.05-.06.05,0,0,.06-.05.06-.05,0ZM21.6,18.3c0-.06-.05-.06-.05,0,0,.06.05.06.05,0ZM0,18.28c0-.06.05-.06.05,0,0,.06-.05.06-.05,0ZM39.24,18.33s.07,0,.11,0c0-.1,0-.17.05-.24-.04-.05-.07-.09-.11-.14-.02.13-.03.25-.05.38ZM.32,18.28c0-.06-.05-.06-.05,0,0,.06.05.06.05,0ZM39.94,18.23v.09s.07,0,.11,0v-.09s-.07,0-.11,0ZM23.21,18.26c0-.06-.05-.06-.05,0,0,.06.05.06.05,0ZM34.9,18.29s-.04,0-.05,0c0-.06,0-.13,0-.19.02,0,.04,0,.05,0,0,.06,0,.12,0,.19ZM24.55,18.14c.04.13.2.02.27.05,0,0,.03.14.08.08.02-.03.02-.04.03-.09-.03.02-.07-.01-.11.01,0-.05,0-.06,0-.1.04.04.04-.09.05-.09.04-.03.07.01.11,0,0,0,0,0,0-.01,0-.03,0-.08-.03-.08-.01,0-.04,0-.05,0-.04,0-.01.07-.03.1-.02.03-.06,0-.05.09-.04,0-.07,0-.11,0,.04-.08.07-.16.11-.24-.04-.08-.07-.15-.11-.23-.05.17-.11.35-.16.52ZM35.06,18.24c0-.06.05-.06.05,0,0,.06-.05.06-.05,0ZM29.75,18.09c.1-.02.17,0,.22.18-.1.02-.17,0-.22-.18ZM36.08,18.27s-.07,0-.11,0c0-.06,0-.13,0-.19.04,0,.07,0,.11,0,0,.06,0,.13,0,.19ZM20.58,18.22c0-.06-.05-.06-.05,0,0,.06.05.06.05,0ZM36.13,18.22c0-.06.05-.06.05,0,0,.06-.05.06-.05,0ZM8.25,18.22c0-.06-.05-.06-.05,0,0,.06.05.06.05,0ZM32.22,18.19c0-.06.05-.06.05,0,0,.06-.05.06-.05,0ZM33.23,17.66c0,.1,0,.24,0,.33.01.2.07.12.13.24,0-.13-.02-.25-.03-.38.04-.03.07-.06.11-.1h0c-.07-.03-.14-.06-.21-.09ZM40.85,18.17c0-.06-.05-.06-.05,0s.05.06.05,0ZM33.61,17.93c0,.06,0,.12,0,.19.04.03.09.06.13.09,0-.02.02-.03.03-.05-.02-.08-.04-.16-.05-.23-.04,0-.07,0-.11,0ZM28.25,18.16c0-.06.05-.06.05,0,0,.06-.05.06-.05,0ZM19.62,17.36c.02.12.04.25.05.37.03-.06.05-.13.08-.19.12.22.23.43.35.65h0c-.02-.12-.04-.25-.06-.37-.03,0-.07,0-.1,0,0-.16.02-.31.03-.47-.05-.06-.11-.12-.16-.18-.06.06-.12.13-.19.19ZM35.38,18.14c0-.06.05-.06.05,0,0,.06-.05.06-.05,0ZM16.19,18.04s.05.09.08.14c0-.02.02-.03.03-.05-.03-.05-.05-.09-.08-.14,0,.02-.02.03-.03.05ZM38.65,17.96c.03.06.05.12.08.19.03-.05.05-.09.08-.14v-.05c-.05,0-.11,0-.16,0ZM26.7,18.1c0-.06.05-.06.05,0,0,.06-.05.06-.05,0ZM9.86,17.86c0,.09,0,.19,0,.28.04,0,.07,0,.11,0-.01-.12.03-.18.05-.28-.05,0-.11,0-.16,0ZM27.39,17.94c0,.06,0,.13,0,.19-.05,0-.11,0-.16,0,0-.03,0-.06,0-.09.07.01.1-.06.16-.1ZM32.65,18.04v.09s.07,0,.11,0v-.09s-.07,0-.11,0ZM32.91,18.03v.09s.07,0,.11,0v-.09s-.07,0-.11,0ZM19.08,17.46c.02.22.04.44.06.66.02-.13.03-.25.05-.38.09.09.16.14.24,0,.03.05.05.09.08.14-.02.03-.03.06-.05.1.04.01.07.03.11.04-.02-.11-.04-.22-.05-.33-.05-.01-.11-.03-.16-.04,0-.09,0-.19,0-.28-.09.03-.18.07-.27.1ZM19.4,18.06c0-.06-.05-.06-.05,0,0,.06.05.06.05,0ZM24.98,17.99s0,.07,0,.1c.02-.02.05,0,.05-.05,0-.06-.04-.03-.05-.05ZM16.4,18.04c0-.06-.05-.06-.05,0,0,.06.05.06.05,0ZM16.88,17.42c0,.17.07.23.05.42-.02.14-.1.27.06.23.01-.14.03-.28.04-.42-.05-.08-.1-.15-.15-.23ZM21.39,17.78c-.08-.02-.11.05-.16.14.05.1.08.16.16.14,0-.09,0-.19,0-.28ZM32.06,18c0-.06.05-.06.05,0,0,.06-.05.06-.05,0ZM39.93,17.99c0-.06-.05-.06-.05,0s.05.06.05,0ZM28.89,18.01c0-.06,0-.12,0-.19.04,0,.07,0,.11,0-.04.06-.07.13-.11.19ZM15.97,17.81c0,.06,0,.12,0,.19.02,0,.04,0,.05,0,0-.06,0-.12,0-.19-.02,0-.04,0-.05,0ZM20.55,16.77c-.05.05-.03.19-.03.28-.03-.03-.07-.1-.11-.09-.04.13-.07.25-.11.38.07,0,.14,0,.21,0,0-.09,0-.19,0-.28.1.1.12.17.11.37-.16.03-.16.25-.21.47.07.03.14.06.21.09,0-.06.02-.13.03-.19.08.07-.02.23.13.18h0c-.05-.14-.11-.28-.16-.42.12-.23.17,0,.16.23.05-.05.11-.1.16-.14-.05-.16-.18-.2-.24-.32-.09-.18-.06-.41-.17-.56ZM30.61,17.98s-.04,0-.05,0c0-.06,0-.13,0-.19.02,0,.04,0,.05,0,0,.06,0,.12,0,.19ZM17.21,17.93c0-.06-.05-.06-.05,0,0,.06.05.06.05,0ZM25.84,17.93c0-.06.05-.06.05,0,0,.06-.05.06-.05,0ZM17.74,17.68c.05.09.11.18.16.28,0-.09,0-.19,0-.28-.05,0-.11,0-.16,0ZM31.95,17.91s-.02.03-.03.05c-.03-.09-.05-.19-.08-.28.02,0,.04,0,.05,0,.02.08.04.16.05.23ZM.37,17.76c0,.06,0,.13,0,.19.04,0,.07,0,.11,0,0-.06,0-.12,0-.19-.04,0-.07,0-.11,0ZM39.56,17.9c0-.06-.05-.06-.05,0,0,.06.05.06.05,0ZM10.13,17.9c0-.06-.05-.06-.05,0,0,.06.05.06.05,0ZM27.74,17.94s0,0,0,0c0,0,0,0,0,0,0,0,0,0,0,0,.03-.06.06-.11.09-.17-.03.06-.05.12-.08.18ZM6.7,17.88c0-.06-.05-.06-.05,0,0,.06.05.06.05,0ZM41.92,17.88c0-.06-.05-.06-.05,0,0,.06.05.06.05,0ZM29.22,17.86c0-.06.05-.06.05,0,0,.06-.05.06-.05,0ZM20.15,17.86c0-.06-.05-.06-.05,0s.05.06.05,0ZM29.7,17.24c-.04.27-.02.61-.21.66.07-.21.1-.33.05-.56.05-.03.11-.06.16-.1h0ZM9.16,17.59s0,.06,0,.09c.03,0,.07,0,.11,0,0,.06,0,.12,0,.18.02,0,.04,0,.05,0,.02-.09.04-.19.05-.28-.07,0-.14,0-.21,0ZM9.65,17.81c0-.06-.05-.06-.05,0,0,.06.05.06.05,0ZM17.31,17.69c.1-.02.15.02.22.13.05.07.07-.04.11-.09-.06-.08-.13-.15-.19-.23-.04.06-.09.13-.13.19ZM33.07,17.8c0-.06-.05-.06-.05,0,0,.06.05.06.05,0ZM34.04,17.78s.02.03.03.05c.03-.05.05-.09.08-.14,0-.02-.02-.03-.03-.05-.03.05-.05.09-.08.14ZM15.33,17.64c0,.06,0,.12,0,.19.04,0,.07,0,.11,0,0-.06,0-.13,0-.19-.04,0-.07,0-.11,0ZM23.85,17.36c.05.01.11.03.16.04.05.14.11.28.16.42-.02-.19-.04-.37-.06-.56-.04-.02-.09.02-.13,0-.06-.03,0-.16-.06-.19-.03.09-.05.19-.08.28ZM15.97,17.34c-.17.02-.17.22-.16.47.11-.11.17-.24.16-.47ZM20.21,17.62c-.01.12.11.22.16.18,0-.06,0-.12,0-.19-.05,0-.11,0-.16,0ZM29.43,17.81s-.04,0-.05,0c0-.06,0-.13,0-.19.02,0,.04,0,.05,0,0,.06,0,.12,0,.19ZM16.29,17.76v.05c.07,0,.14,0,.21,0,0-.13-.03-.2-.08-.28-.04.08-.09.16-.13.24ZM31.12,17.59c.03.06.05.12.08.19-.04,0-.07,0-.11,0,0-.06,0-.12,0-.19,0,0,.02,0,.03,0ZM32.67,17.38c-.09,0-.18.13-.24.24.14.04.29.09.43.13-.06-.12-.13-.25-.19-.37ZM18.76,17.7c0-.06-.05-.06-.05,0,0,.06.05.06.05,0ZM34.41,17.73c.12-.15.17.03.29-.02.05-.02.17-.25.13-.36-.06.06-.12.12-.19.19-.08-.12-.16-.25-.24-.37,0,.19,0,.37,0,.56ZM12.33,17.62s0,.06,0,.09c.04,0,.07,0,.11,0,0-.03,0-.06,0-.09-.04,0-.07,0-.11,0ZM33.66,17.6c0-.06-.05-.06-.05,0,0,.06.05.06.05,0ZM23.85,17.59c0-.06-.05-.06-.05,0,0,.06.05.06.05,0ZM11.63,17.35c0,.09,0,.19,0,.28.04,0,.07,0,.11,0,0-.09,0-.19,0-.28-.04,0-.07,0-.11,0ZM15.11,17.27c.01.13,0,.49.11.26,0-.01,0-.19.05-.23.04-.03.12-.02.11-.14-.07-.03-.14-.06-.21-.09-.02.06-.04.13-.05.19ZM37.2,17.41c0,.06,0,.13,0,.19.04-.06.07-.13.11-.19-.04,0-.07,0-.11,0ZM21.97,17.54c0-.06-.05-.06-.05,0,0,.06.05.06.05,0ZM13.93,17.39c0,.06,0,.12,0,.19.02,0,.04,0,.05,0,0-.06,0-.12,0-.19-.02,0-.04,0-.05,0ZM9.65,17.53c0-.06-.05-.06-.05,0,0,.06.05.06.05,0ZM28.73,17.5c0-.06-.05-.06-.05,0,0,.06.05.06.05,0ZM16.08,17.25c0,.09,0,.19,0,.28.04,0,.07,0,.11,0,0-.09-.04-.31-.11-.28ZM35.86,17.34c0,.06,0,.12,0,.19.04,0,.07,0,.11,0,0-.06,0-.12,0-.19-.04,0-.07,0-.11,0ZM20.98,17.14s-.09,0-.13,0c.06.12.13.25.19.37,0,0,.01-.01.02-.02.08-.11.01-.29-.07-.35ZM26,17.5s-.07,0-.11,0c0-.03,0-.06,0-.09.04,0,.07,0,.11,0,0,.03,0,.06,0,.09ZM21.39,17.46c0-.06-.05-.06-.05,0,0,.06.05.06.05,0ZM30.88,17.46c0-.06.05-.06.05,0,0,.06-.05.06-.05,0ZM17.69,17.4s0,.06,0,.09c.05,0,.11,0,.16,0,0-.03,0-.06,0-.09-.05,0-.11,0-.16,0ZM22.14,17.49c.05,0,.11,0,.16,0,0-.03,0-.06,0-.09-.07.02-.1-.05-.16-.09,0,.06,0,.13,0,.19ZM32.86,17.38v.09c.07-.03.14-.06.21-.1v-.09c-.07.03-.14.06-.21.1ZM27.98,16.99c-.12.11-.17.24-.16.47.02-.06.04-.12.05-.19.05,0,.11,0,.16,0,0,0,0,0,0,0-.02-.09-.04-.19-.05-.28ZM23.26,17.42c0-.06-.05-.06-.05,0,0,.06.05.06.05,0ZM33.5,17.27c.04.06.07.12.11.19,0-.06,0-.12,0-.19-.04,0-.07,0-.11,0ZM20.1,17.44s0,0,0,0c.04,0,.07,0,.11,0,0-.06,0-.12,0-.19h-.03c-.03.06-.05.13-.08.19ZM24.44,16.97c0,.16,0,.31,0,.47.05,0,.11,0,.16,0,0-.02-.01-.04-.02-.06-.04-.13-.04-.26-.04-.41-.04,0-.07,0-.11,0ZM25.3,17.37c0-.06-.05-.06-.05,0,0,.06.05.06.05,0ZM31.36,17.36c0-.06-.05-.06-.05,0,0,.06.05.06.05,0ZM9.65,17.2c0,.06,0,.12,0,.19.04,0,.07,0,.11,0,0-.06,0-.12,0-.19-.04,0-.07,0-.11,0ZM9.91,17.34s.02.03.03.05c.03-.05.05-.09.08-.14,0-.02-.02-.03-.03-.05-.03.05-.05.1-.08.14ZM22.78,17.19c0,.06,0,.12,0,.19.04,0,.07,0,.11,0,0-.06,0-.12,0-.19-.04,0-.07,0-.11,0ZM12.97,17.13c0,.06,0,.12,0,.19.02,0,.04,0,.05,0,0-.06,0-.13,0-.19-.02,0-.04,0-.05,0ZM30.61,17.27c0-.06-.05-.06-.05,0,0,.06.05.06.05,0ZM19.27,16.71c-.1.24-.22.17-.37.2-.05.01-.03.19-.08.23.05.05.11.09.16.14,0-.06-.02-.12-.03-.19.04-.03.09-.06.13-.1,0,.06,0,.12,0,.19.05,0,.11,0,.16,0,0-.22.15-.29.03-.47ZM15.06,16.9c-.04.13-.07.25-.11.38.05,0,.11,0,.16,0,0-.13,0-.25,0-.38-.02,0-.04,0-.05,0ZM33.88,17.18v.09s.07,0,.11,0v-.09s-.07,0-.11,0ZM34.76,17.07c-.06.12-.11,0-.19,0,.04.06.09.12.13.19.03-.05.05-.09.08-.14,0-.02-.02-.03-.03-.05ZM35,17.21c0-.06-.05-.06-.05,0,0,.06.05.06.05,0ZM29.11,17.11c.05.05.11.09.16.14.01-.13-.01-.26-.03-.37,0-.03,0-.06,0-.09,0-.09-.02-.19-.07-.19-.02.17-.03.34-.05.52ZM12.22,17.2c0-.06-.05-.06-.05,0,0,.06.05.06.05,0ZM16.29,16.87c.05.03.11.06.16.09,0,0,0,0,0,0,.02.09.04.19.05.28,0-.12,0-.25,0-.38-.07,0-.14,0-.21,0ZM16.77,17.19c0-.06-.05-.06-.05,0,0,.06.05.06.05,0ZM31.54,17.02c-.03.06-.05.13-.08.19.04,0,.07,0,.11,0,0-.06,0-.13,0-.19,0,0-.02,0-.03,0ZM21.87,16.93c.05.09.09.19.13.28,0-.02.02-.03.03-.05-.05-.07-.06-.13-.05-.23-.04,0-.07,0-.11,0ZM10.34,17.14h0s.02.03.03.05c.03-.05.05-.09.08-.14,0-.02-.02-.03-.03-.05-.03.05-.05.1-.08.14ZM10.64,17.18c0-.16.02-.31.03-.47-.05-.01-.11-.03-.16-.04.05.17.09.34.14.51ZM33.61,17.18c.11,0,.19.02.27-.14-.03.01-.05.02-.08.04-.03-.03-.07-.05-.1-.08-.03.06-.06.12-.08.19ZM6.78,17.18c.03-.06.05-.13.08-.19-.05-.03-.11-.06-.16-.09.03.09.05.19.08.28ZM11.04,16.8c-.02.13-.04.25-.05.38.1-.07.12-.2.11-.38-.02,0-.04,0-.05,0ZM16.83,16.86c.06.09.13.18.19.28,0-.02.02-.03.03-.05-.02-.11-.04-.22-.05-.33-.05.03-.11.07-.16.1ZM31.06,16.94c-.03.06-.05.13-.08.19.04,0,.07,0,.11,0,0-.06,0-.13,0-.19,0,0-.02,0-.03,0ZM13.56,17.07c0-.06-.05-.06-.05,0,0,.06.05.06.05,0ZM22.35,16.92c0,.06,0,.13,0,.19.02,0,.04,0,.05,0,0-.06,0-.13,0-.19-.02,0-.04,0-.05,0ZM22.46,17.01c.07.03.14.06.21.09,0-.06,0-.13,0-.19-.08.02-.14-.02-.21-.09,0,.06,0,.13,0,.19ZM33.07,16.72c0,.09,0,.19,0,.28.04.03.09.06.13.09,0-.02.02-.03.03-.05-.04-.11-.07-.22-.11-.33-.02,0-.04,0-.05,0ZM33.34,16.9c0,.06,0,.12,0,.19.04-.06.07-.13.11-.19-.04,0-.07,0-.11,0ZM10.29,16.82c-.1-.03-.22.23-.08.27.05.01.1-.21.08-.27ZM23.31,16.99s0,.06,0,.09c.04,0,.07,0,.11,0,0-.03,0-.06,0-.09-.04,0-.07,0-.11,0ZM28.19,16.99s0,.06,0,.09c.04,0,.07,0,.11,0,0-.03,0-.06,0-.09-.04,0-.07,0-.11,0ZM34.09,16.98v.09s.07,0,.11,0v-.09s-.07,0-.11,0ZM16.05,16.87c-.03.06-.05.13-.08.19.04,0,.07,0,.11,0,0-.06,0-.12,0-.19,0,0-.02,0-.03,0ZM20.12,16.78c-.15.19-.29-.02-.46,0,.04.09.09.18.13.26.12-.03.23-.06.35-.09,0-.06-.02-.12-.03-.19ZM4.28,17.04s-.04,0-.05,0c0-.06,0-.12,0-.19.02,0,.04,0,.05,0,0,.06,0,.12,0,.19ZM25.89,16.71c.07-.02.14-.03.21-.05-.02.13-.03.25-.05.38.07-.03.14-.07.21-.1.02-.43-.11-.48-.32-.56-.02.11-.03.22-.05.33ZM10.07,16.54c-.1.06-.18.05-.29.12-.11.07-.16.13-.14.36h0c.1-.02.14-.24.25-.27.11-.03.17.12.18-.21ZM27.01,16.97c0-.06-.05-.06-.05,0,0,.06.05.06.05,0ZM14.31,17.01s.04,0,.05,0c0-.18,0-.31-.11-.37h0c.02.12.04.25.05.37ZM18.76,16.95c0-.06-.05-.06-.05,0,0,.06.05.06.05,0ZM27.71,16.81c0,.06,0,.12,0,.19.04,0,.07,0,.11,0,0-.06,0-.12,0-.19-.04,0-.07,0-.11,0ZM41.38,16.95c0-.06-.05-.06-.05,0,0,.06.05.06.05,0ZM24.81,16.92c0-.06-.05-.06-.05,0,0,.06.05.06.05,0ZM21.09,16.39c-.06-.04-.06.08-.12.08-.09,0-.18.01-.1.2.08-.07.16-.13.24-.19-.05.16-.11.31-.16.47.07-.06.14-.13.21-.19,0,.06,0,.13,0,.19,0,0,0,0,0,0,.04,0,.07,0,.11,0,0-.06,0-.13,0-.19-.04,0-.07,0-.11,0,.01-.14,0-.31-.08-.37ZM17.1,16.85s0,.06,0,.09c.07,0,.14,0,.21,0,0-.06,0-.13,0-.19-.07.03-.14.07-.21.1ZM17.58,16.92s-.11-.25-.16-.15c-.02.04.11.25.16.15ZM26.5,16.93s.09-.06.13-.1c0-.03,0-.06,0-.09-.07-.03-.14-.06-.21-.09.03.09.05.19.08.28ZM23.1,16.34c.02.09.04.18.06.28.03.06.07.13.1.19-.09-.06-.18-.12-.27-.18.13.37.33.36.43-.05-.02-.08-.04-.16-.05-.24-.09,0-.18,0-.27,0ZM15.49,16.84c0-.06-.05-.06-.05,0,0,.06.05.06.05,0ZM28.78,16.7c0,.06,0,.13,0,.19.04,0,.07,0,.11,0,0-.06,0-.13,0-.19-.04,0-.07,0-.11,0ZM15.7,16.83c0-.06-.05-.06-.05,0,0,.06.05.06.05,0ZM29.05,16.83c0-.06-.05-.06-.05,0,0,.06.05.06.05,0ZM29.48,16.68c0,.06,0,.12,0,.19.05,0,.11,0,.16,0h0v-.05c-.05-.1-.08-.16-.16-.14ZM16.61,16.67c0,.06,0,.12,0,.19h0c.04-.06.07-.13.11-.19-.04,0-.07,0-.11,0ZM30.42,16.48c-.15.03-.2.11-.19.38.04-.09.07-.19.11-.28.07.03.14.06.21.09,0-.21-.03-.2-.14-.18ZM30.55,16.81c0-.06-.05-.06-.05,0,0,.06.05.06.05,0ZM17.63,16.42c.07.12.06.26.05.42.14,0,.17-.16.16-.38-.07-.01-.14-.03-.21-.04ZM13.99,16.64c.04.06.07.12.11.19,0-.06,0-.13,0-.19-.04,0-.07,0-.11,0ZM18.14,16.26c-.15.25,0,.42.14.56.02-.12.04-.25.05-.38-.04-.01-.09.02-.13,0-.06-.03,0-.16-.06-.19ZM22.83,16.77c0-.06-.05-.06-.05,0,0,.06.05.06.05,0ZM14.68,16.76c0-.06-.05-.06-.05,0,0,.06.05.06.05,0ZM23.53,16.52c0,.09,0,.19,0,.28.02,0,.04,0,.05,0,0-.09,0-.19,0-.28-.02,0-.04,0-.05,0ZM33.82,16.75c0-.06-.05-.06-.05,0,0,.06.05.06.05,0ZM34.09,16.75c0-.06-.05-.06-.05,0,0,.06.05.06.05,0ZM31.78,16.46c0,.12-.03.18-.05.28.04,0,.07,0,.11,0,0-.09,0-.19,0-.28-.02,0-.04,0-.05,0ZM27.71,16.53c.04.06.07.12.11.19,0-.06,0-.12,0-.19-.04,0-.07,0-.11,0ZM28.35,16.42c0,.09,0,.19,0,.28.07.02.12-.19.11-.28-.04,0-.07,0-.11,0ZM34.2,16.66c0-.06-.05-.06-.05,0,0,.06.05.06.05,0ZM15.59,16.65c0-.06-.05-.06-.05,0,0,.06.05.06.05,0ZM24.06,16.51c.04.06.07.12.11.19,0-.06,0-.13,0-.19-.04,0-.07,0-.11,0ZM24.66,16.4c-.05.08.07.31.09.28.05-.08-.07-.31-.09-.28ZM17.15,16.38c-.07-.02-.12.19-.11.28.05,0,.11,0,.16,0-.02-.11-.07-.16-.05-.28ZM22.51,16.19c-.09-.15-.12.07-.11.17-.05,0-.11,0-.16,0,0,.09-.02.19-.03.28.04-.05.09-.1.13-.15.08.18.16.05.27.04-.05-.04-.09-.32-.1-.35ZM27.98,16.57c0-.06-.05-.06-.05,0,0,.06.05.06.05,0ZM24.87,16.4c0,.06,0,.13,0,.19.02,0,.04,0,.05,0,0-.06,0-.12,0-.19-.02,0-.04,0-.05,0ZM31.25,16.51c0-.06-.05-.06-.05,0,0,.06.05.06.05,0ZM21.92,16.46s0,.06,0,.09c.04,0,.07,0,.11,0,0-.03,0-.06,0-.09-.04,0-.07,0-.11,0ZM14.41,16.35c0,.06,0,.12,0,.19.02,0,.04,0,.05,0,0-.06,0-.13,0-.19-.02,0-.04,0-.05,0ZM19.02,16.34c-.09-.52-.31-.2-.13.19.02-.06.04-.13.06-.19.02,0,.05,0,.07,0ZM19.83,16.33c-.05-.09-.18.12-.16.16.05.09.18-.12.16-.16ZM27.92,16.38c0-.06-.05-.06-.05,0,0,.06.05.06.05,0ZM16.23,15.37c-.15,0-.15.27-.27.38,0-.09-.02-.19-.03-.28-.05.03-.11.06-.16.09-.06-.06-.13-.11-.19-.17.02.09.04.19.05.28-.2.04-.39.07-.59.11-.02.11-.04.22-.05.33.15.26.26,0,.43-.06.02.08.04.16.05.24.05-.02.11-.03.16-.05,0,.06.02.12.03.19.2.03.06-.29.24-.29.02.08.04.16.05.23.03.01.05.03.08.04.07-.12.14-.25.21-.37.13.14.3.07.43.07.12,0,.16.01.27,0,0,0,0,0,0,0,.06,0,.17,0,.24,0,.02-.12.04-.06.05-.21.02-.16-.06-.17-.16-.21-.04-.02-.09-.19-.13-.23-.03.12-.05.25-.08.37-.22.03-.36.27-.38-.27-.07.03-.14.07-.21.1-.04.06-.07.12-.11.19.02-.16.03-.31.05-.47ZM29.26,16.22c.04.06.07.12.11.19,0-.06,0-.13,0-.19-.04,0-.07,0-.11,0ZM17.5,16.09s-.05.1-.08.14c.04.05.07.09.11.14,0-.09,0-.19,0-.28,0,0-.02,0-.03,0ZM14.25,15.7c.02.06.04.12.05.19-.09.03-.18.07-.27.1.03.12.05.25.08.37.17-.07.34-.13.51-.2,0-.02,0-.04,0-.06,0-.12-.02-.1-.08-.12-.07-.03-.11-.09-.19-.1,0-.06,0-.12,0-.18-.04,0-.07,0-.11,0ZM20.47,15.84s0,.09,0,.14c.05.11.11.22.16.33-.02-.22-.04-.44-.06-.65-.04.06-.07.13-.11.19ZM25.03,16.25c0-.06-.05-.06-.05,0,0,.06.05.06.05,0ZM18.22,16.26s0,0,0,0c.04,0,.07,0,.11,0,0-.06,0-.12,0-.19h-.03c-.03.06-.05.13-.08.19ZM14.52,15.22c-.04.14-.07.28-.11.43.05-.02.11-.03.16-.05,0,.06,0,.12,0,.18.09.03.18.06.27.09-.02.13-.03.25-.05.38.05,0,.11,0,.16,0,.02-.18-.03-.25-.08-.37-.03-.08,0-.13-.04-.18-.04-.05-.09,0-.13-.1-.04-.09,0-.19-.03-.28-.02-.04-.12-.03-.15-.09ZM28.19,16.15s0,.06,0,.09c.04,0,.07,0,.11,0,0-.03,0-.06,0-.09-.04,0-.07,0-.11,0ZM18.43,15.98c0,.06,0,.12,0,.19.04-.06.07-.13.11-.19-.04,0-.07,0-.11,0ZM19.56,15.86c0,.09,0,.19,0,.28.05,0,.11,0,.16,0,0-.09,0-.19,0-.28-.05,0-.11,0-.16,0ZM21.06,15.82c0,.09,0,.19,0,.28.07.02.12-.19.11-.28-.04,0-.07,0-.11,0ZM27.65,15.87c-.13,0-.26-.05-.32.19.11-.03.2-.12.32-.1v-.09h0ZM18.75,15.87c0,.06,0,.12,0,.19.02,0,.04,0,.05,0,0-.06,0-.12,0-.19-.02,0-.04,0-.05,0ZM19.34,15.77c-.09-.03-.18-.06-.27-.09,0,.12,0,.25,0,.38.12-.07.25-.13.37-.2-.02-.16-.04-.31-.05-.47-.02.13-.04.25-.05.38ZM11.41,15.99c0-.06.05-.06.05,0,0,.06-.05.06-.05,0ZM15.97,16.03s-.04,0-.05,0c0-.06,0-.12,0-.19.02,0,.04,0,.05,0,0,.06,0,.12,0,.19ZM20.09,15.98c0-.06-.05-.06-.05,0,0,.06.05.06.05,0ZM6.86,15.98c0-.06.05-.06.05,0,0,.06-.05.06-.05,0ZM12.32,15.97c0-.06-.05-.06-.05,0,0,.06.05.06.05,0ZM17.09,15.91s-.09.06-.13.1c0-.02-.02-.03-.03-.05.05-.05.11-.1.16-.14,0,.03,0,.06,0,.09ZM17.68,15.52c-.2-.03-.33.14-.37.48.22.03.36-.04.48-.39-.07.03-.14.07-.21.1.04-.06.07-.13.11-.19ZM21.7,15.62c0,.12,0,.25,0,.38.02,0,.04,0,.05,0,0-.12,0-.25,0-.38-.02,0-.04,0-.05,0ZM10.34,15.97s-.07,0-.11,0c0-.06,0-.13,0-.19.04,0,.07,0,.11,0,0,.06,0,.13,0,.19ZM19.77,15.85s0,.06,0,.09c.04,0,.07,0,.11,0,0-.03,0-.06,0-.09-.04,0-.07,0-.11,0ZM6.69,15.89c0-.06.05-.06.05,0,0,.06-.05.06-.05,0ZM7.71,15.73c0,.06,0,.12,0,.19-.04,0-.07,0-.11,0,.03-.06.05-.13.08-.19h.03ZM25.94,15.86c0-.06-.05-.06-.05,0,0,.06.05.06.05,0ZM21.92,15.71c0,.06,0,.13,0,.19.05,0,.11,0,.16,0,0-.06,0-.13,0-.19-.05,0-.11,0-.16,0ZM23.04,15.64c.02.08.04.16.05.23.04,0,.07,0,.11,0-.05-.09-.09-.19-.13-.28,0,.02-.02.03-.03.05ZM33.6,15.82c0-.06-.05-.06-.05,0,0,.06.05.06.05,0ZM11.57,15.57c.02.09.04.19.05.28.05-.05.11-.1.16-.14-.06-.13-.12-.15-.21-.14ZM12.32,15.66c-.05-.1-.18.12-.16.16.05.09.18-.12.16-.16ZM20.79,15.45c0,.12,0,.25,0,.38.04-.05.07-.1.11-.14,0-.03,0-.06,0-.09-.03-.05-.05-.09-.08-.14,0,0-.02,0-.03,0ZM9.48,15.75c0-.06.05-.06.05,0,0,.06-.05.06-.05,0ZM17.95,15.75c0-.06-.05-.06-.05,0,0,.06.05.06.05,0ZM22.45,15.51c0,.09,0,.19,0,.28.04-.05.07-.1.11-.14-.03-.05-.05-.09-.08-.14,0,0-.02,0-.03,0ZM18.86,15.4c-.02.13-.03.25-.05.38.04,0,.07,0,.11,0,0-.12,0-.25,0-.38-.02,0-.04,0-.05,0ZM23.74,15.39c-.08-.02-.22.12-.27.24.06.13.12.15.21.14.02-.13.03-.25.05-.38ZM19.56,15.29c-.02.16-.03.31-.05.47.11-.11.17-.24.16-.47-.04,0-.07,0-.11,0ZM15.86,15.71c0-.06.05-.06.05,0,0,.06-.05.06-.05,0ZM7.17,15.46c0,.09,0,.19,0,.28.02,0,.04,0,.05,0,0-.09,0-.19,0-.28-.02,0-.04,0-.05,0ZM35.8,15.69c0-.06-.05-.06-.05,0,0,.06.05.06.05,0ZM16.58,15.27c-.08-.11-.1,0-.19,0h0c.09.25.24.1.22.46.04-.08.07-.16.11-.24-.04-.06-.09-.18-.13-.23ZM21.33,15.54c0,.06,0,.13,0,.19.02,0,.04,0,.05,0,0-.06,0-.12,0-.19-.02,0-.04,0-.05,0ZM13.07,15.54c0,.06,0,.12,0,.19.04,0,.07,0,.11,0-.03-.06-.05-.12-.08-.19,0,0-.02,0-.03,0ZM22.24,15.61s0,.06,0,.09c.05,0,.11,0,.16,0,0-.03,0-.06,0-.09-.05,0-.11,0-.16,0ZM27.06,15.51c.09.06.18.12.27.18,0-.09,0-.19,0-.28-.09.03-.18.07-.27.1ZM27.55,15.41c0,.09,0,.19,0,.28.08.02.11-.05.16-.14-.05-.1-.08-.16-.16-.14ZM22.83,15.64c0-.06-.05-.06-.05,0,0,.06.05.06.05,0ZM23.26,15.49c.04.06.07.12.11.19,0-.06,0-.12,0-.19-.04,0-.07,0-.11,0ZM11.14,15.53s.05.09.08.14c0-.02.02-.03.03-.05-.03-.05-.05-.09-.08-.14,0,.02-.02.03-.03.05ZM29.53,15.46c0,.06,0,.12,0,.19.04-.06.07-.13.11-.19-.04,0-.07,0-.11,0ZM20.36,15.37c-.22,0-.06.29,0,.28,0-.09,0-.19,0-.28ZM7.33,15.6c0-.06-.05-.06-.05,0,0,.06.05.06.05,0ZM16.82,15.59c0-.06-.05-.06-.05,0,0,.06.05.06.05,0ZM21.86,15.57c0-.06-.05-.06-.05,0,0,.06.05.06.05,0ZM14.2,15.56c0-.06-.05-.06-.05,0,0,.06.05.06.05,0ZM22.99,15.55c0-.06-.05-.06-.05,0,0,.06.05.06.05,0ZM27.92,15.4c0,.06,0,.12,0,.19.02,0,.04,0,.05,0,0-.06,0-.13,0-.19-.02,0-.04,0-.05,0ZM28.13,15.54c0-.06-.05-.06-.05,0s.05.06.05,0ZM6.77,15.19c-.08.03-.16.06-.24.1.03.16.23.37.31.26.06-.08-.03-.32-.07-.36ZM12.21,15.46s0,.06,0,.09c.04,0,.07,0,.11,0,0-.03,0-.06,0-.09-.04,0-.07,0-.11,0ZM25.13,15.36c0,.06,0,.12,0,.19.04,0,.07,0,.11,0-.03-.06-.05-.12-.08-.19,0,0-.02,0-.03,0ZM8.78,15.34c0,.06,0,.13,0,.19.02,0,.04,0,.05,0,0-.06,0-.12,0-.19-.02,0-.04,0-.05,0ZM17.84,15.47c0-.06-.05-.06-.05,0,0,.06.05.06.05,0ZM17.95,15.47c0-.06-.05-.06-.05,0,0,.06.05.06.05,0ZM22.83,15.32c0,.06,0,.12,0,.19.02,0,.04,0,.05,0,0-.06,0-.13,0-.19-.02,0-.04,0-.05,0ZM12,15.37s0,.06,0,.09c.04,0,.07,0,.11,0,0-.03,0-.06,0-.09-.04,0-.07,0-.11,0ZM21.11,15.35s0,.06,0,.09c.04,0,.07,0,.11,0,0-.03,0-.06,0-.09-.04,0-.07,0-.11,0ZM8.62,15.35s0,.06,0,.09c.04,0,.07,0,.11,0,0-.03,0-.06,0-.09-.04,0-.07,0-.11,0ZM28.3,15.21c0,.06,0,.13,0,.19.02,0,.04,0,.05,0,0-.06,0-.12,0-.19-.02,0-.04,0-.05,0ZM11.89,15.19c0,.06,0,.12,0,.19.02,0,.04,0,.05,0,0-.06,0-.12,0-.19-.02,0-.04,0-.05,0ZM7.55,15.31c0-.06-.05-.06-.05,0,0,.06.05.06.05,0ZM18,15.23c.05.03.11.06.16.09,0-.06,0-.13,0-.19-.05-.03-.11-.06-.16-.09,0,.06,0,.12,0,.19ZM26.96,15.32s.07,0,.11,0c-.03-.06-.05-.12-.08-.19,0,0-.02,0-.03,0,0,.06,0,.13,0,.19ZM18.86,15.22s0,.06,0,.09c.04,0,.07,0,.11,0,0-.03,0-.06,0-.09-.04,0-.07,0-.11,0ZM16.23,14.99c-.13-.02-.21.04-.21.29.13.02.21-.04.21-.29ZM12.32,15.08c0,.06,0,.13,0,.19.04-.06.07-.13.11-.19-.04,0-.07,0-.11,0ZM20.68,15.08c0,.06,0,.12,0,.19.04,0,.07,0,.11,0-.03-.06-.05-.12-.08-.19,0,0-.02,0-.03,0ZM25.78,15.16s0,.06,0,.09c.04,0,.07,0,.11,0,0-.03,0-.06,0-.09-.04,0-.07,0-.11,0ZM17.3,15.2c0-.06-.05-.06-.05,0,0,.06.05.06.05,0ZM10.55,15.03c0,.06,0,.12,0,.19.05.02.18-.07.16-.19-.05,0-.11,0-.16,0ZM23.36,15.12s0,.06,0,.09c.04,0,.07,0,.11,0,0-.03,0-.06,0-.09-.04,0-.07,0-.11,0ZM24.38,14.91c0,.06,0,.13,0,.19.07-.02.1.05.16.09,0-.09,0-.19,0-.28-.05,0-.11,0-.16,0ZM20.47,15.13s.02.03.03.05c.03-.05.05-.1.08-.14,0-.02-.02-.03-.03-.05-.03.05-.05.1-.08.14ZM7.33,15.13c0-.06-.05-.06-.05,0,0,.06.05.06.05,0ZM31.03,14.97c0,.06,0,.12,0,.19.04,0,.07,0,.11,0-.03-.06-.05-.12-.08-.19,0,0-.02,0-.03,0ZM13.87,15.04s-.07,0-.1,0c0,.03,0,.06,0,.09.05,0,.11,0,.16,0,0-.12.02-.25.03-.38-.03.09-.05.19-.08.28ZM26.58,15.1c0-.06-.05-.06-.05,0,0,.06.05.06.05,0ZM9.74,15.09c0-.06-.05-.06-.05,0,0,.06.05.06.05,0ZM9.96,15.09s.02.03.03.05c.03-.05.05-.09.08-.14,0-.02-.02-.03-.03-.05-.03.05-.05.1-.08.14ZM18.97,14.84c-.08.07-.12.2-.21.19,0,.03,0,.06,0,.09,0,0,0,0,0,0,.07,0,.14,0,.21,0,0-.09,0-.19,0-.28ZM22.99,14.94c0,.06,0,.13,0,.19.04-.06.07-.13.11-.19-.04,0-.07,0-.11,0ZM7.65,15.03c0-.06-.05-.06-.05,0,0,.06.05.06.05,0ZM21.49,15.02c0-.06-.05-.06-.05,0,0,.06.05.06.05,0ZM27.11,14.99c0-.06-.05-.06-.05,0,0,.06.05.06.05,0ZM22.67,14.85c0,.06,0,.13,0,.19.02,0,.04,0,.05,0,0-.06,0-.13,0-.19-.02,0-.04,0-.05,0ZM11.84,14.91s0,.06,0,.09c.04,0,.07,0,.11,0,0-.03,0-.06,0-.09-.04,0-.07,0-.11,0ZM20.74,14.94s.02.03.03.05c.03-.05.05-.1.08-.14,0-.02-.02-.03-.03-.05-.03.05-.05.09-.08.14ZM21.06,14.7c-.06.04-.09.12-.16.1.03.06.05.12.08.19.05-.09.09-.15.08-.28ZM14.09,14.9c0-.06-.05-.06-.05,0,0,.06.05.06.05,0ZM14.95,14.74c.04.06.07.12.11.19,0-.06,0-.13,0-.19-.04,0-.07,0-.11,0ZM11.25,14.87c0-.06-.05-.06-.05,0,0,.06.05.06.05,0ZM15.59,14.87c0-.06-.05-.06-.05,0,0,.06.05.06.05,0ZM12.05,14.85s.02.03.03.05c.03-.05.05-.1.08-.14,0-.02-.02-.03-.03-.05-.03.05-.05.1-.08.14ZM7.17,14.85c0-.06-.05-.06-.05,0,0,.06.05.06.05,0ZM22.45,14.85s.07,0,.11,0c0-.06,0-.12,0-.19,0,0-.02,0-.03,0-.03.06-.05.13-.08.19ZM22.88,14.8c0-.06-.05-.06-.05,0,0,.06.05.06.05,0ZM6.05,14.54c0,.11.03.18.05.28-.04,0-.07,0-.11,0,0-.04,0-.09,0-.13-.04-.05-.07-.1-.11-.15.05,0,.11,0,.16,0ZM6.74,14.76c0-.06-.05-.06-.05,0,0,.06.05.06.05,0ZM12.59,14.7s0,.06,0,.09c.04,0,.07,0,.11,0,0-.03,0-.06,0-.09-.04,0-.07,0-.11,0ZM18,14.58c0,.06,0,.12,0,.19.02,0,.04,0,.05,0,0-.06,0-.12,0-.19-.02,0-.04,0-.05,0ZM18.91,14.7c0-.06-.05-.06-.05,0,0,.06.05.06.05,0ZM20.57,14.66c0-.06-.05-.06-.05,0,0,.06.05.06.05,0ZM13.6,14.59s-.07,0-.11,0c0-.03,0-.06,0-.09.04,0,.07,0,.11,0,0,.03,0,.06,0,.09ZM6.42,14.49c0-.06-.05-.06-.05,0,0,.06.05.06.05,0ZM13.44,14.49c-.05,0-.11,0-.16,0,0-.03,0-.06,0-.09.05,0,.11,0,.16,0,0,.03,0,.06,0,.09ZM6.58,14.39c0-.06-.05-.06-.05,0,0,.06.05.06.05,0ZM6.79,14.39c0-.06-.05-.06-.05,0,0,.06.05.06.05,0ZM23.04,14.23c0-.06.05-.06.05,0,0,.06-.05.06-.05,0ZM22.88,14.19s-.04,0-.05,0c0-.06,0-.13,0-.19.02,0,.04,0,.05,0,0,.06,0,.13,0,.19Z"/>
    <path d="M42.59,36.95c-.24.12-.56,0-.8-.18-.08-.05-.04-.29-.09-.34-.1-.09-.2.02-.3-.09-.03-.04,0-.42-.03-.45-.19-.17-.37-.07-.57-.15-.95-.4-1.89-.54-2.86-.71-.32-.06-.71-.4-1.03-.25-.04.02-.02.35-.02.38-.11.42-.08-.25-.15-.34-.3-.35-.63-.38-.91-.25-.12.06,0,.71-.12.34,0-.02.02-.38-.01-.41-.08-.08-.22-.02-.28-.05-.11-.06-.13-.05-.24-.06-.15,0-.32-.18-.48-.1-.03.02.01.38-.04.44-.05.06-.19.03-.24-.05-.05-.09-.03-.37-.04-.43-.07-.55-.23.21-.25.23-.38.32-.71-.11-1.07-.11-.27,0-.56.14-.82.13-.31-.02-.57-.22-.87-.19-.03,0,0,.43-.03.43-.41.05-.82,0-1.23-.28-.04-.03.01-.4-.03-.45-.25-.31-.65-1.04-.8.58-.17-.06-.38-.13-.53-.46-.1-.21,0-.62-.12-.44-.03.04,0,.39-.03.43-.17.13-.36.01-.53.2-.03.04-.03.36-.03.41-.08.46-.22-.3-.25-.36-.23-.42-.39-.25-.61-.26-.05,0,0,.43-.04.44-.25.06-.5.02-.74-.17-.05-.04,0-.41-.03-.45-.11-.17-.14.52-.25.37-.02-.03,0-.34-.01-.38-.07-.54-.12.22-.14.24-.21.23-.35-.57-.55-.45-.02.01.03.41-.04.43-.46.11-.94,0-1.4-.32-.07-.05-.02-.35-.02-.38-.07-.57-.12.19-.14.22-.18.21-.35-.43-.47.48-.77-.32-1.53.2-2.29-.62,0,0,0-.39-.01-.4-.23-.21-.19.37-.34,1.09-.04.18-.16-.69-.17-.75-.04-.23,0-.79-.01-.84-.11-.36-.09,1.5-.23,1.5,0,0,.01-.34,0-.38-.04-.11-.07.03-.11-.09-.08-.27-.11-1.17-.24-.65-.02.07,0,1.12-.12,1.07-.05-.02-.27,0-.34-.07-.06-.07-.02-.41-.02-.42-.17-.45-.1-.63-.19-1.3-.08-.66-.06.92-.1,1.09-.03.18-.16-.19-.19-.32-.03-.13,0-.34-.02-.42-.18-.48-.08.78-.14,1.03-.14.59-.25-.58-.38-.69-.03-.03,0,.24-.04.26-.12.1-.19-.27-.33.06-.02.05-.13.76-.21.24-.01-.07.02-.37-.03-.43-.08-.1-.22-.16-.3-.06-.06.07,0,.55-.07.4-.03-.07.03-.35-.04-.45-.06-.1-.23-.09-.29-.08-.06,0-.03.37-.03.4-.03.14-.15.32-.16.32-.53.04-1.03-.57-1.55-.37-.04.02-.01.4-.02.41-.14.16-.03-.86-.13-1.2.01.78-.04.64-.14.72-.05.04-.02.34-.03.37-.07.46-.12-.13-.13-.25-.05-.45-.1.08-.13-.22-.03-.3.04-.73-.05-.73-.03.28.04,1.01-.03,1.13-.27.45-.77-.13-.99-.18-.22-.06-.29,0-.41-.11-.23-.18-.14.36-.29.61-.14.25-.07-1.08-.09-1.37-.02-.29-.04,0-.07-.15-.02-.16.03-.35-.03-.41-.06-.06-.22.45-.24.75-.04.63.03,1.3-.13,1.07,0-.01.02-.36-.01-.4-.27-.27-.55-.29-.82-.52-.04-.03,0-.42-.03-.45-.23-.25-.14.41-.27,1.14.03-.97-.04-1.56-.21-1.57-.1,0-.09.42-.15.72-.02.09-.09-.2-.11,0-.04.65.03,1.38-.15,1.09,0-.01.02-.37,0-.39-.17-.14-.19.54-.38.62-.15.06-.41-.35-.57-.42,0-1.09-.15-.84-.22-.09-.11-.03-.23.01-.33-.09-.04-.04-.01-.35-.02-.39-.07-.54-.12.2-.14.23-.25.28-.46-.28-.7.27,0,.02-.02.78-.09.22,0-.04.08-.38-.04-.41-.11-.03-.33-.43-.49-.08-.04.08-.13.7-.21.22-.01-.07,0-.28-.01-.4-.05-.39-.07.38-.13-.27-.06-.65-.17-1.14-.33-.69,0,.01-.04.62-.09.61-.08-.02-.19-.14-.28-.14-.04,0-.01.38-.02.39-.27.21-.46-.12-.75-.27-.05-.03-.2.49-.31.08-.11-.45,0-2.3-.25-1.86-.1.18-.24,2.53-.42,1.31-.36.3-.7-.32-1.06.11-.02.02-.07.67-.11.67-.06-.01-.09-.32-.13-.34-.17-.09-.33.17-.49.13-.06-.01-.04-.33-.12-.35-.07-.02-.12.4-.23.2-.08-.15-.15-1.01-.25-1.11,0,.84-.07.82-.2,1.05-.02.04,0,.34,0,.37-.05.15-.09-.09-.13.07-.01.04-.01.33-.02.38-.07.42-.19-.22-.22-.34-.08-.43-.12-.05-.18-.22-.06-.17.03-.38-.04-.48-.15-.21-.34-.16-.49-.18-.06,0-.02.38-.03.39-.12.1-.25-.31-.32.45-.09-1.97-.07.19-.25-.2-.01-.03-.03-.97.02-1.1.05-.14.13.15.21-.06.02-.05.12-.93.13-.98.11-.41.12.98.13,1.06.06.83.19-.12.22-.18.15-.3.27-.1.4-.32.08-.14.09-1.05.15-1.02.21.09.29,1.37.48.26.04-.24,0-1.23.15-.45,0,.05.12.77.19.31,0-.06,0-.35.02-.37.07-.16.12.07.2-.04.08-.11.17-.28.27-.18.05.06.12.6.15.73.07.38.15-.24.2.22.05.47-.04,1.17.08,1.47,0-.76.01-1.53.02-2.29.27.03.53.27.79.24.03,0,0-.41.03-.43.15-.06.28.23.43.11.12-.09.25-.52.38-.63.08.87.26.57.4.65.05.03.04.26.08.33.13.28.07-.49.1-.61.15-.51.16,1.22.34,1.17,0,0,.12-.92.14-.98.1-.37.02.32.08.39.11.12.19.35.33.07.04-.08.13-.66.21-.21,0,.06,0,.36.01.38.15.3.15-.66.23-.99s.21.34.24.53c.07.49-.05.21-.06.26-.04.58.05.48.12.53.01.94.11.88.07.05,0-.09-.06,0-.07-.05.06-.92.17-1.04.29-.18.06.4,0,.87.18.7.08-.08.05-.72.12-.9.16-.4.36.2.52.11.06-.03,0-.39.04-.42.11-.1.2.17.31.03,0-.01-.01-.38.02-.39.25-.04.47.19.74.2.13,0,.36-.2.49-.16.23.07.51.61.71.48.13-.08.1-.45.15-.71.11-.49.29.39.32.52,0,0-.11.09-.05.28.03.4.05-.28.05-.28.02.09.24.17.28.1.02-.04.01-.39.02-.4.29-.31.59-.4.89-.24,0,0,0,.4,0,.41.17.17.28-.31.43-.59.14-.29.26-.19.34.49.11-.08.26.21.35.39.09.18.1-.58.11-.6.24-.48.38-.05.64.02.12.03.36-.08.49-.16.1-.07.16.11.26,0,.01-.02,0-.36,0-.37.11-.41.05.43.08.57.08.54.13.83.26.57.03-.06.12-1.26.18-1.33.07-.09.05.34.12.24,0,0,0-.27.05-.26.22.05.46.21.69.18.03,0,0-.42.04-.43.21-.05.45-.03.65.16.05.05.02.34.03.43.07.53.16-.24.18-.25.38-.37.67.33,1.06,0,.02-.02.18-.84.26-.14,0,.05.08.77.14.28,0-.03-.04-.4.04-.37.08.04.2-.21.31.2.03.13.11.85.22.28,0-.04.16-1.34.22-.44,0,.15,0,1.1.12.61.02-.09-.02-.31.04-.44.09-.2.22.05.33-.37.02-.07.11-.72.17-.23.01.08,0,.39.03.43.17.17.35-.04.52.18.06.08.03.59.09.73.06.14.19.27.26.04s0-1.05.09-1.12c.44-.28.87.2,1.31.27.06.01.01-.28.11-.29.35-.02.96-.3,1.27.33.24.5-.06.88.12,1.08.09.1.19-.85.21-.88.21-.3.36.12.55-.01.04-.03,0-.41.03-.43.11-.07.24.11.35.07.05-.01.04-.31.09-.29.11.05.2.17.31.45,0,.03-.06.39.02.4.13.02.29.29.44.01.04-.08.05-.76.14-.29.02.1,0,.9.11.21.02-.12.21-1.06.3-.45.02.16.09.82.14.72,0-.02-.02-.38.02-.41.16-.12.32-.08.48-.19.04-.03-.02-.4.04-.44.18-.09.39,0,.57.12.06.04.02.35.02.39.07.55.12-.19.14-.23.15-.26.27.09.41,0,.04-.02.01-.38.02-.41.08-.31.02.33.07.4.14.2.3.17.44.12.05-.02,0-.43.04-.44.28-.07.57-.03.85.19.05.04.02.36.03.43.07.5.18-.18.21-.25.11-.3.16-.02.26-.07.49-.26,1.09-.07,1.56.04.6.15,1.07.45,1.64.37.04,0,0-.42.03-.43.41-.1.81.06,1.21-.06.03,0-.01-.41.04-.43.11-.06.25-.04.36.09.05.06-.02.4.04.46.13.13.26.16.39.09.06-.03-.03-.43.04-.44.49-.04.98-.11,1.47.42.03.04.06.86.14.7,0-.23,0-.5,0-.74.72-.13,1.43.15,2.14.2.03,0-.02-.44.04-.43.34,0,.67-.11,1.02.32.03.04.02.81.12.69.02-.02.17-.12.21-.29,0-.03-.02-.38.03-.39.29-.05.59.03.87.25.05.04,0,.42.03.45.23.2.49-.09.71.26.15.23.09.89.17,1.54.01.09.1.11.11.48.01.95-.03,1.99-.01,3.01,0,.22.13-.02.05.51,0,.04-.09.21-.12.39-.02.12.01.51-.02.67-.03.16-.07-.16-.12.02-.05.19-.03.63-.13.68ZM14.17,30.87c.08.37.09-.98,0-.66,0,.02,0,.64,0,.66ZM4.24,31.09c.11.59.18-.28.1-.74-.08-.46-.14.56-.1.74ZM3.13,31.52c.13.47.15-1.44.01-1.05,0,.02-.02,1.03-.01,1.05ZM42.46,31.38s.07.04.07.02c.04-.43-.1-.46-.07-.02ZM2.03,31.99c.04.26.15-.04.1-.36-.04-.26-.15.04-.1.36ZM18.45,32.31s.05.04.05-.08c0-.37-.07-.26-.05.08ZM.15,32.01c.28.07.45,1.65.14,1.47-.05-.03.12-.5.05-.64-.13-.26-.21.73-.34.2-.02-.1.13-1.03.15-1.03,0,0,0,0,0,0ZM14.22,32.49s.07.03.07.02c.04-.43-.1-.46-.07-.02ZM21.22,33.14s.16.07.16.04c.08-.7-.23-.77-.16-.04ZM9.78,33.48c-.07.43-.16.48-.22-.06.07.03.14.03.22.06Z"/>
  </g>
</svg>