<?xml version="1.0" encoding="UTF-8"?>
<svg id="Layer_2" data-name="Layer 2" xmlns="http://www.w3.org/2000/svg" viewBox="0 0 122.85 121.82">
  <defs>
    <style>
      .cls-1 {
        fill: #fff;
      }
    </style>
  </defs>
  <g id="Layer_5" data-name="Layer 5">
    <path class="cls-1" d="M49.03,121.67c-5.72-.05-11.64-.1-17.62-.2l-.92-.08c-4.56-.69-11.58-.49-18.65-4.05C4.25,113.88.13,104.54.02,98.12c-.14-2.53.4-2.32.44-3.02,0-.06,0-.11.01-.17.12-1.46-.39-2.42-.35-3.49.2-5.55.3-10.7.49-16.14.19-5.58,1.65-2.95,2.01-4.88.7-3.8-1.21-.57-1.63-2.06.12-4.35.33-8.73.55-13.09.18,1.06.35,2.13.51,3.2.04-1.9.34-4.61.83-1.44.14-.7.3-1.36.43-2.08-.69-.2-.75-3.56-1.16-3.87-.41-.31-.32,1.59-.35,1.57-.51-.13.19-7.87.24-8.43.15-1.47,1.01-.18.95-1.44-.1-2.17-1.85-.71.47-3.65-.76-1.15-.37-1.27-.32-2.73,0-.2-.43-.04-.44-.13-.33-2.23.49-.52.53-.53.75-.2.41-2.6.47-3.09.18-1.36.35-2.64.51-3.86.62-4.89,1.71-9.09,4.4-13.96.64-1.38,3.25-5.33,4.54-6.19,1.18-.9.95.04,1.68-.25.1-1.73,1.1-2.75,3.96-3.19.56-1.28.73-.59,2.55-1.39,1.47-.67,4.38-2.28,6.29-1.26-2.12-.03-1.91.4-4.14,1.06-.37.11-2.54.62-4.32,1.6-1.8.95-3.14,2.23-2.62,2.46.5.22,2.43-1.41,2.59-1.34.73.26-.21,1.41-1.31,1.83.19-.25.45-.53.68-.78-2.7.84.36,1.97-2.64,1.31-.38-.06-.47-.36-1.01-.31,0,.15.62.05.29.38-.32.33-1.38.51-1.14.96.34.63,1.56-.82,1.72-.86,0,0,0,0,0-.01,1.21-.47-.8,1.17-.82,1.33-.27.86.33.74-.2,1.8-.3.6-1.42,1.78-1.7,2.33-.28.53.52-.04.35.33-.16.36-.65.64-.82,1.08-.07.19.26.37.22.46-.37.95-.73,0-1.13.86-.28.58-.37,2.73.36,1.53-.19.64-.37,1.26-.52,1.9.23-.36.45-.73.71-1.05-.6,1.08-.14,1.81-.29,2.53-.14.73-1.04,1.24-.82,2.15.48,1.88.88-2.51,1.28-2.94.11-.18.46.75.45.86-.07.53-.63,1.05-.69,1.47-.22,1.5.25,2.49.29,3.91.02.43.04.87.08,1.32.38,5.6.67,12.16.79,17.27.05,2.09-.59,3.34-.57,4.28.04,2.19.6,2.46.63,4.37.04,2.84-.44,6.85-.55,9.22-.07,1.65.46,3.13.47,3.56.18,5.94.15,13.17.15,18.08,0,2.32-.61,3.41-.59,3.88.07,2.06.59,1.52.53,3.17-.03.92-.52,1.05-.54,1.18-.09.57.05.88.2,1.17.14.23.29.44.31.76.23,3.81.74,6.72,2.52,8.49.13.13-.07.33.03.4.46.3.55-.21,1.01.09.97.61,2.19,1.25,3.77,1.76.16.05.13.43.51.53.38.1.75-.17,1.38-.03,1.64.38,3.38,1.01,5.5,1.25.35.04.84-.36,1.38-.3.84.1,1.91.31,3.07.59l-.81-.07c1.01.13,2.02.26,2.78.28,4.72.13,9.11-.06,13.56,0,1.06.01,1.97.43,2.52.45,1.24.03.31-.36,1.55-.35,10.19.08,20.4.29,30.67.14,4.03-.06,8.91-.56,12.76-.6.07,0,.14,0,.2,0,1.24.03,1.53.49,2.46.4,1.71-.22,1.89-.94,3.48-1.42,1.24-.39,2.85-.27,3.98-.95,1.1-.68,1.18-1.55,2.07-2.48.73-.76,1.88-1.76,2.38-2.87.83-1.77,1.21-4.02,1.03-5.61l-.02-.46c-.3-13.83-.4-27.58.02-41.56.18-6.03.09-12.74.75-18.97.06-.58.71.31.57-1.57-.07-.9-.52-2.13-.63-4.04-.01-.2-.02-.41-.03-.62.07-10.35-5.14-18.69-15.82-18.62-2.16-.02-4.31-.02-6.44.02-21.13.35-43.02,4.94-61.38-1.77-.9-.33-.41-1.95.13-2.41.5.33.96.72,1.49,1.09.66-2.02.54-1.49,2.99-1.31,1.51.11.3-.75,1.11-1,1.04-.32,5.93-1.31,4.99.02.3-.23.58-.45.88-.68,3.54-.2,6.97-.54,10.43-.92.6-.07.63-.49,1.24-.55,1.66-.18,2.97.09,4.68.05.93-.02,1.06-.51,2.27-.48,1.21.03,1.19.69,2.84-.03-1.08-.82,3.73-.23,5.45-.28.25,0,2.29-.74,3.37-.66,1.09.08,2.74.55,4.42.29.79-.13,1.27-.7,2.12-.73.6-.02,1.32.49,2.07.51.76.02,2.39-.4,2.69-.41,1.08-.03-.11.33.63.35,3.58.08,7.73.27,11.25.03.43-.03-.17-.45-.11-.47,2.94-.52,1.37.03,2.17.41.13.06.38.1.72.13,1.95.05,6.44.52,6.63,0,0,.93,1.57.61,1.96.72,1.47.37.92,1.02,2.35,1.33.53.13-.22-.78.31-.54,1.33.63,2.09,1.98,3.57,3.1.36.28.71.05,1.35.57.69.48,2.75,3.27,2.22,1.57.96,1.98,1.5,2.05,2.81,4.08.32.53.18,1.49.89,2.53.24.35.79.1,1.05.69.6,1.38.47,2.87.88,4.62.71,3.02,1.38,6.19,1.32,9.35,0,.24-.01.49-.03.73-.04.85-.64.65-.66,1.88,0,.19.52,1.67.47,2.54-.03.51-.4,3.19-.43,3.73-.05.9.54,1.05.42,1.54-.33,1.42-1.19.28-.01,1.98-.65.56-.58,1.55-1.39,1.87.88.58.04,1.33.33,2.45.29,1.13,1.99,2.04.17,2.31.22.53.6,2.76.63,3.13.08,1.11-.43.52-.36,1.35.01.15.36,0,.32.94-.02.62-.04,5.17-.09,5.44-.54,3.1-.34-1.69-.72-2.36.1-.12.2-.24.29-.36.16-1.37-.62-.59-.8.03-.18.62.17,1.78-.09,2.3-.13.26-1.06.1-.95-.68-.29.83-.59-.3-.86.02-.3.36-.39,4.1.13,4.12.02-.7,0-1.57.02-2.27.9-.92,3.96,1.88,2.74,4.46-.89,1.87-1.59-1.21-.85,3.21.04-.68.12-1.25.16-1.87.67-.07-.07.93.15,1.45.1.25.58-1.28.74.05-.96,1.14,0,2.02.02,3.93-.17-.53-.34-1.06-.51-1.6-.7,3.23-.93-4.28-1.32,2.01-.03-.76-.02-1.51-.07-2.27-.35.37-1.39-.22-1.61.11-.57.87-.23,2.15-.28,3.2-.02.46-.3.18-.3.21-.03.63.38.49.4,1.05.03.7-.36,2.72-.32,3.04.12.84.93-.56.99-.48.39.54.07,1.64.58,1.58-.35-2.66.1-10.29.95-3.38.83-1.91,1.97-1.35,2.06,1.39.08,2.27-.38.8-.88,1.98-.06.15-.3,3.19.05,3.35-.82-.12-1.54.86-2.39.2-.12-.1-.07-1.34-.75-.91-.34.22-1.08.84-1.52.74.3.25.64.52.96.78.09,1.87-.24,2.14-.8,3.16.24-.05,1.22-.99.92.44-.02.07-.37.14-.55.87-.35,1.47-.46,1.77-1.5.65.59,3.05-.57,3.7-.23,6.83,1.34-.63,1.01-1.72.75-4.58.32-.12.63-.18.96-.31-.72,3.81-.65,1.93,0,4.08.09.3.07,1.41.22,2.06v.09c.14.41.33.67.69.28.05-.05.08-.17.1-.33v-.03c.1-.56.15-1.58.41-1.42.04.02.11.78.14,1.42.06.43.06.85.03.92-.55,1.17-1,.66-1.27.71-.32.04-.2.54-.73,3.5-.03.16.33.32.28.66-.09.63-.52.48-.62,1.04-.09.53.14,1.53-.76,2.01-1.59.76-.48-2.39.35-3.68-.57-.47-1.49,1.84-3.02,3.78-1.47,2-3.58,3.54-3.82,3.76-2,1.92,1.63-.83,1.96-.83.16.05,1.54,1.53,1.49-.28-.04-.51-1.41.19-.96-.57.41-.76.62-.13.69-.14.26-.07.67-.93.8-.97,1.05-.37,1.96-.38,2.13-.11.18.24-.44.85-2.33.94-.24,1.29,2.24-.15,1.65,1.27-.81,1.81-2.54,2.02-2.71,2.12-2.49,1.26.92.52-2.21,2.03-1.76.72,1.98-2.1-1.68,0-3.2,1.48-1.32,1.13-1.16,2.22.03.25-1.85,1.28.8.15-.03-.28-.03-.67.03-.97.68-.07,2.36.6,2.74.43,1.78-.78,1.26-1.34,2.68-1.35-1.2-.24.18-.59.44-1.07.85-1.78-.98-.16,2.41-2.56-.67.14-1.29.21-1.93.27.3-.34.6-.69.87-1.06,1.18.1,2.56-2.18,1.98.33,1.91-2.23,2.11-3.53,1.68-4.35-.08-.16.02-.56.17-1.03-.23.02-.86-.09-.91-.19-.42-.82.98-1.45,1.32-1,.11-.32.2-.58.24-.67.21-.57.32.69.58.24.1-.14.35-1.91.5-1.91.55-.03.51.67.53.64-.02-.05.28-.71.58-3.87-.93-.09-.83,2.67-1.83,1.88-.91-.68.11-1.85-.57-2.32v.03c-.09-.07-.22-.12-.39-.16.22-.11.41-.16.67-.26-.59-2.16.54-2.17.79-2.83.49-1.27.42-7.13-.57-1.87-.1-.78-.14-1.54-.23-2.32,2.03-.18,1.22.3,1.53-3.39.07-.82.96-1.07-.1-1.87,1.04.11.41-2.29.54-2.52.82-1.44,1.96,3.89.12,4.58.72.9-.23.89-.1,1.9.18,1.45.37,1.66-.33,3.37.99,1.69.43-6.63,1.74-1.58.31,1.18.58,3.71.82,6.94v-.35c.89,6.47-2.11,15.38-8.87,20.35-6.62,4.99-13.87,5.65-17.63,5.93-.57.04-1.09.07-1.52.1-12.61.72-19.16.92-30.39.86-1.11,0-9.46.04-7.72-1.09.26-.16,3.84-.57.77-1.48.63.53-1.19.86-1.34.92-3.49,1.23-1.49,1.56-6.97,1.52ZM32.95,111.28c7.1.39,1.9-.46,3.4-2.16-.92-.02-1.81-.04-2.74-.07.24.11.47.22.72.34h0c-.47.63-.94,1.26-1.38,1.88ZM13.43,18.11c.1.3.21.6.32.91-.37.65-.71,1.34-1.01,2.05-.12-.13-.24-.27-.35-.4.3-.88.65-1.72,1.04-2.55ZM115.05,99.17c.85-1.03-.24-1.11.38-2.56-.84.14-1.66.27-2.49.36.01.98.28,1.29-.19,2.32.29-.06.59-.12.88-.18,0-.2-.03-.42-.04-.61.81-.17.46,1.79,1.46.69,0,0,0,0,0,0ZM115.06,86.04c.11-.72.51-3.56.17-3.95-1.16-1.31-.43,6.71-1.46.79-.16.03-.32,0-.49,0-.06,1.08-.11,2.15-.15,3.24.64-.06,1.28-.02,1.92-.09ZM58.72,111.53c1.11.1,6.36-.43,4.65-1.17-.5-.22-2.85.83-3.74.78-.58-.03.07-.61-1.07-.4.05.25.08.54.17.8,0,0,0,0,0,0ZM56.63,114.88c1.15-.1,2.3-.22,3.45-.32-.84-.66-2.49-.25-2.58-1.18.31-.07.62-.14.94-.2.24.2.47.41.71.61.99-.5.39-.75,2.23-.6-1.1-1.4-1.3-2.15-4.45-.76.6-.76.05-3.23-1.69-1.48-.33.32,1.03.56,1.04.61.2.65-.55,1.06-.33,1.68.1.28.93.28,1.05.67.06.19-.74.72-.36.97ZM54.39,111.56c.35-.39-.83-1.33-1.89-1.15-1.64.28.94,1.19,1.89,1.15ZM13.43,18.1s0,0,0,0c0,0,0,0,0,0h0ZM114.61,89.74c-.33-.85-.29-2.1-.82-2.01.1-.42.21-.82.31-1.24-.16,0-.32.01-.48.02-.1,1.23-.2,2.47-.3,3.71.43-.16.86-.3,1.29-.48ZM114.98,76.25c.05-1.56-.67-.25-1.02-.59-.35-.34-.07-1.73-.57-1.57-.02.91-.04,1.88-.06,2.8.54-.24,1.1-.41,1.64-.64h0ZM11.64,101.87c.15.79-.51.8.81,1.88h0c-.36-1.5-.55-3.36-1.24-5.08-.4,1.19.24,1.93.44,3.2ZM112.53,101.54c.26.53,1.26-.91.97-1.4-.45-.74-1.33.67-.97,1.4ZM6.77,60.68c-1.35-1.61-2.86,1.43-2.21,4.62.06.28.49-1.78.75-1.17.03.06,0,1.19.18,1.47.19.28.62-.01.81.44.32.8-.28,2.62.14,3.22.06.08.64-1.04.66-1.12.35-1.16-.41-2.27-.41-2.45-.02-.92.57-.78.71-1.01.26-.44,0-1.21.02-1.27.53-1.4.37,1.79.59,2.23.58,1.16,1.12.09,1.45,2.87.03.26-.01,3.43.67-.56,1.38,7.83.8-3.93.49-5.21-.14-.59-.71.3-.97-.06-.59-.82-.69-2.21-1.51-2.08-1.74.27-.6,2.09-.9,3.35-.38-.13-.74-.18-1.11-.43.5.38.75-2.74.65-2.85h0ZM8.72,80.51c-.53,1.75.57,1.65-.06,3.24.98,1.42.92-1.36.98-1.71.25-1.47,1.32-1.47,1-2.97-.63.52-1.28.94-1.91,1.44ZM9.2,65.21c.55,1.18.55-.93.65-1.02,1.13-.93.9,5.37-.65,1.02ZM65.56,113.76c.6.04.22-.49.75-.65.53-.16,2.33.3,2.28-.03-.05-.33-3.35-1.19-.03-1.38-.11-.19-.07-.33-.13-.49-.91,0-1.83-.01-2.74-.02.5.54,1.01,1.1,1.49,1.62-.51.43-.8-.12-.83-.12h0c-.95.04-2.13.99-.79,1.08ZM19.47,109.87c-.53,1.24,1.12.16,1.65.1.54-.04,1.16.58,1-.04-.76-.53-2.59-.18-2.65-.06,0,0,0,0,0,0ZM8.7,90.07c.32,1.45.67,1.24.27,3.04.32-.07.65-.14.97-.21,0-1.43-.93-1.36-.55-2.99.06-.27.81.31.57-.92-.4.34-.84.73-1.26,1.08ZM9.97,97.12c-.14-1.48-2.8-2.73-1.47.19.21.43,1.6.92,1.47-.19ZM49.95,113.73c2.89.1-.4-.35-1.13-.76,6.69-.25-.75.1-1.41-1.24-.81.37-2.38,1.22-.66,1.47.71.1.45-.29.49-.29,1.3.11,1.15.76,2.71.82ZM8.66,77.45c.02.11.47-.06.56.28.09.35-.23,1.14.05,1.21.28.08.5-1.5.29-1.98-.2-.48-1.07-.5-.9.48ZM7.53,88.5c.32,1.43,1.98-.92,1.97-1.23-.08-2.74-1.45,1.3-1.97,1.23ZM43.23,116.46c3.5-.79.95-2.29-1.2-3.19-.29.17-.58.35-.87.52,1.31-1.06,3.61-2.1-1.48-1.23,2.79.3.44.55.42.61-.34,1.98,3.81,1.12,3.12,3.29h0ZM9.14,72.77c0-1.52-.34-5.44-1.21-3.61.4,1.21.81,2.4,1.21,3.61ZM100.31,115.75c1.35.29,2.58.04,4.14-.45-1.61-.3-.7-.63-.28-.94.62-.46-1.06.05-1.08,0-.14-.68.89-1.01-1.51-.45.54-.35,1.08-.73,1.58-1.11-1.79.43-2.32.04-3.5-.32,1.3,1.14-.27.58-1.54,1.36-.66.4,1.46,1.79,2.2,1.91h0ZM46.82,116.77c.36-.24.68-.56,1.03-.83.38-.02.76-.04,1.14-.06.04.21.08.43.13.64.49.07.3-.23.45-.26,0,0,0,0,0,0,2.13-.37,2.99-.32,4.64.35,0-.65.01-1.3.02-1.95-.37.06-.75.12-1.12.17-.2.35-.41.69-.61,1.04-.43-.2-.86-.39-1.28-.59-.34.12-.77.25-1.07.37-1.7-1.83,2.2-.56,2.24-1.31.02-.48-3.89-.5-4.48-.18-.08.05.75,1.41-.68.69-.22-.11-.27-3.04-1.85-.69-.22.33.52,2.16,1.43,2.6ZM61.12,117.84c-2.21-1.88,5.97.13,2.44-1.43,1.01-.86.82-.85-.19-1.61-.09-.07.61-.3.55-.33-.95-.42-2.08-.21-2.09-.97-.26.04-.5.07-.75.11,1.06.73-.64,1.2-1.29,1.81-.3.28.39.36.13.6-.09.09-1.06-.09-1.1.16-.09.57.52,1.35,1.53,1.77h0c.26-.03.51-.08.76-.12ZM13.68,111.98c.15-1.13-.94-2.05,1.79-1.13-.03-.25-.07-.49-.09-.73-.41-.2-.81-.41-1.2-.65-1.43.9-2.3.1-2.62-.5-.33-.6-.29-1.02-.39.39-.02.31,1.11.94-.25.6,0,0,0,0,0,0,1.47,1,1.83.77,2.77,2.02ZM24.51,114.39c3.89-1.67-4.81-1.94-3.51-1.22.12.12,3.91.24,3.51,1.22ZM4.17,94.54c0,.14,0,.27.02.39.16,1.4,1.19,1.4,1.57,1.24.31-.14.13-.82.06-1.24-.02-.12-.04-.22-.02-.26.22-.47.37.52.67-.08.1-.21.52-3.09.47-3.22-.28-.75-1.25.34-1.36.13-.36-.71.14-1.6-.37-1.81-1.1-.42.05,1.28.07,1.6.05.9-.57.77-.69,1.46-.12.67.09,1.08.04,1.68-.01.19-.44.03-.45.11ZM7.08,99.99c-1.21-1.62-1.32,2.95-.81,3.43,1.07,1.24,1.27-2.73.81-3.43ZM55.59,114.98c-1.58.63,2.1,1.18,3.15.93-.19-.27-2.61-1.15-3.15-.93ZM42.27,116.44c1.47-.18-.46-1.66-1.66-1.66-.73.94-.05.76.74.82.79.05-.22.98.92.84ZM5.27,76.6c-.02.31.76,5.35,1.1,2.46.02-.22-.11-3.77-.25-4.03-.3-.54-.8.74-.84,1.56ZM35.27,117.74c.81-.81,1.53-.79.86-1.77h0c1.96-.26,2,1.72,2.42,1.69,1.49-.12.11-1.56,1.03-2.01-2.16.4-1.51-.54-3.15-.63-.34-.02-1.85.52-2.05.87-.21.35.49,1.43.89,1.85ZM5.07,69.46c-.32,1.71,1.02,3.26,1.23.9.11-1.15-1.04-1.95-1.23-.9ZM119.78,83.58c-.35.26-.7.53-1.05.81-.08-.63-.17-1.26-.26-1.89.11.5.22.99.33,1.49.12-1.19.76-1.72.98-.42h0ZM120.04,41.56c.34-.53-.71-1.56-.79-1.43-.61.98.32,2.17.79,1.43ZM57.91,118.17c1.96.16.62-1.55-.58-1.68.74.33-.53,1.59.58,1.68ZM119.96,56.34c-.15.18-.29.35-.44.55.2-.62.34-.73.44-.55ZM3.76,77.39c-.13.29-.24,2.52-.08,2.81.34.62,1.28-1.09.99-2.12-.03-.12-.78-.98-.91-.69,0,0,0,0,0,0ZM120.43,80.93s-.03,0-.05,0c.02,0,.03,0,.05,0ZM102.59.69s.01.06,0,.08c0-.03,0-.05,0-.08ZM2.29,93.03c-1.62.7-.76,2.45.04,1.1.04-.08-.05-.92-.04-1.1Z"/>
    <path class="cls-1" d="M38.97,37.6c5.59-6.4,14.69-10.96,23.32-10.91,1.05,0,.98.51,1.27.58.07.02.13.03.2.03.67.06,1.13-.42,1.66-.36,2.81.35,5.41.9,7.98,1.89,2.62,1.07.81,2.13,1.55,2.81,1.37,1.37.74-1.1,1.59-1.24,1.95.97,3.76,2.23,5.38,3.64-.54-.14-1.07-.27-1.6-.4.76.52,1.63,1.52.09,1.12.19.3.35.62.54.93.5-.57,1.82.34,2.2.1.39-.25-.39-.74-.37-.76.42-.44,2.82,2.61,2.91,2.87.39.62-.7.83-.25,1.21.76.65,1.72-1.08.76,1.59.96-.12.68.19,1.06.76.05.07.37-.27.41-.25.92.62-.27.51-.3.55-.57.56.36,1.21.43,1.45.84,2.91,1.18,4.96,1.95,7.71.18.58,1.02,2.3,1,2.92,0,.6-.64.42-.84.77,1.46.18,1.72.68.96,1.89,1.06.28.25.33.52,1.09.23.62,1.5,1.78.46,2.53.09-.85-.41-.75-.75-1.66-.07-.31-.52-3.49-1.53-3.05-.51.21.14,1.13.04,1.18-.55.3-1.32-.15-1.16-.66.14.1.28.22.41.34.54-1.22-2.08.04.16-1.23.27-.16.59-.18.86-.42-.14,0-.41.27-.51.1-.1-.17.43-.66-.09-.59-.75.1-.3.78-.33.84,0,0,0,0,.01,0-.29.57-.55-.45-.64-.48-.53-.21-.84.08-1.33-.27-.28-.2-.33-.87-.47-1.09-.14-.21-.37.25-.49.12-.12-.13.08-.4-.07-.56-.06-.06-.44.07-.47.04-.28-.34.6-.36.42-.7-.12-.23-1.14-.7-1.15-.1-.17-.22-.32-.43-.48-.65-.04.2-.05.38-.12.58,0-.52-.73-.45-.89-.7-.17-.24.45-.85-.06-.97-1.07-.23.05,1.12-.02,1.38-.02.1-.74.07-.77.04-.16-.15.15-.58.06-.72-.33-.49-1.03-.52-1.41-.92-1.27-1.38-2.93-2.87-4.24-3.9-.48-.38-.33-1.14-.57-1.31-.55-.39-.98.04-1.45-.26-.7-.45-1.45-1.5-2.05-1.93-.41-.3-1.06.04-1.18,0-1.68-.55-3.71-1.1-5.14-1.28-.67-.09-.94-.75-1.08-.75-.63.04-.49.6-.98.52-.26-.04-.31-.57-.34-.59-.12-.07-.21,0-.28.09-.12.16-.2.43-.35.45-1.39.16-2.79-.13-4.19.14-.1.02-.16-.28-.23-.25-.26.14-.01.58-.29.69-.57.23-1.18.35-1.81.52-.06.02-.23-.34-.37-.29-.14.06-.1.44-.32.52-.57.19-1.32.05-1.91.34-.1.05.02.53-.12.6-.44.23-1.31.27-1.68.51-1.23.79-2.06,1.89-2.99,2.87-.22.23-.73.15-.85.27-.27.27.24.33,0,.62-1.97,2.38-3.56,5.17-4.2,8.26-.26,1.22,0,2.75-.13,3.92-.02.14-.07.25-.15.34-.19.23-.48.36-.48.61.02.64.76.72.89,1.34.11.5-.54,1.2-.39,1.74.15.54.9.63,1.14,1.19.19.46.09,1.23.33,1.73,2.22,4.58,5.8,8.04,10.07,10.66,1.54.94,3.43,1.41,5.21,2.37.17.09-.2.74.4.67.33-.04.82-.59,1.53-.58.29,0,.59,0,.89,0,3.9.05,8.54-.24,11.89-2.91,2.69-2.14,3.87-5.63,4.83-8.43,1-2.91,2.13-5.09,5.77-8.22.35-.31,2.09-.15,2.58.07-.35.19-.77.36-1.18.54,2.15.32,1.6.27,1.34,1.21-.17.58.79.19,1.03.53.32.44,1.06,2.64-.29,2.01.22.16.44.32.65.49-.06,1.49-.1,2.99-.22,4.54-.02.27.4.44.37.72-.08.76-.58,1.18-.86,1.88-.15.38.29.66.01,1.13-.28.47-.89.12-.59,1.14,1.02.01-.65,1.6-1.06,2.24-.05.09.05,1.32-.34,1.67-.38.35-1.24.62-1.54,1.38-.14.36.17.94-.08,1.26-.18.22-.8.09-1.07.32-.26.23-.51,1.08-.61,1.18-.36.36-.2-.3-.47-.08-1.3,1.06-2.94,2.04-4.19,3.12-.15.13.32.37.31.4-.9,1.2-.57.31-1.1.15-.49-.13-2.69,1.23-2.41,1.94-.48-.86-.71.06-.84.15-.51.33-.72-.5-1.15-.05-.16.17.43.56.21.62-.55.17-1.33-.54-2.05-.41-.18.03-.11.44-.42.52-.31.09-1.72-.07-.91.62-.96-.48-1.02-.07-1.95.09-.24.04-.65-.56-1.11-.28-.16.09-.06.73-.31.77-.59.1-1.22-.5-1.95-.47-.75.03-1.51.18-2.29.28-.67.08-1.34.11-2,0-.39-.07-.24-.71-.8-.77-.08,0-.82.48-1.2.37-.23-.06-1.38-.64-1.6-.72-.38-.13-.58.47-.78.3-.56-.49.17-1.26-.88-.22-.08-.74-.53-.79-.43-1.65-.5.83-.57-.12-1.13.02-.56.15-1.58,1.72-1.03-.17-.3.15-1.39.16-1.56.11-.5-.12-.04-.51-.41-.6-.07-.02-.15.35-.53.14-.25-.12-2.07-1.1-2.15-1.22-.91-1.2.84.07,1.29-.17,0,.12,0,.24,0,.35.47.43.53-.47.38-.77-.15-.29-.77-.2-.83-.55-.03-.17.52-1.01.75-.75-.15-.44.41-.5.44-.82.02-.34-1.19-1.18-1.49-.72.23.17.54.33.77.5-.12,1.04-2.9,3.23-3.17,1.46-.14-1.26,1.39-1.08-.62-1.56.21.21.36.43.56.62-.4.6-.29-.3-.61-.25-.16.02.09.84-.49.62.21-1.13-.72-.54-1.4-1.09.3.02.6.03.9.03-.61-1.46,2.03.38.24-1.64.26.18.5.39.78.55.12-.39,1-1.11,1.04-1.37.12-.69-.49-.72-.76-1.04-.12-.14.16-.29.15-.3-.16-.19-.41.17-.59.05-.23-.16-.49-1.01-.61-1.07-.32-.15-.55.85-.61.88-.45.14-.51-.42-.89-.03.98.53,3.06,2.99.29,1.72,0,1.2-.99,1.98-1.97,1.16-.79-.68.03-.55.04-1.31,0-.09-.72-1.26-1.04-1.07.7-.54,1.02-1.36,1.89-1.73.13-.06.42.36.85-.25.22-.31.66-1.01,1.04-1.28-.31.14-.65.3-.97.44-.53-.49-.32-.8-.08-1.47-.19.16-.81,1.1-.89.46,0-.03.29-.28.28-.62-.02-.68.03-.82,1.17-1.14-1.15-.53-.23-1.41-1.09-2.16-1.14.89-.63,1.1.17,1.81-.26.23-.53.43-.79.66-.13-1.62.2-.96-.82-1.31-.25-.08-.6-1.12-1.28-.35-.16.18.2.78-.15.89-.07.02-.63-.65-.58-.76.61-1.35,2-.24.59-2.29-.04-.06-.43.09-.54-.02-.2-.19.25-.38.06-.55-.19-.16-.91-.24-.46-.76.83-.93,1.88.16,1.6.94,1.32-.35.02-4.29-.06-4.55-.76-1.01-.06.79-.4.99-.15.08-2.22.61-.75.75.43.03.79-.71,1.1-.42.31.28-.33.32-.36.36-.12.13.22.44.15.51-1.03,1.18-3.01,1.74-.46-.2-.79-.26-1.51,1.11-2.13.67-.76-.57.05-1.37.07-1.46.26-1.2-.85.37-.69-1.08.11-.79,1.13.92.73-.74-.3-1.4-.67-.58-1.79-.52-.26.01-.7-.79-.42.34.29-.01.68,0,.96.02-.17.3-1.53,1.02-1.55,1.19-.09.79.65.59-.13,1.23.88-.53.42.11.67.25.92.51.93-.49.43,1.32.38-.33.76-.64,1.15-.95.06.17.13.34.2.51-.89.55-.44,1.5-1.7.92.07,1.18.47,1.54,1.28,1.48.16-.01.27.12.36.29.19-.12.81-.42.89-.42.78-.04-.23.83-.73.89.03.13.05.24.06.28.03.25-.57,0-.62.24-.02.08.36.67.2.76-.99.57-.79-.85-.31,1.57.94-.44.25-1.29,1.37-1.54,1.18-.28.04.96,1.38.38-.19.15-.35.27-.57.43.98.46-.05,1.07-.14,1.46-.17.76,1.31,2.79.94.35.26.21.49.46.74.67-1.73,1.3-1.17.66-.46,2.14.16.32-.5,1.02.6.58-.89.68.32,1.07.29,1.22-.21,1.11-2.8-.02-1.42-1.5-.86.14-.05-.47-.42-.75-.54-.41-.76-.39-.56-1.44-1.33-.06,1.34,2.75-1.14,1.64-2.71-.67-8.08-12.21-7.68-17.3-.03-.49-.04-.9-.05-1.22,0-6.31.85-9.85,3.56-14.94.22-.54,2.54-4.17,3.04-2.71.05.21-.54,1.9,1.09,1.22-.64-.08-.43-1-.43-1.1-.04-2.17-.95-1.64.89-3.77ZM51.31,41.24c-2.21,1.2-.23.81.45,2.59.23-.17.47-.33.71-.48-.13-.05-.25-.11-.38-.16,0,0,0,0,0,0-.27-.64-.53-1.29-.77-1.95ZM83.83,52.73c-.26,0-.52,0-.77,0-.04-.31-.08-.61-.13-.92.17-.03.33-.07.5-.1.14.34.27.68.41,1.02ZM42.19,69.75c-.41.73.66.18.45.99.76-.47,1.5-.93,2.25-1.39-.31-.33-.66-.29-.65-.82-.24.16-.48.33-.72.5.09.05.19.1.27.15-.67.46-1.12-.26-1.6.56,0,0,0,0,0,0ZM44.98,73.85c.05.28.35,1.36.73,1.24,1.23-.44-1.09-2.12,1.03-1.21.13-.12.27-.22.4-.33-.18-.32-.35-.63-.52-.94-.55.42-1.1.81-1.65,1.24ZM45.02,47.6c-.32.27-.72,2.13.26,2.01.27-.02-.29-1.27-.07-1.51.13-.15.53.37.55-.07-.24-.14-.49-.3-.74-.43,0,0,0,0,0,0ZM42.5,44.91c-.18.44-.32.9-.47,1.35.77.1.76-.68,1.59-.14,0,.14-.01.28-.01.42-.23-.05-.46-.09-.69-.14.24.61.59.56.1,1.06,1.51.42,2.16.85,1.56-.94.55.64,2.8,2.02,1.62.44-.21-.3-.68-.06-.73-.09-.61-.35-.81-.83-1.38-1.15-.26-.15-.44.11-.81-.09-.18-.1-.46-.69-.77-.72ZM45.84,46.33c.26.35,1.3.64,1.36.25.11-.62-1.19-.56-1.36-.25ZM83.83,52.73s0,0,0,0h0s0,0,0,0ZM44.63,72.49c.46.05.66.44,1.11.09-.01.18-.02.36-.03.54.14-.1.28-.2.41-.3-.16-.4-.3-.8-.43-1.2-.36.29-.72.58-1.07.88ZM47.32,76.46c.35.43.57-.45.92-.63.34-.18.47.36.8-.07-.21-.22-.42-.46-.62-.69-.36.47-.74.93-1.1,1.39,0,0,0,0,0,0ZM60.82,38.31c-.37-.12-.33-.73-.92.07,0,0,0,0,0,0,.76.36,1.62.68,2.31.17-.5-.59-.8-.05-1.39-.24ZM43.3,67.89c-.5.02-.6.84-.13.82.74-.05.87-.86.13-.82ZM76.87,37.48c1.32-.89,1-3-.61-3-.13,0,.46.81.1.95-.04.01-.45-.24-.65-.11-.19.13-.29.6-.54.7-.44.17-.87-.71-1.27-.39-.05.04.12.8.14.83.27.53,1.01-.02,1.08,0,.35.14.01.69.03.86.03.33.42.22.43.25.22.75-.8.03-1.06.18-.66.38-.55,1.06-1.61.97-.11-.01-1.11-.47-.1.73-3.02.37.87,1.26,1.38,1.25.25-.04.27-.72.51-.9.55-.42,1.06-.25,1.46-1.04.85-1.66-.4-.97-.68-1.46.23-.34.43-.68.7-.98-.37.4.6,1.23.69,1.17,0,0,0,0,0,0ZM68.98,36.66c-.53-.69-.7.48-1.17-.29-.68.96.33,1.05.42,1.14.47.37.2,1.48.78,1.26-.01-.7,0-1.4-.03-2.11ZM74.11,38.96c-.64.35.04.67.01.79-.25,1.21-2.11.06-.01-.79ZM41.7,48.54c-.14.18.43.32.49.57.06.25-.67.65-.34.78.33.12,1.67-.52,1.34.61.2.05.33.12.5.18.14-.28.29-.56.43-.83-.59-.11-1.21-.23-1.78-.31-.32-.37.25-.21.25-.21,0,0,0,0,0,0,.11-.33-.57-1.21-.89-.79ZM55.59,38.49c-.45-1.36-.36.32-.47.55-.12.24-.58-.14-.24.39.46.26.76-.79.71-.94,0,0,0,0,0,0ZM65.48,36.15c-.57.31-.49.68-1.14.24.02.35.03.7.05,1.04.5.02.52-.98,1.09-.54.09.07-.17.85.28.63-.09-.44-.18-.92-.28-1.37ZM62.82,37.39c.57-.07,1.06-2.87-.1-1.58-.17.2-.35,1.64.1,1.58ZM45.06,43.57c-.79.79.38.12.88.21-1.39,2.11.1-.32,1.31.52-.1-.48-.34-1.55-.97-1.27-.26.12.11.35.1.36-.41.28-.88-.24-1.32.19ZM70.1,36.86s-.11.49-.26.55c-.14.06-.34-.34-.44-.06-.1.28.38.64.61.48.22-.16.49-1.06.09-.98ZM66.17,34.95c-.58.3.14,2.14.24,2.15,1,.03-.29-1.6-.24-2.15ZM44.82,39.51c-.47,1.68,1.43,2.02,2.65,2.19-.04-.22-.09-.43-.13-.65.38,1.21.52,2.59,1.27.63-.96.45-.51-.34-.54-.4-1.27-1.72-1.87.12-3.26-1.77,0,0,0,0,0,0ZM71.59,37.86c.52.16,2,.39,1.72-.73-.59.22-1.17.47-1.72.73ZM35.93,61.5c-.5.56-.46,1.07-.35,1.72.71-.67.83-.29,1.04-.12.31.26.22-.44.27-.45.73-.05.88.37.78-.62.27.23.55.44.83.65-.04-.73.43-.95.99-1.42-1.4.51-.55-.11-1.27-.63-.36-.28-2.04.57-2.3.87,0,0,0,0,0,0ZM43.5,40.39c.08.29.23.63.34.94-.09.13-.18.27-.27.4-.18-.14-.37-.29-.55-.42-.19.11.1.26.08.33,0,0,0,0,0,0-.29.96-.53,1.19-1.53,1.32.55.43,1.1.85,1.65,1.28.04-.16.08-.32.13-.48-.24-.3-.48-.6-.72-.9.27,0,.55-.01.82-.02-.01-.2,0-.42-.02-.6,1.92.76-.11,1.08.51,1.62.39.33,1.37-.83,1.27-1.24-.01-.06-1.31-.8-.36-.71.16,0,2.4,2.2,1.03-.02-.19-.32-1.78-1.49-2.38-1.52ZM38.82,44.77c2.2.21-1.42,2.22.78,1.7.59.83.63.73,1.54.78.08,0,.16.37.2.37.58-.11.6-.61,1.3-.19.01-.11.03-.2.04-.31-.88-.05-.98-.89-1.37-1.47-.18-.26-.41-.07-.57-.3-.06-.09.32-.32.11-.48-.49-.37-1.32-.61-1.96-.46,0,0,0,0,0,0-.03.12-.05.24-.07.36ZM55.88,33.64c.48,1.02,1.12,1.15.18,2,.12.19.24.38.36.57.17-.07.34-.14.52-.21-.29-3.32,1.72,0,.48-2.09-.14-.23-.54.17-.24-.62,0,0,0,0,0,0-.61.37-.58.77-1.3.34ZM51.97,35.99c-.28,2.73,2.37.33,1.63,0-.08-.04-1.24,1.05-1.63,0ZM63.83,31.24s-.05,0-.07,0c-.68.04-.68,1.24-.61,1.68.08.44.52.02.61.05,0,0,0,0,0,0,.1.12.04.22,0,.33-.04.09-.07.19,0,.32.01.02.03.04.04.06.09.1,1.24.58,1.29.53.31-.29-.07-1.35.02-1.46.31-.38.67.19.79-.35.27-1.16-.57.02-.69.03-.38.04-.32-.62-.6-.77-.29-.14-.48.08-.73.04-.09-.02-.01-.48-.05-.48ZM61.61,33.99c.65-1.01-1.22-1.89-1.42-1.63-.52.73,1.15,2.09,1.42,1.63ZM42.65,44.5c-.16-.94-1.53-.03-1.54.5.29.08,1.6-.2,1.54-.5ZM45.13,39.24c-.32.58,1.33,1.18,1.68.86-.44-.97-.52-.64-.8-.45-.28.19-.63-.85-.88-.4ZM71.4,33.45c-.14-.08-2.39.25-1.3.88.08.04,1.52.28,1.67.18.31-.24-.05-.91-.37-1.05ZM46.6,36.13c.23.92-.03,1.1.83,1.76,0,0,0,0,0,0-.46.74-1.8-.9-1.93-.75-.41.54,1.02,1.33,1.03,1.96.41-.93.84.03,1.41-.32.12-.08.26-.92.12-1.29-.14-.37-1.06-1.11-1.47-1.37ZM74.37,34.25c-.57-.6-1.68.53-.85,1.09.39.28,1.18-.72.85-1.09ZM41.55,77.69c.22-.32.45-.64.67-.96.23.15.47.3.71.44-.22-.08-.44-.17-.67-.27.2.47-.17,1.09-.71.79,0,0,0,0,0,0ZM56.6,87.82c.14.41.85-.57.81-.67-.26-.73-.99.11-.81.67ZM39.3,43.34c-.63.66,1.23,1.15,1.62.81-.47.07-1.26-1.17-1.62-.81ZM50.56,85.4c0-.17,0-.35,0-.53.13.32.11.47,0,.53ZM71.5,31.8c-.09-.17-1.05-.53-1.22-.39-.35.29.17,1.44.67,1.26.05-.02.64-.7.55-.87,0,0,0,0,0,0ZM41.76,79.04s.03-.02.04-.03c-.01,0-.03.02-.04.03ZM76.58,88.2s-.03-.05-.04-.07c.01.02.03.05.04.07ZM64.55,29.23c-.32-1.75-1.17-.82-.52.04.04.04.44-.04.52-.04Z"/>
    <ellipse class="cls-1" cx="95.09" cy="26.61" rx="7.83" ry="7.4"/>
  </g>
</svg>