<?xml version="1.0" encoding="UTF-8"?>
<svg id="Layer_2" data-name="Layer 2" xmlns="http://www.w3.org/2000/svg" viewBox="0 0 123.17 125.34">
  <defs>
    <style>
      .cls-1 {
        fill: #f9f8f7;
      }
    </style>
  </defs>
  <g id="Layer_5" data-name="Layer 5">
    <path class="cls-1" d="M106.56,16.91c-2.29.22-5.3-.02-7.58-.34-.72-.1-.35-.55-.85-.64-.97-.18-1.87.05-2.82-.16-.32-.07.08-.79-.25-.84-1.82-.32-3.54-.13-5.38-.29-9.07-.75-17.99-1.02-27.17-1.34-3.03-.11-6.71-.75-9.83-.47-.37.03-.15.66-.22.71-1.09.79-.73-.47-1.44-.64-2.82-.66-5.96-.72-8.68-.48-1.16.1,0,1.35-1.16.65-.08-.05.21-.71-.1-.78-.72-.16-2.08-.04-2.64-.09-1.07-.1-1.25-.1-2.27-.11-1.39-.02-3.04-.35-4.53-.2-.32.03.1.72-.4.83-.51.12-1.85.06-2.3-.1-.45-.16-.26-.7-.34-.82-.66-1.04-2.21.4-2.41.43-3.36.56-6.27-.09-9.38-.2l.61-.05c-.17.02-.37.06-.56.1-1.93.45-3.78,1.85-4.42,2.75-.43.57-.66.95-.73,1.68-.02,1.39-.07,2.73-.03,4.04,0,.32.81-.07.82.33.14,3.89.06,7.86-.47,11.74-.05.39-.76-.11-.86.28-.57,2.44-1.96,6.16,1.11,7.61-.12,1.61-.24,3.61-.86,5.03-.4.93-1.16.02-.84,1.18.07.26.74-.08.8.31.25,1.63.03,3.44.37,5.04.07.33.67.24.78.33.88.78-.58,2.1-.68,2.38-.79,2.15-.48,3.75-.5,5.76,0,.47.8-.08.83.37.11,2.34.04,4.76-.33,7.04-.08.51-.77.04-.85.28-.32,1.07.98,1.31.69,2.34-.06.22-.65.09-.71.13-1.02.62.42,1.16.45,1.32.43,2.02-1.08,3.3-.87,5.24.03.23.77-.29.8.37.19,4.36-.03,8.96-.64,13.27-.09.67-.65.19-.72.23-1.08.69.36,1.14.42,1.36.39,1.72-.83,3.34.88,4.51-.37,4.34-.19,8.68-.32,12.99l-.19,1c0-.18-.19.3.4.99.55.68,1.59,1.42,2.75,2.09.07.04-.28.68-.13.76,1.92.93,1.83-.27,3.33-1.38.03-.03.07-.03.11-.03.24.03,1.05,1.48,1.11,1.59.31.47-.14,1.5-.03,1.59,1.04.75.98-2.76,2.35-2.69.04,0-.16.64-.06.71.32.22.67-.02,1.01.22.82.55.93,2.26,2.23,1.31.17-.12-.01-2.12,1.16-1.99.5.06,2.57.07,3.2.21.6.14.17.77.22.8,1.55.88.95,1.21,1.74,2.48.8,1.26.63-1.72.95-2.05.32-.33,1.48.39,1.78.63.29.25-.08.65.18.79,1.7.92.76-1.47,1.32-1.94,1.32-1.11,2.35,1.11,3.55,1.33.33.06.06-.44.36-.49,1.19-.17,1.84.52,3.17-.11.22-.1,1.29-1.43,1.97-.45.1.14-.18.69.31.82.73.19,2.08.31,2.86.12.58-.14-.09-1.04.65-.76.33.13-.28.66.34.85.62.19,2.18.17,2.77.14.59-.02.27-.71.31-.75.29-.27,1.43-.6,1.54-.6,5.07-.1,9.76,1.03,14.7.6.39-.03.12-.76.18-.77,1.32-.32.3,1.62,1.23,2.26-.15-1.47.4-1.21,1.34-1.38.45-.08.2-.65.24-.71.66-.87,1.14.24,1.26.47.45.84.92-.16,1.23.4.31.56-.38,1.39.52,1.37.25-.53-.43-1.9.24-2.13,2.57-.87,7.36.15,9.44.24,2.05.09,2.74-.02,3.93.15,2.17.32,1.37-.7,2.71-1.18,1.34-.49.72,2.04.92,2.58.2.54.39-.02.64.27.24.29-.27.67.3.77.57.1,2.07-.88,2.26-1.45.4-1.2-.32-2.45,1.17-2.03.09.03-.18.69.15.75,2.58.47,5.26.46,7.84.86.35.06.05.8.25.84,2.17.43,1.38-.8,2.52-2.19-.23,1.84.43,2.95,2.08,2.93.78,0,.81-.52,1.1-1.02.08-.13.16-.25.28-.38.16-.18.92.28.98-.12.17-1.29-.64-2.49.81-2.29.07,0,.06.71.28.69,1.46-.2,1.18-1.49,1.97-2.26.57-.55,1.82-1.17,1.98-2.46,0-.05.01-.11.02-.16,2.06.05,1.59-1.52.17-2.07.06-1.06-.02-2.16.17-3.14.07-.35.66-.12.73-.17,1.01-.72-.37-1.09-.43-1.33-.53-2.42.52-4.38-.5-6.68-.04-.08-1.47-.21-.42-.83.07-.04.72.73.77-.37.05-1.07.82-3.15.15-4.62-.16-.35-1.32-1.31-.41-2.03.12-.1.54,0,.76-.13.73-.45-.72-.7.51-1.24,1.23-.55,2.15-1.67,1.3-3.18-.03-.05-1.17-.41-1.15-.89.03-.78.27-1.82.26-2.63,0-.38-.72-.14-.73-.2-.4-2.56.24-4.38.51-7.12.05-.51-.92-1.94-.15-2.92.84-1.07,4.34.02,3.5-2.43-.33-.98-4.77-2.25-2.47-4.02-.57-3.45.61-6.64-.21-10.1-.04-.16-1.27-.65-1.26-1.01.03-.54.61-.84.64-1.23.17-1.62-.32-3.12-.24-4.67.03-.59.63-.39.66-1.1.03-.71-.75-1.18-.38-2.14.29-.72,1.9-1.45,2.09-2.42-1.59-.04-1.56-.7-1.98-1.87-.08-.22-.63.02-.7-.09-.29-.44.17-.84-.14-1.26-.07-.1-.62-.11-.71-.19-.8-.7.42-1.84.63-2.04.81-.76.1-1.12.42-1.7.32-.58.71.29.91-.39.4-1.38.31-3.23.34-4.62,0-.57-.72-.18-.73-.26-.18-1.2.59-2.38-.86-3.02,3.73-.82-.36-.73.39-2.4.06-.13,1.82-.3,2.08.21.26.5-.29,1.28.11,2,.09.17,1.75,1.11,1.85,1.24.78,1.02-1.85,1.17-2,1.22-1.56.63.22,1.78.34,2.09.56,1.41.19,2.61.6,3.78.26.77,1.99.85,1.93,1.46-.17,2-2.58,2.72-.49,4.61.45.41,2.33,0,.85,1.46-.09.09-1.45,1.18-.59,1.8.11.08.66.08.71.18.3.69-.14,1.15.07,1.91.21.76.52,1.67.34,2.53-.11.52-1.14,1.19-1.39,1.44-.72.7.46,1.46-.41,1.89-.88.44-2.22-.42-2.78.73,1.43.04,2.9.14,4.33.21-.05,2.53-.51,5-.45,7.54.01.31.78,0,.81.33.12,1.41-.43,2.66-.21,4.13.17,1.13.99,2.4,1.19,3.58-1.64.72-1.08,2.5-1.23,3.78-.05.45-.49.42-.63.73-.53,1.21.92.64,1.14.98.97,1.43-2.3,1.53-2.22,3.21,0,.09,1.75,1.18,1.86,1.33.71.95-.61.16-.74.75-.24,1.06-.65,1.85-.14,3.11.15.37,1.24,1.24.4,1.98-.11.1-.69.04-.72.12-.56,1.39,1.25,1.42,1.86,2.19.61.8-.64,2.03-1,2.27-.93.64-.4-.49-.49-.53-1.09-.41-.9.48-.99,1.14-1.78.09-1.67,1.06-.09.71.17-.04,0-.58.09-.71,1.74.58,1.97,1.67.34,2.8-.76.53-1.65.02-1.33,1.68.15.74,1.37.46,1.7,1.1.76,1.51-.38,3.46-.2,5,.07.54.73.01.8.39.18,1.07-.32,1.88-.06,2.96.03.09.72-.14.73.19.08,2.4-.37,4.51-.38,7.02,0,.04,0,.08,0,.12.26,2.1-1.09,6.47-2.93,7.89-3.17,2.89-7.04,2.74-9.51,3.26-.29.06-.53.11-.72.18h-.13c-.62.28-.51.83-.93,1.23-.99.94-2.81-.68-3.05-.93,0,0,1.03-.19.47-.54-.34-.74-.46.54-.47.54-.16-.16-2.27-.28-2.67-.14-.22.08-.09.74-.2.77-2.8.64-5.58.86-8.44.59-.05-.01.01-.76-.1-.78-1.64-.31-2.69.62-4.03,1.18-1.35.56-2.43.39-3.24-.87-1.02.17-2.5-.37-3.34-.7-.85-.33-.95,1.12-1.02,1.15-2.31.94-3.66.13-6.06.03-1.14-.05-3.41.18-4.64.35-.98.14-1.57-.2-2.47.03-.12.03,0,.67-.03.7-1,.78-.53-.8-.74-1.08-.76-1.01-1.23-1.56-2.52-1.06-.3.11-1.14,2.38-1.68,2.52-.7.17-.44-.64-1.18-.44-.06.02-.05.52-.5.5-2.11-.08-4.42-.36-6.62-.3-.3,0,.09.8-.35.82-2.03.1-4.28.08-6.25-.29-.49-.09-.18-.65-.29-.81-.66-1-1.58.45-1.73.48-3.65.7-6.41-.62-10.12-.02-.2.04-1.8,1.58-2.47.24-.04-.09-.72-1.46-1.35-.54-.04.06.38.77-.37.69-.74-.08-1.96.37-2.98-.42-.32-.25-1.05-1.62-2.07-.56-.07.08-1.61,2.5-2.14.79-.08-.28.04-2.07-1.12-1.19-.23.17.19.59-.44.81-.95.35-2.15-.17-3.31.57-.18.13-1.22,1.29-1.82.32-.11-.15.16-.73-.25-.83-.36-.09-.71-.15-1.05-.21-.43-.06-.85-.12-1.26-.18-1.27-.19-2.62-.39-3.92-1.03-.73-.37-.07-1.17-.76-1.67-.7-.5-2.17-1.39-3.29-1.57-1.15-.21-.91,1.84-2.54.82-2.67-1.65-6.69-6.67-4.29-13.08l-.52,2.74c.17-2.46.54-5.05.63-7.53.02-.62-.53-.11-.54-1.03-.03-3.34-.52-9.13.66-12.03.95-2.33,1.65.61,2.04-1.17.19-.87-1.61-1.79-1.66-2-.57-2.03.23-3.43,0-5.26-.05-.38-.78,0-.81-.33-.12-1.09.2-2.24.15-3.29-.03-.47-.58-.39-.54-.82.1-1.03.33-1.94.86-2.95.05-.09.74.53.76-.24.04-1.24.56-2.77.03-4.19-.16-.42-1.43-.44-.55-1.35.18-.19,1.71.06.39-1-.22-.18-1.99-1.96-.84-2.83.3-.23,1.55-.81,1.35-1.32-.03-.07-.71.21-.78-.21-.22-1.48-.14-3.04-.36-4.56-.06-.41-.76.2-.83-.41-.18-1.67,0-3.75.23-5.38.08-.6.67-.18.73-.23,1.03-.7-.36-1.11-.44-1.35-.49-1.47.17-2.53,0-3.9-.05-.37-.71-.11-.77-.18-.58-.76.62-.2.75-.68.37-1.33.32-2.87.23-4.22-.03-.49-.8.06-.82-.38-.13-2.7-.06-5.4.36-8.05.08-.48.68-.18.81-.28.95-.67-.35-1.75-.47-1.97-.57-1.07-.04-1.48-.14-2.45-.4-3.51-.28-8.09-.21-11.21-.1-2.29.45-4.78,1.46-6.71C6.35,3.47,11.02,2.83,15.64,1.83l1.16-.1c1.86.09,3.74.13,5.76.08.35,0,0-.8.3-.82,3.86-.19,7.67.12,11.54-.11.32-.02-.14-.77.37-.82,1.05-.11,2.37-.07,3.43.17.52.12-.18.76.34.86,1.21.24,2.51.29,3.75.17.53-.05-.27-.82.42-.83,4.68-.08,9.28-.21,14.01.78.32.07.61,1.63,1.3,1.33.05-.43.05-.94.07-1.4,6.81-.25,13.56.29,20.39.37.29,0-.21-.82.35-.82,3.23.01,6.36-.22,9.66.6.33.08.16,1.53,1.12,1.31.17-.04,1.62-.23,2-.55.05-.05-.21-.73.25-.74,2.72-.1,5.58.05,8.29.47.44.07-.03.79.28.84,2.22.38,4.63-.17,6.74.49,1.42.44.89,1.69,1.65,2.92.11.17.98.2,1.03.92.12,1.8-.31,3.76-.13,5.68.04.41,1.21-.03.52.96-.05.07-.9.4-1.11.74-.15.23.12.96-.18,1.26-.3.3-.63-.31-1.12.04-.49.36-.28,1.18-1.26,1.28ZM78.76,120.19c-.79-.69-.87,1.86-.04,1.24.04-.03.08-1.21.04-1.24ZM119.39,57.09c-1.12,1.02.53,1.72,1.39,1,.86-.72-1.05-1.31-1.39-1ZM118.58,46.52c-.88,1.19,2.72,1.38,1.99.1-.04-.07-1.94-.17-1.99-.1ZM105.33,6.39s.64.07.66.03c.34-.81-.93-.87-.66-.03ZM117.69,36.02c-.49.37.08,1.44.68.98.49-.37-.07-1.43-.68-.98ZM38,117.68s-.46-.07-.46.14c.03.69.66.5.46-.14ZM117.64,18.16c-.14,2.67-3.11,4.2-2.78,1.38.06-.52.95,1.1,1.22.45.49-1.2-1.38-2.05-.38-3.24.18-.22,1.95,1.25,1.94,1.41,0,0,0,0,0,0ZM78.28,117.14s-.64-.06-.66-.02c-.33.81.94.86.66.02ZM12.31,114.23c-.02-.07-1.11-.7-1.16-.68-1.38.76,1.18,2.27,1.16.68ZM114.88,109.81c-.81-.72-.91-1.51.11-2.05-.03.36-.04.61-.06,1.02,0,.18-.01.35-.02.5,0,.13-.02.39-.03.53Z"/>
    <path class="cls-1" d="M35.43,30.91c-.17.53-.26.77-.44.56-.04-.05-.1-.45-.13-.52-.05-.12-.02.33-.03.33-.04.01-.16-.7-.17-.72-.13-.27.05.53.01.62-.05.12-.19,0-.3,0-.04,0-.19-.53-.26-.46-.06.05.02.69-.32.11-.1-.23-.2-.49-.3-.73.28,1.02.26.98-.03.84-.05-.02.14.37.02.25-.12-.12-.45-.69-.55-.63-.03.03.19.44.15.49-.1.13-.71-.15-.85-.05-.27.17.18.86-.19.84-.03,0-.37-.38-.41-.36-.04.02.44.51.45.53.07.18-.76-.25-.71-.13.13.28.44.36.44.57,0,.19-.86-.11-1.11-.02-.29.1.82.75-.45.29-.2.58-.35,1.17-.38,1.76-.26-.05-.53-.1-.79-.15.17.08.35.17.52.24-.2-.04-.39-.08-.59-.12.72.37,1.1.56.87.8,0,0-.54-.04-.55-.03-.1.06.3.14.21.19-.08.04-.28.1-.44.15-.29.11-.45.19.47.11-.29.34.21.7-.02,1.01-.1.14-.93.3-.97.38-.04.08.67-.07.71-.05.18.11.19.31-.6.51.32-.04.65-.08.97-.13-.88.18-.42.51-.41.61,0,.02-.37.14-.37.15.1.15.7-.01.94.03.08.02-.59.2-.27.2.03,0,.61-.24.65-.12.08.2.45.37.32.71,0,.03-.61.36-.42.35.07,0,.45-.3.5-.24.17.2,0,.83.53.68-.36.41-.86.79-.49.66.06-.02.35-.42.37-.42.16-.05.02.28.22.19.06-.03.28-.34.36-.39.12-.08-.16.39.02.23.28-.25.53-.71.14.24.69.31,1.5.25,2.33.81.3-.26.56-.56.83-.66.08-.03.07.67.21.44.03-.05.24-.79.27.61,0-.01.01-.03.02-.04.06-.08.1-.09.16-.16-.05-.21-.1-.41-.14-.62.27.22.48-.27.7-.51.16-.17.05.43.15.37.11-.06.15-.19.29.52.09-.83.17-.25.35-.23.02,0,.13-.32.23-.26.07.05.1.56.21.48.02-.01.23-.66.3-.72.11-.1.31.56.33.57.31.11.41-.55.68.51.01-.64.16-1.03.31-.97.18.07.65,1.34.57-.04.25.59.2.22.42.18.19-.03.78.4.88.29.11-.1-.15-.83-.14-.94,0-.18.13.38.17.36.11-.06.14-.19.05-.42.17.36.35.72.54,1.07-.06-.12-.11-.24-.17-.36.01,0,.02-.01.03,0-.86-1.53.04.13.14.11.05,0-.63-.49-.82-.52-.04-.01.33.2.32.19-.11-.06-.38-.18-.34-.16.02.02.53.2.55.18.14-.18-.31-.72-.33-1.24,0-.09.66-.13.68-.21.03-.12-.51-.22-.51-.33,0-.12.65-.25.55-.34-.09-.08-.72.04-.55-.11.08-.07.54.07.56-.02.05-.26-.52-.65.04-.93-.14.01-.26.03-.4.04.06-.31.39-.58.44-.92.02-.12-.39-.32-.39-.43,0-.11.45-.17.46-.26,0-.04-.33-.03-.38-.04,0,0,0,0,0,0,.1-.26.81-.43.72-.71-.34-1.02-.77-1.96-1.3-2.57-.02-.03-.51.15-.59.14-.13,0,.29-.19.3-.2.07-.09-.31.1-.34.04-.06-.13.16-.51.05-.61-.24-.23-.71-.13-1-.12-.02,0,.38-.46.36-.49-.18-.22-.53.25-.73-.05-.19-.3-.88-.92-1.5-1.1,0,0,0,0,0,0-.37,1.09-.52.78-.66-.09,1.61-2.66,2.98-1.03,3.95-.39.57.36,1.46.52,2.32,1.08.85.53,1.59,1.41,1.62,2.37,0,.18-.62.35-.47.47.03.02.51-.12.57-.05.58.69.22,1.54.03,2.28-.08.33-.12.63-.02.94.08.28.64.31.78.57-.26-.05-.54-.08-.8-.12-.83,1.1-.47,2.2-.74,3.27-.01.05-.55-.03-.58,0-.06.08.51.29.51.38,0,.12-.42.04-.42.14,0,.05.41.14.31.23,0,0-.43-.11-.39-.03.1.21.29.71.29.92,0,.28-.63.01-.7.02-.19.04.28.52.14.65-1.14.87-2.6.17-3.94.29-.09,0-.36.77-.54.75-.06,0-.36-.19-.4-.21-.18-.06-.34-.5-.45-.6-.19-.18-.38.53-.48.6-.19.13-.5.04-.58.02-.18-.04-.13-.92-.26-.71-.04.06,0,.73-.13.73-.12,0-.16-.51-.24-.6-.08-.09-.22.69-.27.67-.15-.06-.25-.25-.36-.41-.08-.12-.16-.23-.28-.24-.21-.01-1.23.26-1.35.42-.5.76.21.48.24.51.18.18.14.49.38-.09.08,1.87.83-.99.96,1.2.01-.12.03-.22.04-.31.16-1.05.29-.4.45-.13.24.41.06-.45.23-.45.07,0,.28.66.38.57.11-.09.15-.6.28-.63.24-.06.46.18.68.79.03-.27.06-.54.09-.81.15.29.31.57.47.86-.03-.24-.06-.47-.09-.71.04-.04.08-.07.13-.1.16.35.3.67.46,1.03.35-1.38.28-.2.52-.03.24.16.33-.63.49-.65.23-.02.34-.13.57-.1.13.02.47.75.13-.43.42-.14.9-.56,1.37-.18.15.11.09.52.12.56.16.19.09-.43.21-.37.2.1.7.43.91.46.3.05.25-.84.23-.9-.02-.37.4.14.43.06.15-.45-.05-.67,1.07.2-.31-.54-.92-1.42-.02-.94-.76-.51-.48-.68-.61-.94.25.08.51.16.77.23-1.36-.98-.09-1.17.18-1.69,0-.01-.67-.13-.51-.18.01,0,.32.05.37,0,.15-.13.98-.67.98-.75.04-.27-.47-.33-.51-.49-.06-.21.41-.22.35-.41-.03-.09-.64-.19-.55-.33.05-.08.53-.08.57-.14.14-.23-.16-.42.47-.61-1.53-.07-.4-.15-.28-.26.47-.41-.17-.93-.03-1.27.03-.09.07-.17.11-.26.47-1.06,1.21-2.16,1.16-3.43-.01-.22-.77-.11-.77-.33,0-.1.51-.34.47-.51-.03-.14-.35-.25-.4-.41-.01-.04.48-.21.46-.28-.14-.52-.69-.89-1.15-1.25-.17-.13.37-.57-.67.03.22-.2.41-.39.63-.6-.79.14-.23-.46-.62-.67-.05-.03-.87.25-.5-.24-.34.26-.61.5-.92.74-.21,0,.03-.48,0-.59-.03-.11-.48.22-.5.21-.08-.07.46-.56.46-.57.11-.88-.16-.59-1.09.05-.22.17-.14-.78-.72-.13.2-.29.4-.53.6-.8-.08-.17-.17-.34-.26-.5-.15.31-.29.62-.45.92-.11-.42-.72.16-.9.04-.11-.07.23-.74.09-.63-.03.02-.22.49-.28.51-.46.15-.39-.4-.72-.62-.16-.1-.57.73-.62.08,0-.06-.05-.92-.46.19.04-.37.04-.57.08-.88-.67,1.63-.21-.01-.57-.49-.19-.25-.98-.04-1.22.13-.15.1-.2.78-.23.81-.15.15-.11-.51-.25-.41-.14.1-.34.84-.47.77-.1-.06,0-.88-.15-.59-.03.06.04.76-.11.48-.02-.04-.27-.8-.33-.96.14-.44.57-1,.74-1.17,1.42-1.46,4.1-2.11,7.11-.81,3.11,1.27,4.99,4.76,5.27,6.66.08.38-.56.78-.56,1.02,0,.23.59-.11.58.11,0,.22-.43.46-.44.64-.04,1.27-.26,2.42-.38,3.49,0,0,0,0,0,.01-.01.24.5.42.5.63,0,.08-.69.09-.68.15.05.65.71,1.27.62,1.97-.04.29-.64.59-.71.88-.06.24.32.54.3.78,0,.14-.54.15-.58.19-.15.15.49.16.48.25-.03.26-.82.26-.8.49,0,.1.5.17.54.33.06.2-.37.04-.42.16,0,0,.35.06.34.13-.01.48.05,1.23-.26,1.8-.62,1.22-2.28,1.82-3.21,2.1-.24.09.02.47-.05.52-.33.27-.65-.2-.93.1-.05.05-.09.73-.36.64-.14-.05-.37-.41-.48-.48-.11-.07,0,.5-.11.53-.21.04-.23-.36-.48-.24-.1.05-.39.65-.67.65-.47-.01-1.02-.47-1.49-.45-.17,0-.33.62-.59.63-.31.02-.87-.1-1.16-.1-.15,0-.18-.63-.19-.66-.12-.17-.06.53-.14.5-.11-.04-.22-.55-.31-.59-.06-.02-.06.5-.08.5-.49.18-.91.13-1.41.19,0,0,0,0,0,0-2.94.34-7.4.08-9.99-3.49-.2-.28.31-.69.06-.86-.24-.15-1.6.35-.4-.68-.27.16-.46.28-.71.42.05-.75-.62-1.07-.9-1.6-.21-.39-.29-.77-.37-1.15-.07-.34.47-.45-.29-.55.07-1.37-.08-2.58.44-3.71.06-.14.13-.28.21-.41-1.16-.36-.4-.67-.18-1.07.03-.05-.4-.04-.35-.2.07-.2.73-.21.75-.54,0-.08-.57-.9-.13-1.05.42-.15.73-.41,1.15-.53-.28-.06-.54-.1-.82-.15,0-.14,0-.27,0-.41.32.1.65.2.97.3-.28-.18-.55-.36-.82-.54,1.67.48,1.08.43.81-.05-.13-.24.2-.25.11-.48-.03-.08-.47-.34-.5-.44-.06-.23.52.17.57.08.04-.1-.57-.6-.17-.61,1.11.83.98.14.09-.44.04-.06.1-.09.12-.18,2.26,1.47.81.18.59-.15-.22-.33.37.08.37.04-.01-.12-.3-.24-.27-.3.22-.42.83-.48,1.14-.78.05-.04-.3-.27-.22-.3.08-.03.43.19.48.09.01-.03-.24-.28-.21-.31.68-.71,1.59-1.08,2.43-1.57.08-.04-.21-.62-.04-.7.17-.08.69.29.89.23.06-.02-.18-.49-.11-.52.26-.08.65.21.92.17.45-.07.79-.54,1.32-.37.1.03.21.46.36.55.25.15,0-.45.03-.54.07-.31.32.52.39.27.01-.04-.13-.53-.11-.54.28-.15.51,1.02.69.34.37.64-.01.94.02,1.3.08.89.51,1.87.66,2.18.14.27.06-.28.1-.28.21-.03.53-.16.7.1.1.15-.06.39,0,.57.05.18.07-.24.12.22.06.45.13,1.79.12,2.42ZM30.13,40.69c-1.69,1.44-2.37.33-2.44-.25-.11-.52,1.28-1.54-.89-.43.22.5.65.75.92,1.25.03.05.07.47.13.6.03.07-.27.34-.2.41.02.02.48-.25.5-.21.05.13-.16,1.03-.09,1.06.19.07.54-.45.67-.49.42-.14-.14.61.25.52.07-.01.66-.6.73-.42.03.07-.1.49-.04.51.32.07.86-.28,1.04-.09.15.16-.16.71-.08.83.08.13.49-.5.57-.51.14-.02.13.42.17.43.77.14,1.52-.19,2.2-.26-.41-.35-.8-.7-1.11-1.1-.41.56-.13,0-.21-.23-.06-.19-.44.85-.57.68,0,0,0,0,0,0-.07-.09.04-.87-.24-.64-.01,0-.25.53-.39.49-.31-.09-.91-.08-1.15-.39-.07-.09.29-.58.24-.71-.03-.09-.45.29-.49.11-.05-.24.54-1-.44-.09.31-.36.62-.7.93-1.05ZM27.64,32.4c.06-.02,1.56.26.05-.26-.82.17-.66.79-1.15,1.18,1.57.2,1.02-.18,1.02-.54,0,0,0,0,0,0,0-.02.37.17.33.07-.02-.05-.56-.42-.25-.45Z"/>
    <path class="cls-1" d="M29.14,45.85c.68-.18,1.57.01,2.25.28.21.08.1.45.25.53.29.14.55-.04.84.13.09.06-.02.65.08.69.54.26,1.05.11,1.6.23,2.65.61,5.26.83,7.94,1.09l3.46-.4.5,4.36s0,.09-.01.13c-.09.9-.62,1.99-.39,2.92.03.11.54.04.59.06.65.32-.39.22-.53.43-.55.84-.59,1.77-.39,2.58.09.34,1.11,0,.54.34-.04.02-.59-.06-.65.03-.13.21-.03.62-.08.78-.09.32-.08.37-.09.67-.01.41-.29.9-.16,1.35.03.09.59-.03.69.12.1.15.05.55-.08.68-.13.13-.57.08-.68.1-.85.2.33.66.36.72.5,1.08-.18,2.01-.17,3.03,0,.77.23,1.6.19,2.33-.04.87-.34,1.62-.29,2.46,0,.09.67-.02.67.09.08,1.16,0,2.32-.44,3.48-.05.12-.63-.03-.71.08-.48.71-1.62,1.83.9,2.26-.1.48-.2,1.07-.71,1.5-.33.28-.96,0-.69.35.06.08.61-.02.66.09.2.49.02,1.02.31,1.5.06.1.56.07.64.1.72.23-.47.62-.56.7-.65.64-.39,1.11-.41,1.71,0,.14.66-.03.68.11.1.69.04,1.41-.26,2.09-.07.15-.63.01-.7.08-.26.32.81.39.58.69-.05.06-.53.03-.59.04-.84.18.35.34.38.39.36.6-.88.98-.71,1.56.02.07.64-.09.66.11.17,1.29,0,2.66-.49,3.94-.08.2-.54.06-.59.07-.89.2.3.34.35.4.32.51-.68.99.74,1.34-.39,1.74.04,3.47-.43,5.2l.21,1.84-2.32.27c-.43-.11-.85-.29-1.28-.54-.03-.01.02-.6-.03-.63-.66-.33-.53.58-.97,1.7-.11.28-.44-1.07-.47-1.17-.11-.36,0-1.24-.03-1.31-.3-.55-.25,2.33-.65,2.33-.01,0,.04-.54,0-.59-.1-.17-.21.04-.31-.14-.23-.42-.32-1.83-.68-1.01-.05.11.02,1.74-.33,1.67-.14-.03-.78,0-.95-.11-.18-.11-.06-.63-.07-.66-.48-.7-.3-.99-.54-2.02-.24-1.03-.17,1.42-.27,1.7-.1.27-.45-.3-.53-.5-.09-.2.02-.54-.06-.65-.51-.74-.22,1.22-.39,1.61-.39.92-.7-.9-1.06-1.08-.1-.05-.02.37-.1.4-.34.15-.55-.42-.94.1-.06.08-.38,1.18-.58.38-.03-.12.05-.57-.09-.67-.22-.15-.61-.25-.85-.1-.17.11.03.86-.19.63-.1-.1.08-.54-.1-.7-.18-.16-.65-.14-.82-.12-.18.02-.08.58-.09.62-.09.22-.42.49-.45.49-.43.02-.85-.04-1.26-.14l-1.41.16-.21-1.78c.23-1.04.66-2.06.43-3.11-.02-.12-.62-.04-.63-.06-.25-.39,1.34-.08,1.87-.36-1.21.04-.99-.12-1.13-.4-.07-.13-.53-.06-.58-.07-.71-.2.21-.34.4-.37.69-.13-.13-.27.34-.36.46-.09,1.14.12,1.13-.15-.43-.07-1.57.12-1.75-.08-.7-.76.19-2.19.29-2.8.09-.61.01-.81.17-1.17.28-.64-.56-.41-.94-.81-.39-.4,1.69-.21,2.13-.26.44-.06-.01-.12.23-.19.24-.07.55.08.64-.08.09-.17-.7-.62-1.17-.68-.99-.12-2.02.08-1.66-.36.02-.03.57.06.62-.04.42-.77.45-1.56.82-2.32.05-.11.66-.01.69-.07.39-.64-.63-.41-1.77-.76,1.51.08,2.43-.11,2.44-.6,0-.29-.65-.24-1.12-.43-.14-.06.31-.26,0-.3-1.01-.12-2.15.07-1.7-.43.02-.02.58.05.61-.03.22-.49-.84-.55-.97-1.08-.1-.41.55-1.15.65-1.62,1.7,0,1.31-.44.14-.62.05-.31-.02-.64.14-.93.06-.1.55-.03.6-.05.83-.2-.31-.33-.35-.4-.43-.72.43-1.3-.41-1.98-.03-.02-1.21-.06-.35-.25.06-.01.6.21.64-.11.04-.32.67-.93.13-1.37-.13-.11-1.09-.38-.34-.6.1-.03.44,0,.63-.04.6-.14-.59-.21.42-.37,1.01-.16,1.77-.49,1.07-.94-.02-.01-.97-.12-.95-.26.02-.23.22-.55.22-.78,0-.11-.59-.04-.6-.06-.33-.76.19-1.3.42-2.11.04-.15-.76-.58-.12-.87.69-.32,3.57,0,2.89-.72-.27-.29-3.93-.67-2.04-1.19-.47-1.02.5-1.97-.17-3-.03-.05-1.05-.19-1.04-.3.02-.16.5-.25.53-.36.14-.48-.26-.92-.2-1.39.02-.18.52-.11.54-.33.03-.21-.62-.35-.31-.64.24-.22,1.57-.43,1.72-.72-1.31-.01-1.28-.21-1.63-.56-.07-.07-.52,0-.58-.03-.23-.13.14-.25-.11-.37-.06-.03-.51-.03-.58-.06-.66-.21.35-.55.52-.61.66-.22.08-.33.35-.5.26-.17.59.09.75-.12.33-.42.26-.95.28-1.38,0-.17-.59-.05-.6-.08-.15-.35.48-.7-.7-.9,3.07-.24-.3-.21.32-.71.05-.04,1.5-.09,1.72.06.21.15-.24.38.09.59.08.05,1.44.33,1.52.37.64.3-1.53.35-1.65.36-1.29.18.18.53.28.62.46.42.16.77.49,1.12.21.23,1.64.25,1.59.43-.14.6-2.13.81-.41,1.37.37.12,1.92,0,.7.43-.08.03-1.2.35-.49.53.09.02.54.02.58.05.25.21-.11.34.06.57.17.22.43.49.28.75-.09.15-.94.35-1.14.43-.6.21.38.43-.34.56-.72.13-1.82-.12-2.29.22,1.18.01,2.38.04,3.57.06-.04.75-.42,1.49-.37,2.24,0,.09.64,0,.66.1.1.42-.35.79-.17,1.23.14.34.81.71.98,1.06-1.35.22-.89.74-1.01,1.12-.04.13-.4.12-.52.22-.43.36.76.19.94.29.8.42-1.89.46-1.83.95,0,.03,1.44.35,1.53.39.58.28-.5.05-.61.22-.19.32-.54.55-.12.92.12.11,1.02.37.33.59-.09.03-.57.01-.59.04-.46.41,1.03.42,1.53.65s-.52.6-.82.67c-.77.19-.33-.15-.4-.16-.9-.12-.74.14-.82.34-1.46.03-1.37.31-.07.21.14-.01,0-.17.07-.21,1.43.18,1.62.49.28.83-.63.16-1.36,0-1.09.5.12.22,1.13.14,1.4.33.63.45-.31,1.02-.16,1.48.05.17.6,0,.66.12.15.3-.26.57-.05.87.02.03.6-.04.6.05.07.72-.3,1.34-.31,2.09,0,.36.31,1.01.25,1.38-.11.65-.95,1.45-.74,2,.13.36.71.28,1.1.44.76.3-.6.83-.81.9,0,0-.14-.31-.44-.14-.62.1.44.14.44.14-.14.05-.27.67-.16.79.06.07.61.03.63.06.49.83.63,1.66.37,2.5-.01.01-.62,0-.64.03-.27.49.48.8.92,1.2.44.4.3.72-.75.96.13.3-.33.74-.61.99-.28.25.91.29.93.31.75.69.07,1.08-.03,1.8-.05.34.12,1.01.25,1.38.1.29-.17.46,0,.73.02.04.55,0,.57.01.63.3-.66.15-.89.22-.84.22-1.29.36-.89.74.09.09,1.96.34,2.07.51.14.21-.53.13-.37.35.01.02.43.01.41.15-.06.49-.22,1.02-.27,1.54l-5.56-5.56c.14.01.28.02.42,0,.09,0-.03-.66.1-.68.6-.08,1.26-.05,1.85.25.14.08.05.54.09.67.19.82.47-.37.51-.4,1.07-.57,1.9.51,2.99,0,.06-.03.52-1.31.72-.21.01.07.22,1.2.4.43.01-.05-.12-.63.11-.57.22.06.57-.33.88.31.1.2.32,1.32.61.43.02-.06.46-2.09.62-.69.03.23,0,1.71.34.95.07-.15-.05-.48.12-.68.26-.32.61.08.94-.58.06-.12.3-1.12.49-.36.03.12-.03.61.07.67.48.26.99-.07,1.48.28.17.12.09.92.27,1.13.18.21.55.42.74.05.19-.36-.02-1.63.27-1.74.04-.01.07-.03.11-.04l-6.33,6.33c-.36-1.2.34-2.39.45-3.59.02-.18-.44-.03-.45-.3-.03-1-.46-2.71.51-3.58.77-.69,1.36.18,1.68-.35.15-.26-1.33-.53-1.37-.59-.47-.6.18-1.02-.02-1.56-.04-.11-.64,0-.67-.1-.1-.33.16-.67.11-.98-.02-.14-.48-.11-.45-.24.08-.31.27-.58.7-.88.04-.03.61.16.63-.07.03-.37.46-.82.02-1.25-.13-.13-1.18-.13-.45-.4.15-.06,1.41.02.32-.3-.18-.05-1.64-.58-.7-.84.25-.07,1.27-.24,1.11-.39-.03-.02-.59.06-.64-.06-.18-.44-.12-.9-.3-1.35-.05-.12-.63.06-.68-.12-.15-.5,0-1.11.18-1.6.07-.18.55-.06.6-.07.85-.21-.3-.33-.36-.4-.4-.43.14-.76,0-1.16-.04-.11-.59-.03-.63-.05-.48-.23.51-.06.62-.2.31-.4.26-.85.19-1.26-.03-.15-.66.02-.68-.12-.11-.79-.05-1.62.3-2.39.07-.15.56-.05.67-.08.78-.21-.28-.52-.39-.59-.46-.32-.03-.45-.11-.73-.4-1.38-.12-3.09.06-4.4.23-1.7.69-3.02.57-4.65,0-.1-.66,0-.67-.09-.16-1.15.1-2.28-.09-3.43-.01-.09-.63.04-.67-.11-.09-.31-.06-.7.14-1.02.09-.15.62.05.71-.1.2-.36.24-.74.14-1.11-.04-.16-.67.08-.68-.12-.06-1.39-.17-2.76.65-4.16.06-.1,1.34-.18,1.09-.39-.36-.02-.77-.01-1.16-.02-.05-.48-.06-.97-.05-1.45l6.11,6.11c-1.53-.04-3.06-.31-4.61-.36-.09,0,.06.68-.1.68-.96-.01-1.89.18-2.87-.5-.1-.07-.05-1.26-.33-1.08-.05.03-.48.19-.59.45-.02.04.06.6-.08.61-.81.08-1.66-.04-2.46-.38-.13-.06,0-.65-.08-.7-.66-.32-1.37.14-2-.4-.42-.36-.27-1.39-.49-2.4-.03-.14-.29-.17-.31-.75-.03-1.48.09-3.1.04-4.68-.01-.34-.36.03-.15-.79.01-.05.27-.33.33-.61.04-.19-.03-.79.05-1.04.09-.25.19.26.33-.03.15-.29.08-.97.38-1.05ZM30.52,92.81c-.57.23,1.52.27,1.02.02-.03-.01-.99-.03-1.02-.02ZM30.18,64.77c-.92.3.43.51,1.15.3.71-.21-.87-.39-1.15-.3ZM29.51,61.63c-.73.35,2.24.41,1.64.03-.03-.02-1.6-.05-1.64-.03ZM29.51,54.52s-.19-.05-.2-.03c-.1.66.27.72.2.03ZM28.78,58.51c-.4.11.06.43.56.29.4-.11-.06-.43-.56-.29ZM33.48,99.12s.14.06.14-.12c0-.57-.2-.41-.14.12ZM28.74,53.21c-.11.78-2.56,1.26-2.29.41.05-.15.78.33,1,.14.4-.36-1.14-.6-.31-.97.15-.07,1.61.38,1.6.43,0,0,0,0,0,0ZM28,92.95s-.05.19-.03.2c.66.1.72-.27.03-.2ZM41.32,100.42c.01.06.44.11.46.06.23-1.09-.65-1.2-.46-.06ZM26.47,80.42c-.67-.2-.75-.45.09-.61-.04.2-.05.4-.09.61ZM58.12,55.41c.23,1.45.1,3.36-.12,4.82-.07.46-.45.24-.51.56-.12.62.08,1.18-.07,1.79-.05.2-.65-.03-.69.18-.22,1.16-.03,2.25-.12,3.42-.42,5.77-.45,11.43-.52,17.27-.02,1.92-.48,4.27-.18,6.25.04.23.55.08.59.12.67.67-.37.47-.5.93-.49,1.81-.47,3.8-.21,5.52.11.73,1.11-.04.56.72-.04.05-.59-.11-.64.09-.12.46.01,1.32-.02,1.68-.02.25-.04.42-.04.58l-2.98-2.88c.26.02.46.02.86.02.88.01,1.93.29,2.87.16.2-.03-.07-.59.26-.69.32-.1,1.17-.05,1.46.08.29.13.16.57.22.68.42.85,1.4-.33,1.53-.36,2.31-.5,4.29.18,6.46.17.4,0,.81-.01,1.23-.03l-2.94,2.94c-.06-1.27-.18-2.57-.16-3.75.04-1.87.34-3.45.29-5.26,0-.19-.67.03-.67-.2-.08-2.48,0-4.95.44-7.42.05-.25.63.07.71-.18.48-1.52,1.62-3.92-.9-4.82.1-1.03.2-2.28.71-3.2.33-.59.96-.02.69-.75-.06-.16-.61.05-.66-.2-.2-1.04-.02-2.17-.31-3.2-.06-.21-.55-.15-.64-.21-.72-.5.47-1.32.56-1.5.11-.23.19-.45.26-.67l.2-1.01c.78-1.03,1.09-1.97,1.81-3.01.2-.29-.58-.32-.4-.62.98-1.52,2.48-3.13,4.84-3.77.52-.12.26.58.51.55,1.02-.04,1.12-1.16,2.31-.92.24.06.07.54.11.59.5.87,1.18-.16,1.39-.13,1.5.2,2.07,1.29,2.58,2.08.12.26.28.48.56.61.11.05.25-.6.52-.45.88.53,2.11.83,3.83,2.15,1.72,1.38,2.4,3.45,2.57,4.95.06.48-.48.28-.53.32-.73.69.49.69.57.83.59,1.15-.27,2.29,1.23,2.93.03,4.89.76,9.51-.58,14.15-.02.06-.6-.06-.63.06-.36,1.37.56,1.13,1.64,2.12.27.27-1.09.91-1.19.97-.37.21-1.24-.05-1.31.03-.57.61,2.32.6,2.29,1.47,0,.03-.53-.11-.59-.04-.17.22.03.46-.16.68-.44.5-1.85.59-1.06,1.39.1.1,1.74.02,1.63.79-.04.31-.08,1.7-.2,2.04-.12.37-.64.09-.66.11-.74.98-1.02.58-2.07,1.04-1.05.46,1.4.44,1.67.67.17.15-.04.53-.26.82l-1.13-1.19c.15.11.27.22.33.28.18.2-.05.53.12.65,1.08.74.47-1.22.83-1.61.84-.92,1.5.9,2.26,1.08.21.05.04-.37.22-.41.73-.15,1.18.42,2.01-.1.14-.08.81-1.18,1.25-.38.06.12-.11.57.2.67.47.15,1.31.25,1.81.1.37-.11-.05-.86.41-.63.21.1-.18.54.21.7.39.16,1.38.14,1.76.12.38-.01.17-.58.2-.62.18-.22.91-.49.97-.49,1.05-.02,2.07.06,3.08.18l-1.57,1.46c.4-2.05.9-4.06.79-6.18-.01-.25-.62-.11-.62-.15-.21-.85,1.35-.11,1.9-.68-1.22.03-.98-.31-1.09-.9-.05-.29-.53-.15-.57-.18-.7-.45.24-.71.43-.77.7-.26-.1-.59.36-.76.47-.18,1.13.29,1.14-.28-.43-.17-1.58.21-1.75-.22-.64-1.64.28-4.62.36-5.93.08-1.3-.01-1.72.12-2.48.24-1.37-.58-.85-1-1.67-.42-.82,1.66-.51,2.1-.65.44-.14-.03-.25.21-.41.24-.16.56.15.63-.21.07-.36-.78-1.29-1.25-1.38-1-.2-2,.31-1.71-.64.02-.05.57.08.61-.13.29-1.64.15-3.32.29-4.98.02-.23.65-.11.67-.25.18-1.41-.76-.78-1.99-1.32,1.51-.09,2.37-.63,2.18-1.68-.11-.62-.74-.39-1.28-.68-.16-.08.19-.62-.13-.63-1.05-.03-2.06.61-1.85-.49.01-.05.58-.04.58-.2-.03-1.04-1.09-.89-1.51-1.86-.33-.77-.21-2.36-.51-3.27,1.57-.66.81-1.38-.4-1.17-.24-.58-.61-1.1-.79-1.68-.06-.2.42-.36.45-.41.47-.8-.63-.38-.74-.46-1.15-.84-1.41-2.32-2.97-2.38-.06,0-.76.94-.56.05,0-.06.66-.3.16-.65-.46-.34-1.36-1.42-2.37-1.09-.25.07-.88.92-1.18.14-.04-.11.06-.44,0-.63-.22-.63-.44.55-.72-.48-.11-.38-.28-.73-.52-.97-.39-.41-.91-.55-1.52-.08-.03.02-.22.97-.51.98-.48,0-1.18-.14-1.68-.08-.24.03-.02.6-.06.61-1.54.51-2.73.18-4.47.36-.33.03-.97,1.03-1.74.6-.84-.46-1.03-3.44-2.4-2.26-.58.5.01,4.17-1.75,2.86-.49.34-1,.6-1.52.81-.25.11-.53.21-.77.29-.13.04-.26.08-.35.09-.04.01-.12,0,.04,0,.06,0,.2.05.3.17.1.12.11.26.11.32,0,.1-.01.1,0,.1l.07-.13-.03-.2c-.09-.99-.22-1.99-.72-2.95-.05-.09-1.11-.22-1.13-.45-.04-.34.4-.61.38-.86-.04-1.04-.61-1.89-.73-2.88-.04-.38.46-.33.41-.78-.03-.24-.23-.4-.39-.59l.07.04c-.14.18-.32.32-.64.29-.52-.05-1.44-1.11-2.06-1.02.47,1.22.07,1.35-.49,1.95-.11.12.21.48.16.56-.17.32-.55.07-.69.4-.04.08.13.5.11.59-.16.78-1.22.12-1.4,0-.69-.44-.68.19-1.12.08-.44-.1-.05-.61-.51-.6-.95.03-1.98.53-2.83.85-.34.13.12.59.07.62-.63.42-1.57.12-1.51,1.37-1.63-2.65-.31.44-1.52.28-.1-.01-.74-1.32-.52-1.64.22-.32.84-.08,1.13-.56.07-.11.12-1.6.17-1.71.36-.84,1.26,1.14,1.34,1.23.84,1.05.98-.59,1.12-.76.65-.77,1.47-.77,2.04-1.36.37-.38-.12-1.72.26-1.82,1.24-.35,2.39,1.33,2.86-.72.1-.44-.72-1.78.6-1,.08.05,1.14.83,1.24.02.01-.1-.16-.52-.11-.58.22-.28.49-.25.77-.33l4.95-1.7.6,4.76c0,.12.04.24.11.36.26.44.61.96.56,1.53-.03.34-.79.91-.96,1.1-.51.55.54.84-.12,1.24-.66.4-1.84.06-2.17.87,1.16-.18,2.36-.34,3.53-.51.21,1.35.17,2.72.37,4.07l.17,1.37-.44.87c.07-.16.17-.4.25-.88.03-.18.12-.86-.1-1.61-.2-.76-.85-1.69-1.6-2.14-.71-.46-1.45-.55-1.67-.57-.27-.02-.47-.01-.62,0-.33.03-.42.06-.5.08-.32.09-.22.07-.2.05.09-.05-.26-.59-.15-.66.61-.38,1.65-.38,2.52-.93.67-.44,1.27-1.39,2.03-1.83.94,1.09,1.97.27,2.9.15.32-.04.39.31.64.36.92.21.25-.84.44-1.08.82-1.02,1.49,1.59,2.59,1.31.05-.01.56-1.56.66-1.66.58-.68.19.48.62.52.79.08,1.33.36,2.18-.14.24-.15.82-1.09,1.37-.42.07.09.06.56.11.59.98.42.95-1.06,1.52-1.58.11-.1.24-.14.38-.14.67.01,1.35.77,1.49,1.03.46.82-.44.29-.48.37-.39.88.33.76.85.9-.1,1.46.59,1.48.55.16,0-.15-.45-.08-.55-.16.65-1.37,1.73-1.37,2.29.2.24.74-.37,1.27.88,1.48.57.12.79-.89,1.41-.89,1.48.04,2.33,1.81,3.29,2.55.36.28.43-.43.69-.24.71.51.88,1.33,1.54,1.85.06.05.41-.45.57-.24,1.23,1.56,1.7,3.21,2.43,4.89.36.82,1.22,2.2,1.42,3.08.39,1.55.02,3.53.48,4.74.29.78.82.49,1.28.77.89.55-.26,1.99-.44,2.18,0,0-.25-.67-.49-.25-.58.31.48.24.49.25-.11.13-.04,1.54.1,1.79.08.14.61-.01.64.06.73,1.81,1.04,3.68.91,5.59,0,.03-.62.02-.64.1-.2,1.1.58,1.75,1.06,2.63.48.88.35,1.6-.69,2.15.15.67-.3,1.64-.58,2.19-.28.55.91.62.94.67.76,1.52.07,2.4-.07,3.95-.07.75.06,2.21.16,3.03.08.64-.21,1-.06,1.6.02.08.55.02.57.05.6.69-.68.31-.92.43-.86.45-1.33.71-.98,1.57.08.2,1.91.86,2,1.22.11.46-.55.25-.42.74.01.04.42.06.39.36-.12.94-.32,1.96-.46,2.94l-.71,5.41-4.85-.26c-.43-.03-.85-.04-1.27-.03-.19,0,.05.66-.22.67-1.29.08-2.7.05-3.95-.25-.31-.08-.12-.54-.18-.67-.41-.82-.99.37-1.09.4-2.3.58-4.05-.51-6.39,0-.13.03-1.11,1.31-1.55.21-.03-.07-.46-1.2-.85-.43-.02.05.23.58-.17.57l-6.69-.36.63-6.01s0-.03,0-.05c.08-.48-.26-1.26.4-1.87.21-.19,1.35-.62.49-1.24-.06-.02-2.04-1.08-.63-1.35.23-.04,1.71.07.98-.68-.14-.14-.48.09-.67-.28-.29-.56.13-1.25-.5-1.99-.11-.13-1.1-.67-.32-1.04.12-.06.61.08.67-.13.3-.95,0-2.11.36-3.09.13-.35.92-.15,1.14-.52.22-.39.44-1.17.08-1.56-.36-.39-1.63.01-1.73-.56-.42-2.58.31-5.09.29-7.52,0-.35-.44-.02-.48-.56-.12-1.99-.98-4.94-.37-5.78.5-.79,1.33-.39,1.41-.95.01-.15-.33-.07-.65.1-.32.16-.61.41-.62.43-.15.2.04.29,0,.16-.03-.11-.24-.36-.81-.52-.24-.07-.28.58-.49.51-.74-.24-1.63-1.01-2.53-1.57-.4-.25-.61.16-.95-.14-.23-.2-.44-.42-.65-.65.01-.13.12-.28.31-.52.02-.04.29-.54.3-.55.06,0,.45-.31.78.05.05.06.14.34.23.51.08.17.2.22.12-.14-.03-.15-.57-1.28-.1-.31.05.19.93,1.33.15.78-.2-.15-1.07-.73-1.07-.48,0,.03.49.33.44.47-.16.48-.55.96-.68,1.58-.03.16.59.23.54.45-.04.18-.11.37-.18.52l.51-2.53c0,.81-.12,1.67-.24,2.39-.07.38-.55.12-.6.15-.85.45.3.71.36.86.4.92-.14,1.62,0,2.47.04.23.59.07.63.11.48.48-.51.12-.62.43-.31.86-.26,1.81-.19,2.68.03.32.66-.04.68.25.11,1.69.05,3.45-.3,5.1-.07.31-.56.12-.67.18-.78.45.28,1.1.39,1.25.46.68.03.95.11,1.56.4,2.96.12,6.6-.06,9.39-.1,1.63-.25,3.1-.38,4.53l-.32,6-5.38-.29c-1.76-.15-3.48-.26-5.39-.2-.22,0,0,.66-.19.67-2.45.16-4.87-.1-7.32.09-.2.01.09.63-.23.67-.53.08-1.18.07-1.76-.04l-7.03-.38.13-6.3c.02-.15.05-.29.08-.42.08-.33.63.09.7-.24.17-.77.19-1.6.06-2.38-.05-.33-.67.19-.69-.24-.16-2.97-.37-5.88.34-8.9.05-.21,1.33-.43,1.06-.86-.36-.02-.78,0-1.16,0-.35-4.31-.05-8.6-.13-12.94,0-.18-.67.16-.68-.2-.06-2.05-.31-4.03.29-6.14.06-.21,1.26-.14,1.06-.75-.04-.11-.23-1.02-.49-1.25-.04-.03-.59.16-.62-.14-.14-1.72-.08-3.54.21-5.27.05-.28.65,0,.69-.2.27-1.42-.24-2.93.26-4.29.33-.91,1.37-.61,2.37-1.12.14-.07.14-.63.73-.68,1.48-.12,3.1.09,4.68-.07.34-.03-.05-.77.78-.35.06.03.35.56.63.68.2.09.79-.1,1.04.08.25.18-.24.41.06.71.3.3.98.14,1.08.77ZM103.25,85.74c-.58.5,1.52.59,1.02.04-.03-.03-.99-.07-1.02-.04ZM71.13,53.85c-.79.8.62.99,1.24.42.62-.58-1-.66-1.24-.42ZM69.27,47.36c-.58.87,2.36.46,1.63-.23-.04-.04-1.59.18-1.63.23ZM49.48,56.48s.04-.41.01-.42c-.67-.19-.7.61-.01.42ZM62.16,47.85c.37.28.83-.4.37-.75-.37-.28-.83.4-.37.75ZM87.99,99.71s-.29-.06-.29.12c.02.57.42.41.29-.12ZM51.68,52.13c1.59-.52,3.45,1.37,1.66,1.8-.32.08.37-.99-.11-1.04-.86-.09-.76,1.53-1.79,1.06-.19-.09.15-1.79.24-1.82,0,0,0,0,0,0ZM100.73,86s-.06.41-.03.42c.66.23.73-.58.03-.42ZM85.9,86.24c.06-.02.13-.95.07-.98-1.08-.49-1.22,1.36-.07.98ZM95.67,60.28c-.78-.11-1.03-.46-.43-1.14.14.38.31.74.43,1.14Z"/>
  </g>
</svg>