<?xml version="1.0" encoding="UTF-8"?>
<svg id="Layer_2" data-name="Layer 2" xmlns="http://www.w3.org/2000/svg" viewBox="0 0 371.21 312.93">
  <defs>
    <style>
      .cls-1, .cls-2 {
        fill: #16242c;
      }

      .cls-3 {
        fill: none;
      }

      .cls-3, .cls-4, .cls-5, .cls-6, .cls-2, .cls-7, .cls-8 {
        stroke-miterlimit: 10;
      }

      .cls-3, .cls-5, .cls-2, .cls-7 {
        stroke: #16242c;
      }

      .cls-3, .cls-2 {
        stroke-width: 9.76px;
      }

      .cls-4 {
        stroke-width: 30.03px;
      }

      .cls-4, .cls-6, .cls-8 {
        fill: #3bc1cc;
        stroke: #3bc1cc;
      }

      .cls-9 {
        fill: #fff;
      }

      .cls-10 {
        fill: #66aba0;
      }

      .cls-5 {
        stroke-width: 7.51px;
      }

      .cls-5, .cls-7 {
        fill: #fdb614;
      }

      .cls-6 {
        stroke-width: 22.82px;
      }

      .cls-7 {
        stroke-width: 6.76px;
      }

      .cls-11 {
        fill: #a0d4b5;
      }

      .cls-8 {
        stroke-width: .57px;
      }
    </style>
  </defs>
  <g id="Layer_7" data-name="Layer 7">
    <g>
      <path class="cls-4" d="M224.47,264l57.31-63.81s-16.79-6.8-23.74-9.83c-6.95-3.03-23.16-6.93-23.16-6.93l10.42-62.37,54.8-18.19,6.56,17.33,17.37,6.06,15.44-15.59v-11.78l12.35-2.08s-7.72-25.12-23.16-45.05c0,0-16.98-3.03-21.61-1.73l-18.91-19.93h-33.96l-8.88-7.36s-53.65,7.8-60.98,6.5-13.89-3.47-13.89-3.47l10.03,19.49s-96.1,25.99-147.43,74.5c0,0,74.87,10.4,115.39,38.55l-36.66,29.89s67.54-3.9,86.06,7.36c18.52,11.26,33.58,28.59,26.63,68.44Z"/>
      <path class="cls-8" d="M266.64,186.23s22.24-11.79,24.94-17.42l-16,28.64s-3.87-8.94-8.94-11.22Z"/>
      <path class="cls-6" d="M305.34,116.69s-.3,29.93-12.27,74.76c0,0,24.95-17.54,32.89-66.49,0,0-14.23,1.66-20.62-8.27Z"/>
    </g>
    <polygon class="cls-8" points="259.67 178.01 279.11 168.81 295.64 161.6 281.78 208.99 259.67 178.01"/>
  </g>
  <g id="Layer_5" data-name="Layer 5">
    <path class="cls-10" d="M224.47,264l47.86-53.28s-7.33-17.33-14.28-20.36c-6.95-3.03-23.16-6.93-23.16-6.93l10.42-62.37,54.8-18.19,6.56,17.33,17.37,6.06,15.44-15.59v-11.78l12.35-2.08s-7.72-25.12-23.16-45.05c0,0-16.98-3.03-21.61-1.73l-18.91-19.93h-33.96l-8.88-7.36s-53.65,7.8-60.98,6.5c-7.33-1.3-13.89-3.47-13.89-3.47l10.03,19.49s-96.1,25.99-147.43,74.5c0,0,74.87,10.4,115.39,38.55l-36.66,29.89s67.54-3.9,86.06,7.36c18.52,11.26,33.58,28.59,26.63,68.44Z"/>
  </g>
  <g id="Layer_9" data-name="Layer 9">
    <path class="cls-11" d="M254.18,30.09l-50.82,8.07,20.12,18.75-44.69,1.54s-85.42,40.23-97.77,50.05c0,0,66.36,24.53,77.64,34.87,4.16,3.81,1.41,8.78-2.16,14.48-4.88,7.8-12.05,16.06-12.05,16.06,0,0,37.43-7.47,58.53,5.72s34.48,50.73,34.48,50.73l31.91-26.46-10.81-13.97-23.67-5.78,10.42-63.1,54.8-18.19,6.56,17.33,17.37,6.06,15.44-15.59-3.47-25.41,12.72,11.21-20.05-44.71-22.85-3.03-17.68-18.63h-33.96Z"/>
    <path class="cls-10" d="M288.14,32.84l-3.53,15.88s12.4,24.53,21.64,6.06c4.09-8.18-18.1-24.69-18.1-24.69"/>
    <path class="cls-10" d="M331.14,82.69s-.12,20.17,0,22.81c.77,16.6,9.7,5.11,9.7,5.11"/>
    <path class="cls-10" d="M302.93,96.95s-70.6,3.83-70.6,5.74c0,5.36-.51,22.85-.51,22.85l71.11-28.6Z"/>
  </g>
  <g id="Layer_10" data-name="Layer 10">
    <polygon class="cls-2" points="303.76 101.48 236.94 113.08 234.89 183.43 245.31 121.06 303.76 101.48"/>
  </g>
  <g id="Layer_13" data-name="Layer 13">
    <path class="cls-7" d="M304.77,116.12s4.03,26.68-7.94,71.51c0,0,22.38-23.82,28.56-63.24,0,0-14.23,1.66-20.62-8.27Z"/>
    <path class="cls-9" d="M258.65,193.41s20.77-14.21,22.82-20.11l-8.61,36.28s-8.91-14.47-14.21-16.17Z"/>
  </g>
  <g id="Layer_4" data-name="Layer 4">
    <path class="cls-2" d="M154.04,152.23s10.35-20.62,26.56-38.77l-30.47,9.91s5.86.32-14.21,23.72l18.12,5.15Z"/>
    <path class="cls-2" d="M107.14,76.88s9.54,9.78-6.66,27.93l30.47-9.91s-9.14-8.49,10.93-31.89l-34.73,13.86Z"/>
    <path class="cls-2" d="M41.15,113s20.84-15.52,4.63,2.64l49.32,18.41s-38.9-18.55-18.84-41.94l-35.12,20.9Z"/>
    <path class="cls-2" d="M339.47,98.97l-6.17-16.89s11.09,5.27,13.89,8.45c2.72,3.08-7.72,8.45-7.72,8.45Z"/>
    <path class="cls-2" d="M210.5,104.81s-26.37,52.2-29.9,54.37c0,0,24.77,5.73,35,18.84,0,0-11.77-31.62-11.79-38.33,0-2.81,6.69-34.87,6.69-34.87Z"/>
    <polygon class="cls-2" points="177 37.46 198.03 48.72 180.6 46.55 177 37.46"/>
    <path class="cls-7" d="M297.41,63.01l-13.63-16.92-34.48,8.46s39.03,3.02,48.11,8.46Z"/>
    <path class="cls-5" d="M259.67,191.32s22.24-11.79,24.94-17.42l-13.08,33.6s-6.78-13.9-11.85-16.19Z"/>
  </g>
  <g id="Layer_11" data-name="Layer 11">
    <polygon class="cls-1" points="319.18 97.72 316.26 97.32 315.1 94.28 316.87 91.63 319.8 92.03 320.95 95.07 319.18 97.72"/>
    <polygon class="cls-1" points="323.98 109.21 319.74 108.63 318.07 104.23 320.63 100.4 324.87 100.98 326.54 105.38 323.98 109.21"/>
    <polygon class="cls-1" points="313.11 106.4 309.71 105.94 308.37 102.4 310.42 99.33 313.82 99.79 315.16 103.33 313.11 106.4"/>
  </g>
  <g id="Layer_2-2" data-name="Layer 2">
    <path class="cls-3" d="M224.47,264l47.86-53.28s-7.33-17.33-14.28-20.36c-6.95-3.03-23.16-6.93-23.16-6.93l10.42-62.37,54.8-18.19,6.56,17.33,17.37,6.06,15.44-15.59v-11.78l12.35-2.08s-7.72-25.12-23.16-45.05c0,0-16.98-3.03-21.61-1.73l-18.91-19.93h-33.96l-8.88-7.36s-53.65,7.8-60.98,6.5c-7.33-1.3-13.89-3.47-13.89-3.47l10.03,19.49s-96.1,25.99-147.43,74.5c0,0,74.87,10.4,115.39,38.55l-36.66,29.89s67.54-3.9,86.06,7.36c18.52,11.26,33.58,28.59,26.63,68.44Z"/>
  </g>
</svg>